<?xml version="1.0" encoding="utf-8"?>
<svg xmlns="http://www.w3.org/2000/svg" xmlns:xlink="http://www.w3.org/1999/xlink" width="600" height="400" viewBox="0 0 2400 1600">
<defs>
  <clipPath id="clip260">
    <rect x="0" y="0" width="2400" height="1600"/>
  </clipPath>
</defs>
<path clip-path="url(#clip260)" d="
M0 1600 L2400 1600 L2400 0 L0 0  Z
  " fill="#ffffff" fill-rule="evenodd" fill-opacity="1"/>
<defs>
  <clipPath id="clip261">
    <rect x="480" y="0" width="1681" height="1600"/>
  </clipPath>
</defs>
<defs>
  <clipPath id="clip262">
    <rect x="570" y="47" width="1405" height="1405"/>
  </clipPath>
</defs>
<path clip-path="url(#clip260)" d="
M570.036 1450.96 L1973.75 1450.96 L1973.75 47.2441 L570.036 47.2441  Z
  " fill="#ffffff" fill-rule="evenodd" fill-opacity="1"/>
<polyline clip-path="url(#clip262)" style="stroke:#000000; stroke-linecap:butt; stroke-linejoin:round; stroke-width:2; stroke-opacity:0.1; fill:none" points="
  570.036,1450.96 570.036,47.2441 
  "/>
<polyline clip-path="url(#clip262)" style="stroke:#000000; stroke-linecap:butt; stroke-linejoin:round; stroke-width:2; stroke-opacity:0.1; fill:none" points="
  920.965,1450.96 920.965,47.2441 
  "/>
<polyline clip-path="url(#clip262)" style="stroke:#000000; stroke-linecap:butt; stroke-linejoin:round; stroke-width:2; stroke-opacity:0.1; fill:none" points="
  1271.89,1450.96 1271.89,47.2441 
  "/>
<polyline clip-path="url(#clip262)" style="stroke:#000000; stroke-linecap:butt; stroke-linejoin:round; stroke-width:2; stroke-opacity:0.1; fill:none" points="
  1622.82,1450.96 1622.82,47.2441 
  "/>
<polyline clip-path="url(#clip262)" style="stroke:#000000; stroke-linecap:butt; stroke-linejoin:round; stroke-width:2; stroke-opacity:0.1; fill:none" points="
  1973.75,1450.96 1973.75,47.2441 
  "/>
<polyline clip-path="url(#clip260)" style="stroke:#000000; stroke-linecap:butt; stroke-linejoin:round; stroke-width:4; stroke-opacity:1; fill:none" points="
  570.036,1450.96 1973.75,1450.96 
  "/>
<polyline clip-path="url(#clip260)" style="stroke:#000000; stroke-linecap:butt; stroke-linejoin:round; stroke-width:4; stroke-opacity:1; fill:none" points="
  570.036,1450.96 570.036,1432.06 
  "/>
<polyline clip-path="url(#clip260)" style="stroke:#000000; stroke-linecap:butt; stroke-linejoin:round; stroke-width:4; stroke-opacity:1; fill:none" points="
  920.965,1450.96 920.965,1432.06 
  "/>
<polyline clip-path="url(#clip260)" style="stroke:#000000; stroke-linecap:butt; stroke-linejoin:round; stroke-width:4; stroke-opacity:1; fill:none" points="
  1271.89,1450.96 1271.89,1432.06 
  "/>
<polyline clip-path="url(#clip260)" style="stroke:#000000; stroke-linecap:butt; stroke-linejoin:round; stroke-width:4; stroke-opacity:1; fill:none" points="
  1622.82,1450.96 1622.82,1432.06 
  "/>
<polyline clip-path="url(#clip260)" style="stroke:#000000; stroke-linecap:butt; stroke-linejoin:round; stroke-width:4; stroke-opacity:1; fill:none" points="
  1973.75,1450.96 1973.75,1432.06 
  "/>
<path clip-path="url(#clip260)" d="M539.978 1496.53 L569.654 1496.53 L569.654 1500.47 L539.978 1500.47 L539.978 1496.53 Z" fill="#000000" fill-rule="evenodd" fill-opacity="1" /><path clip-path="url(#clip260)" d="M583.775 1509.43 L600.094 1509.43 L600.094 1513.36 L578.15 1513.36 L578.15 1509.43 Q580.812 1506.67 585.395 1502.04 Q590.001 1497.39 591.182 1496.05 Q593.427 1493.52 594.307 1491.79 Q595.21 1490.03 595.21 1488.34 Q595.21 1485.58 593.265 1483.85 Q591.344 1482.11 588.242 1482.11 Q586.043 1482.11 583.589 1482.87 Q581.159 1483.64 578.381 1485.19 L578.381 1480.47 Q581.205 1479.33 583.659 1478.75 Q586.113 1478.18 588.15 1478.18 Q593.52 1478.18 596.714 1480.86 Q599.909 1483.55 599.909 1488.04 Q599.909 1490.17 599.099 1492.09 Q598.312 1493.99 596.205 1496.58 Q595.626 1497.25 592.525 1500.47 Q589.423 1503.66 583.775 1509.43 Z" fill="#000000" fill-rule="evenodd" fill-opacity="1" /><path clip-path="url(#clip260)" d="M920.965 1481.88 Q917.354 1481.88 915.525 1485.44 Q913.72 1488.99 913.72 1496.11 Q913.72 1503.22 915.525 1506.79 Q917.354 1510.33 920.965 1510.33 Q924.599 1510.33 926.405 1506.79 Q928.234 1503.22 928.234 1496.11 Q928.234 1488.99 926.405 1485.44 Q924.599 1481.88 920.965 1481.88 M920.965 1478.18 Q926.775 1478.18 929.831 1482.78 Q932.91 1487.37 932.91 1496.11 Q932.91 1504.84 929.831 1509.45 Q926.775 1514.03 920.965 1514.03 Q915.155 1514.03 912.076 1509.45 Q909.021 1504.84 909.021 1496.11 Q909.021 1487.37 912.076 1482.78 Q915.155 1478.18 920.965 1478.18 Z" fill="#000000" fill-rule="evenodd" fill-opacity="1" /><path clip-path="url(#clip260)" d="M1266.55 1509.43 L1282.87 1509.43 L1282.87 1513.36 L1260.92 1513.36 L1260.92 1509.43 Q1263.58 1506.67 1268.17 1502.04 Q1272.77 1497.39 1273.95 1496.05 Q1276.2 1493.52 1277.08 1491.79 Q1277.98 1490.03 1277.98 1488.34 Q1277.98 1485.58 1276.04 1483.85 Q1274.12 1482.11 1271.01 1482.11 Q1268.82 1482.11 1266.36 1482.87 Q1263.93 1483.64 1261.15 1485.19 L1261.15 1480.47 Q1263.98 1479.33 1266.43 1478.75 Q1268.89 1478.18 1270.92 1478.18 Q1276.29 1478.18 1279.49 1480.86 Q1282.68 1483.55 1282.68 1488.04 Q1282.68 1490.17 1281.87 1492.09 Q1281.08 1493.99 1278.98 1496.58 Q1278.4 1497.25 1275.3 1500.47 Q1272.2 1503.66 1266.55 1509.43 Z" fill="#000000" fill-rule="evenodd" fill-opacity="1" /><path clip-path="url(#clip260)" d="M1625.83 1482.87 L1614.03 1501.32 L1625.83 1501.32 L1625.83 1482.87 M1624.61 1478.8 L1630.49 1478.8 L1630.49 1501.32 L1635.42 1501.32 L1635.42 1505.21 L1630.49 1505.21 L1630.49 1513.36 L1625.83 1513.36 L1625.83 1505.21 L1610.23 1505.21 L1610.23 1500.7 L1624.61 1478.8 Z" fill="#000000" fill-rule="evenodd" fill-opacity="1" /><path clip-path="url(#clip260)" d="M1974.16 1494.22 Q1971.01 1494.22 1969.16 1496.37 Q1967.33 1498.52 1967.33 1502.27 Q1967.33 1506 1969.16 1508.18 Q1971.01 1510.33 1974.16 1510.33 Q1977.31 1510.33 1979.13 1508.18 Q1980.99 1506 1980.99 1502.27 Q1980.99 1498.52 1979.13 1496.37 Q1977.31 1494.22 1974.16 1494.22 M1983.44 1479.56 L1983.44 1483.82 Q1981.68 1482.99 1979.88 1482.55 Q1978.09 1482.11 1976.33 1482.11 Q1971.7 1482.11 1969.25 1485.24 Q1966.82 1488.36 1966.47 1494.68 Q1967.84 1492.67 1969.9 1491.6 Q1971.96 1490.51 1974.44 1490.51 Q1979.64 1490.51 1982.65 1493.68 Q1985.69 1496.83 1985.69 1502.27 Q1985.69 1507.6 1982.54 1510.81 Q1979.39 1514.03 1974.16 1514.03 Q1968.16 1514.03 1964.99 1509.45 Q1961.82 1504.84 1961.82 1496.11 Q1961.82 1487.92 1965.71 1483.06 Q1969.6 1478.18 1976.15 1478.18 Q1977.91 1478.18 1979.69 1478.52 Q1981.5 1478.87 1983.44 1479.56 Z" fill="#000000" fill-rule="evenodd" fill-opacity="1" /><path clip-path="url(#clip260)" d="M1286.07 1539.92 Q1286.07 1541.72 1284.94 1542.75 Q1283.81 1543.75 1282.53 1543.75 Q1281.3 1543.75 1280.66 1543.04 Q1280.01 1542.33 1280.01 1541.43 Q1280.01 1540.21 1280.91 1539.14 Q1281.82 1538.08 1283.17 1537.85 Q1281.85 1537.02 1279.88 1537.02 Q1278.6 1537.02 1277.47 1537.69 Q1276.37 1538.37 1275.7 1539.24 Q1275.05 1540.11 1274.47 1541.37 Q1273.93 1542.59 1273.7 1543.33 Q1273.51 1544.04 1273.35 1544.81 L1271.09 1553.83 Q1270 1558.11 1270 1559.63 Q1270 1561.49 1270.9 1562.75 Q1271.8 1563.97 1273.6 1563.97 Q1274.31 1563.97 1275.12 1563.78 Q1275.92 1563.55 1276.95 1562.98 Q1278.02 1562.36 1278.95 1561.46 Q1279.92 1560.53 1280.85 1558.95 Q1281.78 1557.37 1282.4 1555.34 Q1282.59 1554.63 1283.23 1554.63 Q1284.04 1554.63 1284.04 1555.28 Q1284.04 1555.83 1283.59 1556.98 Q1283.17 1558.11 1282.24 1559.59 Q1281.33 1561.04 1280.14 1562.36 Q1278.95 1563.65 1277.18 1564.55 Q1275.41 1565.46 1273.48 1565.46 Q1270.71 1565.46 1268.87 1563.97 Q1267.03 1562.49 1266.36 1560.43 Q1266.2 1560.72 1265.97 1561.11 Q1265.75 1561.49 1265.07 1562.36 Q1264.43 1563.2 1263.68 1563.84 Q1262.94 1564.46 1261.78 1564.94 Q1260.66 1565.46 1259.43 1565.46 Q1257.89 1565.46 1256.5 1565 Q1255.15 1564.55 1254.18 1563.52 Q1253.22 1562.49 1253.22 1561.08 Q1253.22 1559.5 1254.28 1558.4 Q1255.38 1557.27 1256.86 1557.27 Q1257.79 1557.27 1258.53 1557.82 Q1259.3 1558.37 1259.3 1559.56 Q1259.3 1560.88 1258.4 1561.88 Q1257.5 1562.88 1256.21 1563.14 Q1257.53 1563.97 1259.5 1563.97 Q1261.62 1563.97 1263.3 1562.11 Q1264.97 1560.24 1265.78 1557.11 Q1267.77 1549.61 1268.55 1546.26 Q1269.32 1542.88 1269.32 1541.43 Q1269.32 1540.08 1268.97 1539.14 Q1268.61 1538.21 1268 1537.79 Q1267.42 1537.34 1266.87 1537.18 Q1266.36 1537.02 1265.78 1537.02 Q1264.81 1537.02 1263.72 1537.4 Q1262.65 1537.79 1261.37 1538.69 Q1260.11 1539.56 1258.92 1541.37 Q1257.73 1543.17 1256.92 1545.65 Q1256.76 1546.39 1256.05 1546.39 Q1255.28 1546.36 1255.28 1545.71 Q1255.28 1545.17 1255.7 1544.04 Q1256.15 1542.88 1257.05 1541.43 Q1257.98 1539.98 1259.18 1538.69 Q1260.4 1537.37 1262.17 1536.47 Q1263.97 1535.57 1265.91 1535.57 Q1266.78 1535.57 1267.61 1535.76 Q1268.48 1535.92 1269.51 1536.41 Q1270.58 1536.89 1271.51 1537.95 Q1272.44 1539.01 1273.02 1540.56 Q1273.41 1539.82 1273.93 1539.11 Q1274.47 1538.4 1275.31 1537.53 Q1276.18 1536.63 1277.37 1536.12 Q1278.6 1535.57 1279.95 1535.57 Q1281.27 1535.57 1282.56 1535.92 Q1283.85 1536.24 1284.94 1537.31 Q1286.07 1538.34 1286.07 1539.92 Z" fill="#000000" fill-rule="evenodd" fill-opacity="1" /><polyline clip-path="url(#clip262)" style="stroke:#000000; stroke-linecap:butt; stroke-linejoin:round; stroke-width:2; stroke-opacity:0.1; fill:none" points="
  570.036,1450.96 1973.75,1450.96 
  "/>
<polyline clip-path="url(#clip262)" style="stroke:#000000; stroke-linecap:butt; stroke-linejoin:round; stroke-width:2; stroke-opacity:0.1; fill:none" points="
  570.036,1100.03 1973.75,1100.03 
  "/>
<polyline clip-path="url(#clip262)" style="stroke:#000000; stroke-linecap:butt; stroke-linejoin:round; stroke-width:2; stroke-opacity:0.1; fill:none" points="
  570.036,749.102 1973.75,749.102 
  "/>
<polyline clip-path="url(#clip262)" style="stroke:#000000; stroke-linecap:butt; stroke-linejoin:round; stroke-width:2; stroke-opacity:0.1; fill:none" points="
  570.036,398.173 1973.75,398.173 
  "/>
<polyline clip-path="url(#clip262)" style="stroke:#000000; stroke-linecap:butt; stroke-linejoin:round; stroke-width:2; stroke-opacity:0.1; fill:none" points="
  570.036,47.2441 1973.75,47.2441 
  "/>
<polyline clip-path="url(#clip260)" style="stroke:#000000; stroke-linecap:butt; stroke-linejoin:round; stroke-width:4; stroke-opacity:1; fill:none" points="
  570.036,1450.96 570.036,47.2441 
  "/>
<polyline clip-path="url(#clip260)" style="stroke:#000000; stroke-linecap:butt; stroke-linejoin:round; stroke-width:4; stroke-opacity:1; fill:none" points="
  570.036,1450.96 582.307,1450.96 
  "/>
<polyline clip-path="url(#clip260)" style="stroke:#000000; stroke-linecap:butt; stroke-linejoin:round; stroke-width:4; stroke-opacity:1; fill:none" points="
  570.036,1100.03 582.307,1100.03 
  "/>
<polyline clip-path="url(#clip260)" style="stroke:#000000; stroke-linecap:butt; stroke-linejoin:round; stroke-width:4; stroke-opacity:1; fill:none" points="
  570.036,749.102 582.307,749.102 
  "/>
<polyline clip-path="url(#clip260)" style="stroke:#000000; stroke-linecap:butt; stroke-linejoin:round; stroke-width:4; stroke-opacity:1; fill:none" points="
  570.036,398.173 582.307,398.173 
  "/>
<polyline clip-path="url(#clip260)" style="stroke:#000000; stroke-linecap:butt; stroke-linejoin:round; stroke-width:4; stroke-opacity:1; fill:none" points="
  570.036,47.2441 582.307,47.2441 
  "/>
<path clip-path="url(#clip260)" d="M473.921 1451.41 L503.597 1451.41 L503.597 1455.35 L473.921 1455.35 L473.921 1451.41 Z" fill="#000000" fill-rule="evenodd" fill-opacity="1" /><path clip-path="url(#clip260)" d="M517.717 1464.31 L534.036 1464.31 L534.036 1468.24 L512.092 1468.24 L512.092 1464.31 Q514.754 1461.55 519.337 1456.92 Q523.944 1452.27 525.124 1450.93 Q527.37 1448.4 528.249 1446.67 Q529.152 1444.91 529.152 1443.22 Q529.152 1440.46 527.208 1438.73 Q525.286 1436.99 522.184 1436.99 Q519.985 1436.99 517.532 1437.75 Q515.101 1438.52 512.323 1440.07 L512.323 1435.35 Q515.147 1434.21 517.601 1433.63 Q520.055 1433.06 522.092 1433.06 Q527.462 1433.06 530.657 1435.74 Q533.851 1438.43 533.851 1442.92 Q533.851 1445.05 533.041 1446.97 Q532.254 1448.87 530.147 1451.46 Q529.569 1452.13 526.467 1455.35 Q523.365 1458.54 517.717 1464.31 Z" fill="#000000" fill-rule="evenodd" fill-opacity="1" /><path clip-path="url(#clip260)" d="M522.092 1085.83 Q518.481 1085.83 516.652 1089.39 Q514.846 1092.94 514.846 1100.07 Q514.846 1107.17 516.652 1110.74 Q518.481 1114.28 522.092 1114.28 Q525.726 1114.28 527.532 1110.74 Q529.36 1107.17 529.36 1100.07 Q529.36 1092.94 527.532 1089.39 Q525.726 1085.83 522.092 1085.83 M522.092 1082.13 Q527.902 1082.13 530.958 1086.73 Q534.036 1091.32 534.036 1100.07 Q534.036 1108.79 530.958 1113.4 Q527.902 1117.98 522.092 1117.98 Q516.282 1117.98 513.203 1113.4 Q510.147 1108.79 510.147 1100.07 Q510.147 1091.32 513.203 1086.73 Q516.282 1082.13 522.092 1082.13 Z" fill="#000000" fill-rule="evenodd" fill-opacity="1" /><path clip-path="url(#clip260)" d="M517.717 762.447 L534.036 762.447 L534.036 766.382 L512.092 766.382 L512.092 762.447 Q514.754 759.692 519.337 755.063 Q523.944 750.41 525.124 749.067 Q527.37 746.544 528.249 744.808 Q529.152 743.049 529.152 741.359 Q529.152 738.605 527.208 736.868 Q525.286 735.132 522.184 735.132 Q519.985 735.132 517.532 735.896 Q515.101 736.66 512.323 738.211 L512.323 733.489 Q515.147 732.355 517.601 731.776 Q520.055 731.197 522.092 731.197 Q527.462 731.197 530.657 733.882 Q533.851 736.568 533.851 741.058 Q533.851 743.188 533.041 745.109 Q532.254 747.007 530.147 749.6 Q529.569 750.271 526.467 753.489 Q523.365 756.683 517.717 762.447 Z" fill="#000000" fill-rule="evenodd" fill-opacity="1" /><path clip-path="url(#clip260)" d="M524.453 384.967 L512.647 403.416 L524.453 403.416 L524.453 384.967 M523.226 380.893 L529.106 380.893 L529.106 403.416 L534.036 403.416 L534.036 407.305 L529.106 407.305 L529.106 415.453 L524.453 415.453 L524.453 407.305 L508.851 407.305 L508.851 402.791 L523.226 380.893 Z" fill="#000000" fill-rule="evenodd" fill-opacity="1" /><path clip-path="url(#clip260)" d="M522.508 45.3807 Q519.36 45.3807 517.509 47.5334 Q515.68 49.6862 515.68 53.4362 Q515.68 57.163 517.509 59.3389 Q519.36 61.4917 522.508 61.4917 Q525.657 61.4917 527.485 59.3389 Q529.337 57.163 529.337 53.4362 Q529.337 49.6862 527.485 47.5334 Q525.657 45.3807 522.508 45.3807 M531.791 30.728 L531.791 34.9872 Q530.032 34.1539 528.226 33.7141 Q526.444 33.2743 524.684 33.2743 Q520.055 33.2743 517.601 36.3992 Q515.171 39.5242 514.823 45.8436 Q516.189 43.8298 518.249 42.765 Q520.309 41.677 522.786 41.677 Q527.995 41.677 531.004 44.8483 Q534.036 47.9964 534.036 53.4362 Q534.036 58.7602 530.888 61.9778 Q527.74 65.1954 522.508 65.1954 Q516.513 65.1954 513.342 60.6121 Q510.171 56.0056 510.171 47.2788 Q510.171 39.0844 514.059 34.2233 Q517.948 29.3391 524.499 29.3391 Q526.258 29.3391 528.041 29.6863 Q529.846 30.0335 531.791 30.728 Z" fill="#000000" fill-rule="evenodd" fill-opacity="1" /><path clip-path="url(#clip260)" d="M402.122 734.665 Q402.573 734.665 403.636 734.955 L428.821 741.267 Q434.425 742.652 438.354 747.161 Q442.283 751.637 442.283 756.726 Q442.283 759.785 440.641 761.75 Q439.03 763.714 436.551 763.714 Q434.361 763.714 433.298 762.555 Q432.267 761.396 432.267 760.011 Q432.267 759.56 432.396 759.077 Q432.525 758.594 433.072 758.078 Q433.62 757.563 434.554 757.563 Q436.067 757.563 437.259 758.884 Q437.807 759.528 437.935 760.14 Q438.064 760.719 438.064 761.718 Q438.966 761.331 439.578 760.623 Q440.19 759.914 440.415 759.109 Q440.673 758.304 440.737 757.789 Q440.834 757.241 440.834 756.726 Q440.834 752.603 436.679 749.447 Q435.423 748.513 434.167 747.837 Q432.943 747.128 431.43 746.613 Q429.948 746.098 429.143 745.872 Q428.338 745.615 426.502 745.164 Q429.497 748.159 429.497 751.83 Q429.497 753.376 429.079 754.761 Q428.66 756.114 427.791 757.305 Q426.889 758.497 425.311 759.206 Q423.733 759.882 421.639 759.882 Q419.417 759.882 416.39 759.012 Q413.362 758.143 407.791 756.049 Q404.667 754.922 403.153 754.922 Q402.412 754.922 401.961 755.083 Q401.478 755.244 401.317 755.566 Q401.124 755.888 401.092 756.082 Q401.06 756.243 401.06 756.565 Q401.06 758.465 402.992 760.236 Q404.924 762.008 409.24 763.231 Q410.045 763.489 410.238 763.65 Q410.432 763.811 410.432 764.294 Q410.399 765.099 409.755 765.099 Q409.498 765.099 408.499 764.809 Q407.469 764.52 405.955 763.843 Q404.409 763.135 403.024 762.169 Q401.607 761.202 400.609 759.689 Q399.61 758.143 399.61 756.371 Q399.61 753.956 401.189 752.475 Q402.734 750.961 405.021 750.961 Q405.955 750.961 406.792 751.219 Q407.597 751.444 409.755 752.281 Q418.451 755.663 422.702 755.663 Q423.733 755.663 424.602 755.502 Q425.44 755.309 426.277 754.89 Q427.082 754.471 427.565 753.634 Q428.016 752.764 428.016 751.573 Q428.016 750.059 427.307 748.642 Q426.567 747.193 425.568 746.291 Q424.57 745.357 423.733 744.81 Q422.863 744.23 422.412 744.101 L410.56 741.138 L405.279 739.818 Q402.412 739.206 401.704 738.916 Q401.027 738.529 400.673 737.853 Q400.319 737.177 400.319 736.597 Q400.319 735.792 400.802 735.244 Q401.285 734.665 402.122 734.665 Z" fill="#000000" fill-rule="evenodd" fill-opacity="1" /><circle clip-path="url(#clip262)" cx="1973.75" cy="47.2441" r="14" fill="#ff0000" fill-rule="evenodd" fill-opacity="1" stroke="#000000" stroke-opacity="1" stroke-width="3.2"/>
<circle clip-path="url(#clip262)" cx="1779.63" cy="195.079" r="14" fill="#ff0000" fill-rule="evenodd" fill-opacity="1" stroke="#000000" stroke-opacity="1" stroke-width="3.2"/>
<circle clip-path="url(#clip262)" cx="1624.04" cy="327.603" r="14" fill="#ff0000" fill-rule="evenodd" fill-opacity="1" stroke="#000000" stroke-opacity="1" stroke-width="3.2"/>
<circle clip-path="url(#clip262)" cx="1499.22" cy="443.807" r="14" fill="#ff0000" fill-rule="evenodd" fill-opacity="1" stroke="#000000" stroke-opacity="1" stroke-width="3.2"/>
<circle clip-path="url(#clip262)" cx="1398.77" cy="543.863" r="14" fill="#ff0000" fill-rule="evenodd" fill-opacity="1" stroke="#000000" stroke-opacity="1" stroke-width="3.2"/>
<circle clip-path="url(#clip262)" cx="1317.66" cy="628.727" r="14" fill="#ff0000" fill-rule="evenodd" fill-opacity="1" stroke="#000000" stroke-opacity="1" stroke-width="3.2"/>
<circle clip-path="url(#clip262)" cx="1252.07" cy="699.725" r="14" fill="#ff0000" fill-rule="evenodd" fill-opacity="1" stroke="#000000" stroke-opacity="1" stroke-width="3.2"/>
<circle clip-path="url(#clip262)" cx="1199.09" cy="758.238" r="14" fill="#ff0000" fill-rule="evenodd" fill-opacity="1" stroke="#000000" stroke-opacity="1" stroke-width="3.2"/>
<circle clip-path="url(#clip262)" cx="1156.56" cy="805.525" r="14" fill="#ff0000" fill-rule="evenodd" fill-opacity="1" stroke="#000000" stroke-opacity="1" stroke-width="3.2"/>
<circle clip-path="url(#clip262)" cx="1122.85" cy="842.653" r="14" fill="#ff0000" fill-rule="evenodd" fill-opacity="1" stroke="#000000" stroke-opacity="1" stroke-width="3.2"/>
<circle clip-path="url(#clip262)" cx="1096.66" cy="870.534" r="14" fill="#ff0000" fill-rule="evenodd" fill-opacity="1" stroke="#000000" stroke-opacity="1" stroke-width="3.2"/>
<circle clip-path="url(#clip262)" cx="1076.81" cy="890.06" r="14" fill="#ff0000" fill-rule="evenodd" fill-opacity="1" stroke="#000000" stroke-opacity="1" stroke-width="3.2"/>
<circle clip-path="url(#clip262)" cx="1062.17" cy="902.213" r="14" fill="#ff0000" fill-rule="evenodd" fill-opacity="1" stroke="#000000" stroke-opacity="1" stroke-width="3.2"/>
<circle clip-path="url(#clip262)" cx="1052.01" cy="908.012" r="14" fill="#ff0000" fill-rule="evenodd" fill-opacity="1" stroke="#000000" stroke-opacity="1" stroke-width="3.2"/>
<circle clip-path="url(#clip262)" cx="1047.06" cy="909.208" r="14" fill="#ff0000" fill-rule="evenodd" fill-opacity="1" stroke="#000000" stroke-opacity="1" stroke-width="3.2"/>
<circle clip-path="url(#clip262)" cx="1046.33" cy="909.242" r="14" fill="#ff0000" fill-rule="evenodd" fill-opacity="1" stroke="#000000" stroke-opacity="1" stroke-width="3.2"/>
<circle clip-path="url(#clip262)" cx="1046.32" cy="909.242" r="14" fill="#ff0000" fill-rule="evenodd" fill-opacity="1" stroke="#000000" stroke-opacity="1" stroke-width="3.2"/>
<circle clip-path="url(#clip262)" cx="1046.32" cy="909.242" r="14" fill="#ff0000" fill-rule="evenodd" fill-opacity="1" stroke="#000000" stroke-opacity="1" stroke-width="3.2"/>
<polyline clip-path="url(#clip262)" style="stroke:#1e90ff; stroke-linecap:butt; stroke-linejoin:round; stroke-width:4; stroke-opacity:1; fill:none" points="
  1109.09,1067.49 1108.3,1068.57 1106.85,1071.01 1104.97,1074.53 1104.79,1074.9 1103.41,1078.04 1102.01,1081.56 1101.27,1083.56 1100.75,1085.08 1099.62,1088.6 
  1098.56,1092.12 1097.75,1094.97 1097.57,1095.63 1096.66,1099.15 1095.79,1102.67 1094.96,1106.19 1094.23,1109.42 1094.17,1109.71 1093.41,1113.22 1092.68,1116.74 
  1091.97,1120.26 1091.27,1123.78 1090.71,1126.66 1090.59,1127.3 1089.92,1130.81 1089.25,1134.33 1088.59,1137.85 1087.93,1141.37 1087.27,1144.89 1087.19,1145.3 
  1086.6,1148.4 1085.92,1151.92 1085.23,1155.44 1084.53,1158.96 1083.81,1162.48 1083.68,1163.1 1083.06,1166 1082.29,1169.51 1081.49,1173.03 1080.66,1176.55 
  1080.16,1178.63 1079.8,1180.07 1078.89,1183.59 1077.95,1187.1 1076.96,1190.62 1076.64,1191.73 1075.91,1194.14 1074.81,1197.66 1073.66,1201.18 1073.12,1202.74 
  1072.43,1204.69 1071.12,1208.21 1069.75,1211.73 1069.6,1212.1 1068.27,1215.25 1066.71,1218.77 1066.09,1220.13 1065.04,1222.28 1063.25,1225.8 1062.57,1227.1 
  1061.32,1229.32 1059.27,1232.84 1059.05,1233.2 1057.01,1236.36 1055.53,1238.55 1054.58,1239.88 1052.01,1243.28 1051.92,1243.39 1048.97,1246.91 1048.5,1247.46 
  1045.69,1250.43 1044.98,1251.16 1041.99,1253.95 1041.46,1254.43 1037.94,1257.31 1037.73,1257.47 1034.42,1259.86 1032.67,1260.98 1030.91,1262.1 1027.39,1264.06 
  1026.48,1264.5 1023.87,1265.78 1020.35,1267.27 1018.3,1268.02 1016.83,1268.56 1013.31,1269.69 1009.8,1270.65 1006.28,1271.47 1005.94,1271.54 1002.76,1272.19 
  999.243,1272.79 995.725,1273.3 992.206,1273.73 988.688,1274.09 985.17,1274.38 981.652,1274.62 978.134,1274.82 974.616,1274.98 972.623,1275.06 971.098,1275.11 
  967.58,1275.22 964.062,1275.3 960.544,1275.36 957.026,1275.4 953.508,1275.44 949.989,1275.46 946.471,1275.48 942.953,1275.49 939.435,1275.49 935.917,1275.5 
  932.399,1275.5 928.881,1275.5 925.363,1275.5 921.845,1275.5 918.327,1275.5 914.809,1275.5 911.291,1275.5 907.772,1275.5 904.254,1275.5 900.736,1275.49 
  897.218,1275.49 893.7,1275.48 890.182,1275.47 886.664,1275.45 883.146,1275.43 879.628,1275.4 876.11,1275.36 872.592,1275.32 869.073,1275.27 865.555,1275.21 
  862.037,1275.15 858.519,1275.08 857.642,1275.06 855.001,1275 851.483,1274.92 847.965,1274.83 844.447,1274.75 840.929,1274.67 837.411,1274.61 833.893,1274.55 
  830.375,1274.53 826.856,1274.55 823.338,1274.62 819.82,1274.77 816.302,1275.03 816.046,1275.06 812.784,1275.47 809.266,1276.16 805.748,1277.2 802.612,1278.57 
  802.23,1278.79 798.712,1281.69 798.367,1282.09 796.456,1285.61 795.692,1289.13 795.768,1292.65 796.49,1296.16 797.729,1299.68 798.712,1301.67 799.466,1303.2 
  801.694,1306.72 802.23,1307.4 804.443,1310.24 805.748,1311.64 807.704,1313.75 809.266,1315.18 811.535,1317.27 812.784,1318.25 815.989,1320.79 816.302,1321 
  819.82,1323.36 821.217,1324.31 823.338,1325.53 826.856,1327.59 827.27,1327.83 830.375,1329.35 833.893,1331.1 834.388,1331.35 837.411,1332.61 840.929,1334.07 
  842.84,1334.86 844.447,1335.43 847.965,1336.65 851.483,1337.85 853.062,1338.38 855.001,1338.94 858.519,1339.91 862.037,1340.87 865.555,1341.8 865.967,1341.9 
  869.073,1342.57 872.592,1343.29 876.11,1343.98 879.628,1344.63 883.146,1345.25 884.193,1345.42 886.664,1345.76 890.182,1346.2 893.7,1346.6 897.218,1346.96 
  900.736,1347.28 904.254,1347.54 907.772,1347.76 911.291,1347.93 914.809,1348.04 918.327,1348.11 921.845,1348.12 925.363,1348.08 928.881,1347.99 932.399,1347.85 
  935.917,1347.66 939.435,1347.42 942.953,1347.13 946.471,1346.79 949.989,1346.42 953.508,1346 957.026,1345.54 957.913,1345.42 960.544,1344.99 964.062,1344.37 
  967.58,1343.72 971.098,1343.05 974.616,1342.36 976.876,1341.9 978.134,1341.6 981.652,1340.74 985.17,1339.88 988.688,1339.01 991.253,1338.38 992.206,1338.11 
  995.725,1337.09 999.243,1336.1 1002.76,1335.14 1003.76,1334.86 1006.28,1334.07 1009.8,1332.99 1013.31,1331.97 1015.55,1331.35 1016.83,1330.93 1020.35,1329.83 
  1023.87,1328.81 1027.39,1327.86 1027.52,1327.83 1030.91,1326.82 1034.42,1325.86 1037.94,1324.98 1040.91,1324.31 1041.46,1324.17 1044.98,1323.32 1048.5,1322.55 
  1052.01,1321.87 1055.53,1321.27 1058.63,1320.79 1059.05,1320.72 1062.57,1320.16 1066.09,1319.66 1069.6,1319.23 1073.12,1318.84 1076.64,1318.49 1080.16,1318.18 
  1083.68,1317.9 1087.19,1317.63 1090.71,1317.39 1092.42,1317.27 1094.23,1317.14 1097.75,1316.88 1101.27,1316.63 1104.79,1316.37 1108.3,1316.11 1111.82,1315.83 
  1115.34,1315.54 1118.86,1315.22 1122.38,1314.88 1125.89,1314.51 1129.41,1314.1 1132.14,1313.75 1132.93,1313.65 1136.45,1313.11 1139.97,1312.53 1143.48,1311.89 
  1147,1311.2 1150.52,1310.44 1151.37,1310.24 1154.04,1309.56 1157.56,1308.59 1161.07,1307.54 1163.58,1306.72 1164.59,1306.37 1168.11,1305.04 1171.63,1303.6 
  1172.52,1303.2 1175.15,1301.96 1178.67,1300.16 1179.52,1299.68 1182.18,1298.11 1185.22,1296.16 1185.7,1295.84 1189.22,1293.24 1189.95,1292.65 1192.74,1290.26 
  1193.95,1289.13 1196.26,1286.84 1197.38,1285.61 1199.77,1282.83 1200.35,1282.09 1202.91,1278.57 1203.29,1278 1205.08,1275.06 1206.81,1271.97 1207.03,1271.54 
  1208.63,1268.02 1210.08,1264.5 1210.33,1263.83 1211.26,1260.98 1212.27,1257.47 1213.13,1253.95 1213.85,1250.45 1213.85,1250.43 1214.37,1246.91 1214.77,1243.39 
  1215.05,1239.88 1215.22,1236.36 1215.29,1232.84 1215.26,1229.32 1215.13,1225.8 1214.91,1222.28 1214.62,1218.77 1214.25,1215.25 1213.85,1212 1213.81,1211.73 
  1213.25,1208.21 1212.63,1204.69 1211.95,1201.18 1211.23,1197.66 1210.46,1194.14 1210.33,1193.56 1209.58,1190.62 1208.64,1187.1 1207.68,1183.59 1206.81,1180.47 
  1206.69,1180.07 1205.56,1176.55 1204.43,1173.03 1203.29,1169.53 1203.29,1169.51 1202,1166 1200.71,1162.48 1199.77,1159.89 1199.4,1158.96 1197.97,1155.44 
  1196.57,1151.92 1196.26,1151.12 1195.05,1148.4 1193.53,1144.89 1192.74,1143.05 1191.94,1141.37 1190.29,1137.85 1189.22,1135.51 1188.62,1134.33 1186.86,1130.81 
  1185.7,1128.45 1185.08,1127.3 1183.21,1123.78 1182.18,1121.79 1181.31,1120.26 1179.34,1116.74 1178.67,1115.49 1177.29,1113.22 1175.25,1109.71 1175.15,1109.53 
  1173.02,1106.19 1171.63,1103.89 1170.79,1102.67 1168.49,1099.15 1168.11,1098.55 1166.03,1095.63 1164.59,1093.5 1163.53,1092.12 1161.07,1088.73 1160.96,1088.6 
  1158.17,1085.08 1157.56,1084.26 1155.24,1081.56 1154.04,1080.08 1152.15,1078.04 1150.52,1076.19 1148.83,1074.53 1147,1072.61 1145.2,1071.01 1143.48,1069.37 
  1141.14,1067.49 1139.97,1066.48 1136.45,1063.98 1136.43,1063.97 1132.93,1061.94 1129.55,1060.45 1129.41,1060.39 1125.89,1059.43 1122.38,1059.16 1118.86,1059.73 
  1117.16,1060.45 1115.34,1061.32 1112.04,1063.97 1111.82,1064.16 1109.09,1067.49 
  "/>
<polyline clip-path="url(#clip262)" style="stroke:#1e90ff; stroke-linecap:butt; stroke-linejoin:round; stroke-width:4; stroke-opacity:1; fill:none" points="
  873.622,856.404 872.592,856.613 869.073,857.359 865.555,858.124 862.037,858.904 858.519,859.694 857.528,859.922 855.001,860.598 851.483,861.541 847.965,862.474 
  844.447,863.393 844.267,863.44 840.929,864.458 837.411,865.498 833.893,866.5 832.244,866.958 830.375,867.561 826.856,868.654 823.338,869.684 820.478,870.476 
  819.82,870.687 816.302,871.768 812.784,872.765 809.266,873.683 808.003,873.994 805.748,874.628 802.23,875.538 798.712,876.359 795.194,877.099 793.043,877.512 
  791.676,877.808 788.158,878.507 784.639,879.126 781.121,879.674 777.603,880.16 774.085,880.591 770.567,880.976 770.029,881.03 767.049,881.363 763.531,881.716 
  760.013,882.033 756.495,882.323 752.977,882.592 749.459,882.845 745.94,883.089 742.422,883.328 738.904,883.568 735.386,883.814 731.868,884.07 728.35,884.341 
  725.857,884.548 724.832,884.639 721.314,884.986 717.796,885.36 714.278,885.768 710.76,886.214 707.242,886.7 703.723,887.233 700.205,887.815 698.848,888.067 
  696.687,888.488 693.169,889.247 689.651,890.071 686.133,890.966 683.917,891.585 682.615,891.968 679.097,893.111 675.579,894.343 673.593,895.103 672.061,895.72 
  668.543,897.273 665.712,898.621 665.025,898.966 661.506,900.907 659.445,902.139 657.988,903.058 654.47,905.471 654.223,905.657 650.952,908.263 649.901,909.175 
  647.434,911.449 646.2,912.693 643.916,915.147 643.014,916.211 640.398,919.512 640.241,919.729 637.904,923.247 636.88,924.916 635.854,926.766 634.072,930.284 
  633.362,931.834 632.55,933.802 631.257,937.32 630.115,940.838 629.844,941.804 629.202,944.356 628.455,947.874 627.84,951.392 627.354,954.91 626.994,958.428 
  626.754,961.946 626.629,965.464 626.612,968.983 626.698,972.501 626.879,976.019 627.15,979.537 627.503,983.055 627.931,986.573 628.427,990.091 628.985,993.609 
  629.598,997.127 629.844,998.423 630.311,1000.65 631.102,1004.16 631.934,1007.68 632.799,1011.2 633.362,1013.4 633.736,1014.72 634.768,1018.24 635.819,1021.75 
  636.88,1025.26 636.882,1025.27 638.093,1028.79 639.304,1032.31 640.398,1035.48 640.529,1035.83 641.889,1039.34 643.234,1042.86 643.916,1044.65 644.649,1046.38 
  646.129,1049.9 647.434,1053.06 647.598,1053.42 649.209,1056.93 650.775,1060.45 650.952,1060.85 652.486,1063.97 654.163,1067.49 654.47,1068.14 655.972,1071.01 
  657.752,1074.53 657.988,1075 659.679,1078.04 661.506,1081.47 661.558,1081.56 663.618,1085.08 665.025,1087.59 665.657,1088.6 667.797,1092.12 668.543,1093.39 
  670.023,1095.63 672.061,1098.88 672.252,1099.15 674.663,1102.67 675.579,1104.07 677.142,1106.19 679.097,1108.98 679.675,1109.71 682.341,1113.22 682.615,1113.6 
  685.207,1116.74 686.133,1117.93 688.213,1120.26 689.651,1121.97 691.41,1123.78 693.169,1125.7 694.868,1127.3 696.687,1129.12 698.692,1130.81 700.205,1132.19 
  703.045,1134.33 703.723,1134.88 707.242,1137.16 708.651,1137.85 710.76,1138.97 714.278,1140.23 717.796,1140.86 721.314,1140.73 724.832,1139.68 727.831,1137.85 
  728.35,1137.5 731.494,1134.33 731.868,1133.91 734.015,1130.81 735.386,1128.59 736.061,1127.3 737.754,1123.78 738.904,1121.15 739.253,1120.26 740.557,1116.74 
  741.76,1113.22 742.422,1111.16 742.859,1109.71 743.867,1106.19 744.817,1102.67 745.717,1099.15 745.94,1098.25 746.561,1095.63 747.366,1092.12 748.14,1088.6 
  748.887,1085.08 749.459,1082.31 749.61,1081.56 750.313,1078.04 751.001,1074.53 751.676,1071.01 752.343,1067.49 752.977,1064.12 753.004,1063.97 753.667,1060.45 
  754.33,1056.93 754.997,1053.42 755.669,1049.9 756.349,1046.38 756.495,1045.64 757.049,1042.86 757.766,1039.34 758.5,1035.83 759.254,1032.31 760.013,1028.87 
  760.031,1028.79 760.851,1025.27 761.7,1021.75 762.58,1018.24 763.495,1014.72 763.531,1014.58 764.472,1011.2 765.492,1007.68 766.557,1004.16 767.049,1002.6 
  767.688,1000.65 768.887,997.127 770.142,993.609 770.567,992.465 771.487,990.091 772.913,986.573 774.085,983.805 774.419,983.055 776.046,979.537 777.603,976.326 
  777.761,976.019 779.629,972.501 781.121,969.815 781.614,968.983 783.772,965.464 784.639,964.103 786.113,961.946 788.158,959.071 788.651,958.428 791.444,954.91 
  791.676,954.626 794.555,951.392 795.194,950.694 798.035,947.874 798.712,947.218 801.988,944.356 802.23,944.149 805.748,941.436 806.618,940.838 809.266,939.044 
  812.166,937.32 812.784,936.955 816.302,935.114 819.201,933.802 819.82,933.522 823.338,932.12 826.856,930.921 829.016,930.284 830.375,929.881 833.893,928.979 
  837.411,928.212 840.929,927.563 844.447,927.015 846.332,926.766 847.965,926.547 851.483,926.15 855.001,925.82 858.519,925.548 862.037,925.326 865.555,925.145 
  869.073,925 872.592,924.885 876.11,924.795 879.628,924.725 883.146,924.673 886.664,924.634 890.182,924.607 893.7,924.587 897.218,924.575 900.736,924.567 
  904.254,924.562 907.772,924.56 911.291,924.559 914.809,924.559 918.327,924.559 921.845,924.559 925.363,924.559 928.881,924.559 932.399,924.559 935.917,924.561 
  939.435,924.563 942.953,924.568 946.471,924.575 949.989,924.585 953.508,924.599 957.026,924.619 960.544,924.643 964.062,924.674 967.58,924.712 971.098,924.757 
  974.616,924.81 978.134,924.87 981.652,924.938 985.17,925.012 988.688,925.091 992.206,925.174 995.725,925.258 999.243,925.34 1002.76,925.414 1006.28,925.475 
  1009.8,925.514 1013.31,925.52 1016.83,925.476 1020.35,925.364 1023.87,925.156 1027.39,924.812 1030.91,924.278 1034.42,923.474 1035.14,923.247 1037.94,922.146 
  1041.46,920.055 1041.86,919.729 1044.73,916.211 1044.98,915.662 1045.97,912.693 1046.26,909.175 1045.87,905.657 1044.98,902.341 1044.92,902.139 1043.38,898.621 
  1041.46,895.146 1041.44,895.103 1038.92,891.585 1037.94,890.439 1035.92,888.067 1034.42,886.582 1032.39,884.548 1030.91,883.298 1028.25,881.03 1027.39,880.403 
  1023.87,877.831 1023.43,877.512 1020.35,875.602 1017.8,873.994 1016.83,873.472 1013.31,871.595 1011.23,870.476 1009.8,869.818 1006.28,868.221 1003.51,866.958 
  1002.76,866.667 999.243,865.329 995.725,863.991 994.244,863.44 992.206,862.79 988.688,861.696 985.17,860.618 982.84,859.922 981.652,859.618 978.134,858.756 
  974.616,857.92 971.098,857.114 967.857,856.404 967.58,856.352 964.062,855.734 960.544,855.151 957.026,854.607 953.508,854.103 949.989,853.643 946.471,853.229 
  943.179,852.886 942.953,852.866 939.435,852.598 935.917,852.375 932.399,852.197 928.881,852.066 925.363,851.982 921.845,851.946 918.327,851.958 914.809,852.018 
  911.291,852.126 907.772,852.28 904.254,852.48 900.736,852.725 898.781,852.886 897.218,853.036 893.7,853.424 890.182,853.857 886.664,854.332 883.146,854.845 
  879.628,855.394 876.11,855.973 873.622,856.404 
  "/>
<path clip-path="url(#clip260)" d="
M1241.9 1404.17 L1901.69 1404.17 L1901.69 1248.65 L1241.9 1248.65  Z
  " fill="#ffffff" fill-rule="evenodd" fill-opacity="1"/>
<polyline clip-path="url(#clip260)" style="stroke:#000000; stroke-linecap:butt; stroke-linejoin:round; stroke-width:4; stroke-opacity:1; fill:none" points="
  1241.9,1404.17 1901.69,1404.17 1901.69,1248.65 1241.9,1248.65 1241.9,1404.17 
  "/>
<circle clip-path="url(#clip260)" cx="1337.98" cy="1300.49" r="23" fill="#ff0000" fill-rule="evenodd" fill-opacity="1" stroke="#000000" stroke-opacity="1" stroke-width="5.12"/>
<path clip-path="url(#clip260)" d="M1434.05 1283.21 L1440.35 1283.21 L1455.67 1312.12 L1455.67 1283.21 L1460.21 1283.21 L1460.21 1317.77 L1453.91 1317.77 L1438.59 1288.86 L1438.59 1317.77 L1434.05 1317.77 L1434.05 1283.21 Z" fill="#000000" fill-rule="evenodd" fill-opacity="1" /><path clip-path="url(#clip260)" d="M1491.51 1303.74 L1491.51 1305.83 L1471.92 1305.83 Q1472.2 1310.22 1474.56 1312.54 Q1476.95 1314.83 1481.18 1314.83 Q1483.64 1314.83 1485.93 1314.23 Q1488.24 1313.63 1490.51 1312.42 L1490.51 1316.45 Q1488.22 1317.42 1485.81 1317.93 Q1483.4 1318.44 1480.93 1318.44 Q1474.72 1318.44 1471.09 1314.83 Q1467.48 1311.22 1467.48 1305.06 Q1467.48 1298.7 1470.9 1294.97 Q1474.35 1291.22 1480.19 1291.22 Q1485.42 1291.22 1488.45 1294.6 Q1491.51 1297.96 1491.51 1303.74 M1487.25 1302.49 Q1487.2 1299 1485.28 1296.91 Q1483.38 1294.83 1480.23 1294.83 Q1476.67 1294.83 1474.52 1296.84 Q1472.39 1298.86 1472.06 1302.52 L1487.25 1302.49 Z" fill="#000000" fill-rule="evenodd" fill-opacity="1" /><path clip-path="url(#clip260)" d="M1496.02 1291.84 L1500.28 1291.84 L1505.6 1312.08 L1510.9 1291.84 L1515.93 1291.84 L1521.25 1312.08 L1526.55 1291.84 L1530.81 1291.84 L1524.03 1317.77 L1519.01 1317.77 L1513.43 1296.52 L1507.83 1317.77 L1502.8 1317.77 L1496.02 1291.84 Z" fill="#000000" fill-rule="evenodd" fill-opacity="1" /><path clip-path="url(#clip260)" d="M1541.48 1284.48 L1541.48 1291.84 L1550.26 1291.84 L1550.26 1295.15 L1541.48 1295.15 L1541.48 1309.23 Q1541.48 1312.4 1542.34 1313.3 Q1543.22 1314.2 1545.88 1314.2 L1550.26 1314.2 L1550.26 1317.77 L1545.88 1317.77 Q1540.95 1317.77 1539.07 1315.94 Q1537.2 1314.09 1537.2 1309.23 L1537.2 1295.15 L1534.08 1295.15 L1534.08 1291.84 L1537.2 1291.84 L1537.2 1284.48 L1541.48 1284.48 Z" fill="#000000" fill-rule="evenodd" fill-opacity="1" /><path clip-path="url(#clip260)" d="M1565.9 1294.83 Q1562.48 1294.83 1560.49 1297.52 Q1558.5 1300.18 1558.5 1304.83 Q1558.5 1309.48 1560.46 1312.17 Q1562.45 1314.83 1565.9 1314.83 Q1569.31 1314.83 1571.3 1312.14 Q1573.29 1309.46 1573.29 1304.83 Q1573.29 1300.22 1571.3 1297.54 Q1569.31 1294.83 1565.9 1294.83 M1565.9 1291.22 Q1571.46 1291.22 1574.63 1294.83 Q1577.8 1298.44 1577.8 1304.83 Q1577.8 1311.2 1574.63 1314.83 Q1571.46 1318.44 1565.9 1318.44 Q1560.32 1318.44 1557.15 1314.83 Q1554.01 1311.2 1554.01 1304.83 Q1554.01 1298.44 1557.15 1294.83 Q1560.32 1291.22 1565.9 1291.22 Z" fill="#000000" fill-rule="evenodd" fill-opacity="1" /><path clip-path="url(#clip260)" d="M1606.41 1302.12 L1606.41 1317.77 L1602.15 1317.77 L1602.15 1302.26 Q1602.15 1298.58 1600.72 1296.75 Q1599.28 1294.92 1596.41 1294.92 Q1592.96 1294.92 1590.97 1297.12 Q1588.98 1299.32 1588.98 1303.12 L1588.98 1317.77 L1584.7 1317.77 L1584.7 1291.84 L1588.98 1291.84 L1588.98 1295.87 Q1590.51 1293.53 1592.57 1292.38 Q1594.65 1291.22 1597.36 1291.22 Q1601.83 1291.22 1604.12 1294 Q1606.41 1296.75 1606.41 1302.12 Z" fill="#000000" fill-rule="evenodd" fill-opacity="1" /><path clip-path="url(#clip260)" d="M1641.71 1287.82 L1635.37 1305.02 L1648.08 1305.02 L1641.71 1287.82 M1639.07 1283.21 L1644.38 1283.21 L1657.55 1317.77 L1652.69 1317.77 L1649.54 1308.9 L1633.96 1308.9 L1630.81 1317.77 L1625.88 1317.77 L1639.07 1283.21 Z" fill="#000000" fill-rule="evenodd" fill-opacity="1" /><path clip-path="url(#clip260)" d="M1662.41 1281.75 L1666.67 1281.75 L1666.67 1317.77 L1662.41 1317.77 L1662.41 1281.75 Z" fill="#000000" fill-rule="evenodd" fill-opacity="1" /><path clip-path="url(#clip260)" d="M1692.64 1304.51 Q1692.64 1299.88 1690.72 1297.33 Q1688.82 1294.78 1685.37 1294.78 Q1681.94 1294.78 1680.02 1297.33 Q1678.13 1299.88 1678.13 1304.51 Q1678.13 1309.11 1680.02 1311.66 Q1681.94 1314.2 1685.37 1314.2 Q1688.82 1314.2 1690.72 1311.66 Q1692.64 1309.11 1692.64 1304.51 M1696.9 1314.55 Q1696.9 1321.17 1693.96 1324.39 Q1691.02 1327.63 1684.95 1327.63 Q1682.71 1327.63 1680.72 1327.28 Q1678.73 1326.96 1676.85 1326.27 L1676.85 1322.12 Q1678.73 1323.14 1680.56 1323.63 Q1682.38 1324.11 1684.28 1324.11 Q1688.47 1324.11 1690.56 1321.91 Q1692.64 1319.74 1692.64 1315.32 L1692.64 1313.21 Q1691.32 1315.5 1689.26 1316.64 Q1687.2 1317.77 1684.33 1317.77 Q1679.56 1317.77 1676.64 1314.14 Q1673.73 1310.5 1673.73 1304.51 Q1673.73 1298.49 1676.64 1294.85 Q1679.56 1291.22 1684.33 1291.22 Q1687.2 1291.22 1689.26 1292.35 Q1691.32 1293.49 1692.64 1295.78 L1692.64 1291.84 L1696.9 1291.84 L1696.9 1314.55 Z" fill="#000000" fill-rule="evenodd" fill-opacity="1" /><path clip-path="url(#clip260)" d="M1715.72 1294.83 Q1712.29 1294.83 1710.3 1297.52 Q1708.31 1300.18 1708.31 1304.83 Q1708.31 1309.48 1710.28 1312.17 Q1712.27 1314.83 1715.72 1314.83 Q1719.12 1314.83 1721.11 1312.14 Q1723.1 1309.46 1723.1 1304.83 Q1723.1 1300.22 1721.11 1297.54 Q1719.12 1294.83 1715.72 1294.83 M1715.72 1291.22 Q1721.27 1291.22 1724.44 1294.83 Q1727.62 1298.44 1727.62 1304.83 Q1727.62 1311.2 1724.44 1314.83 Q1721.27 1318.44 1715.72 1318.44 Q1710.14 1318.44 1706.97 1314.83 Q1703.82 1311.2 1703.82 1304.83 Q1703.82 1298.44 1706.97 1294.83 Q1710.14 1291.22 1715.72 1291.22 Z" fill="#000000" fill-rule="evenodd" fill-opacity="1" /><path clip-path="url(#clip260)" d="M1749.7 1295.83 Q1748.98 1295.41 1748.12 1295.22 Q1747.29 1295.02 1746.27 1295.02 Q1742.66 1295.02 1740.72 1297.38 Q1738.8 1299.71 1738.8 1304.11 L1738.8 1317.77 L1734.51 1317.77 L1734.51 1291.84 L1738.8 1291.84 L1738.8 1295.87 Q1740.14 1293.51 1742.29 1292.38 Q1744.44 1291.22 1747.52 1291.22 Q1747.96 1291.22 1748.5 1291.29 Q1749.03 1291.33 1749.68 1291.45 L1749.7 1295.83 Z" fill="#000000" fill-rule="evenodd" fill-opacity="1" /><path clip-path="url(#clip260)" d="M1754.17 1291.84 L1758.43 1291.84 L1758.43 1317.77 L1754.17 1317.77 L1754.17 1291.84 M1754.17 1281.75 L1758.43 1281.75 L1758.43 1287.14 L1754.17 1287.14 L1754.17 1281.75 Z" fill="#000000" fill-rule="evenodd" fill-opacity="1" /><path clip-path="url(#clip260)" d="M1771.55 1284.48 L1771.55 1291.84 L1780.32 1291.84 L1780.32 1295.15 L1771.55 1295.15 L1771.55 1309.23 Q1771.55 1312.4 1772.41 1313.3 Q1773.29 1314.2 1775.95 1314.2 L1780.32 1314.2 L1780.32 1317.77 L1775.95 1317.77 Q1771.02 1317.77 1769.14 1315.94 Q1767.27 1314.09 1767.27 1309.23 L1767.27 1295.15 L1764.14 1295.15 L1764.14 1291.84 L1767.27 1291.84 L1767.27 1284.48 L1771.55 1284.48 Z" fill="#000000" fill-rule="evenodd" fill-opacity="1" /><path clip-path="url(#clip260)" d="M1807.48 1302.12 L1807.48 1317.77 L1803.22 1317.77 L1803.22 1302.26 Q1803.22 1298.58 1801.78 1296.75 Q1800.35 1294.92 1797.48 1294.92 Q1794.03 1294.92 1792.04 1297.12 Q1790.05 1299.32 1790.05 1303.12 L1790.05 1317.77 L1785.76 1317.77 L1785.76 1281.75 L1790.05 1281.75 L1790.05 1295.87 Q1791.57 1293.53 1793.63 1292.38 Q1795.72 1291.22 1798.43 1291.22 Q1802.89 1291.22 1805.18 1294 Q1807.48 1296.75 1807.48 1302.12 Z" fill="#000000" fill-rule="evenodd" fill-opacity="1" /><path clip-path="url(#clip260)" d="M1836.16 1296.82 Q1837.75 1293.95 1839.98 1292.58 Q1842.2 1291.22 1845.21 1291.22 Q1849.26 1291.22 1851.46 1294.07 Q1853.66 1296.89 1853.66 1302.12 L1853.66 1317.77 L1849.37 1317.77 L1849.37 1302.26 Q1849.37 1298.53 1848.05 1296.73 Q1846.74 1294.92 1844.03 1294.92 Q1840.72 1294.92 1838.8 1297.12 Q1836.87 1299.32 1836.87 1303.12 L1836.87 1317.77 L1832.59 1317.77 L1832.59 1302.26 Q1832.59 1298.51 1831.27 1296.73 Q1829.95 1294.92 1827.2 1294.92 Q1823.93 1294.92 1822.01 1297.14 Q1820.09 1299.34 1820.09 1303.12 L1820.09 1317.77 L1815.81 1317.77 L1815.81 1291.84 L1820.09 1291.84 L1820.09 1295.87 Q1821.55 1293.49 1823.59 1292.35 Q1825.62 1291.22 1828.43 1291.22 Q1831.25 1291.22 1833.22 1292.65 Q1835.21 1294.09 1836.16 1296.82 Z" fill="#000000" fill-rule="evenodd" fill-opacity="1" /><polyline clip-path="url(#clip260)" style="stroke:#1e90ff; stroke-linecap:butt; stroke-linejoin:round; stroke-width:4; stroke-opacity:1; fill:none" points="
  1265.92,1352.33 1410.03,1352.33 
  "/>
<path clip-path="url(#clip260)" d="M1456.3 1336.18 L1456.3 1340.74 Q1453.64 1339.47 1451.27 1338.85 Q1448.91 1338.22 1446.71 1338.22 Q1442.89 1338.22 1440.81 1339.7 Q1438.75 1341.18 1438.75 1343.92 Q1438.75 1346.21 1440.12 1347.39 Q1441.51 1348.55 1445.35 1349.26 L1448.17 1349.84 Q1453.4 1350.84 1455.88 1353.36 Q1458.38 1355.86 1458.38 1360.07 Q1458.38 1365.1 1455 1367.69 Q1451.64 1370.28 1445.14 1370.28 Q1442.69 1370.28 1439.91 1369.73 Q1437.15 1369.17 1434.19 1368.08 L1434.19 1363.27 Q1437.04 1364.86 1439.77 1365.67 Q1442.5 1366.48 1445.14 1366.48 Q1449.14 1366.48 1451.32 1364.91 Q1453.5 1363.34 1453.5 1360.42 Q1453.5 1357.87 1451.92 1356.44 Q1450.37 1355 1446.81 1354.29 L1443.96 1353.73 Q1438.73 1352.69 1436.39 1350.47 Q1434.05 1348.24 1434.05 1344.29 Q1434.05 1339.7 1437.27 1337.06 Q1440.51 1334.42 1446.18 1334.42 Q1448.61 1334.42 1451.14 1334.86 Q1453.66 1335.3 1456.3 1336.18 Z" fill="#000000" fill-rule="evenodd" fill-opacity="1" /><path clip-path="url(#clip260)" d="M1465.05 1359.38 L1465.05 1343.68 L1469.31 1343.68 L1469.31 1359.22 Q1469.31 1362.9 1470.74 1364.75 Q1472.18 1366.58 1475.05 1366.58 Q1478.5 1366.58 1480.49 1364.38 Q1482.5 1362.18 1482.5 1358.38 L1482.5 1343.68 L1486.76 1343.68 L1486.76 1369.61 L1482.5 1369.61 L1482.5 1365.63 Q1480.95 1367.99 1478.89 1369.15 Q1476.85 1370.28 1474.14 1370.28 Q1469.68 1370.28 1467.36 1367.5 Q1465.05 1364.73 1465.05 1359.38 M1475.77 1343.06 L1475.77 1343.06 Z" fill="#000000" fill-rule="evenodd" fill-opacity="1" /><path clip-path="url(#clip260)" d="M1510.56 1347.67 Q1509.84 1347.25 1508.98 1347.06 Q1508.15 1346.86 1507.13 1346.86 Q1503.52 1346.86 1501.58 1349.22 Q1499.65 1351.55 1499.65 1355.95 L1499.65 1369.61 L1495.37 1369.61 L1495.37 1343.68 L1499.65 1343.68 L1499.65 1347.71 Q1501 1345.35 1503.15 1344.22 Q1505.3 1343.06 1508.38 1343.06 Q1508.82 1343.06 1509.35 1343.13 Q1509.89 1343.17 1510.53 1343.29 L1510.56 1347.67 Z" fill="#000000" fill-rule="evenodd" fill-opacity="1" /><path clip-path="url(#clip260)" d="M1528.15 1333.59 L1528.15 1337.13 L1524.08 1337.13 Q1521.78 1337.13 1520.88 1338.06 Q1520 1338.98 1520 1341.39 L1520 1343.68 L1527.01 1343.68 L1527.01 1346.99 L1520 1346.99 L1520 1369.61 L1515.72 1369.61 L1515.72 1346.99 L1511.64 1346.99 L1511.64 1343.68 L1515.72 1343.68 L1515.72 1341.88 Q1515.72 1337.55 1517.73 1335.58 Q1519.75 1333.59 1524.12 1333.59 L1528.15 1333.59 Z" fill="#000000" fill-rule="evenodd" fill-opacity="1" /><path clip-path="url(#clip260)" d="M1543.5 1356.58 Q1538.33 1356.58 1536.34 1357.76 Q1534.35 1358.94 1534.35 1361.79 Q1534.35 1364.05 1535.83 1365.4 Q1537.34 1366.72 1539.91 1366.72 Q1543.45 1366.72 1545.58 1364.22 Q1547.73 1361.69 1547.73 1357.53 L1547.73 1356.58 L1543.5 1356.58 M1551.99 1354.82 L1551.99 1369.61 L1547.73 1369.61 L1547.73 1365.67 Q1546.27 1368.04 1544.1 1369.17 Q1541.92 1370.28 1538.77 1370.28 Q1534.79 1370.28 1532.43 1368.06 Q1530.09 1365.81 1530.09 1362.06 Q1530.09 1357.69 1533.01 1355.47 Q1535.95 1353.24 1541.76 1353.24 L1547.73 1353.24 L1547.73 1352.83 Q1547.73 1349.89 1545.79 1348.29 Q1543.87 1346.67 1540.37 1346.67 Q1538.15 1346.67 1536.04 1347.2 Q1533.94 1347.73 1531.99 1348.8 L1531.99 1344.86 Q1534.33 1343.96 1536.53 1343.52 Q1538.73 1343.06 1540.81 1343.06 Q1546.44 1343.06 1549.21 1345.98 Q1551.99 1348.89 1551.99 1354.82 Z" fill="#000000" fill-rule="evenodd" fill-opacity="1" /><path clip-path="url(#clip260)" d="M1579.42 1344.68 L1579.42 1348.66 Q1577.62 1347.67 1575.79 1347.18 Q1573.98 1346.67 1572.13 1346.67 Q1567.99 1346.67 1565.7 1349.31 Q1563.4 1351.92 1563.4 1356.67 Q1563.4 1361.42 1565.7 1364.05 Q1567.99 1366.67 1572.13 1366.67 Q1573.98 1366.67 1575.79 1366.18 Q1577.62 1365.67 1579.42 1364.68 L1579.42 1368.61 Q1577.64 1369.45 1575.72 1369.86 Q1573.82 1370.28 1571.67 1370.28 Q1565.81 1370.28 1562.36 1366.6 Q1558.91 1362.92 1558.91 1356.67 Q1558.91 1350.33 1562.39 1346.69 Q1565.88 1343.06 1571.95 1343.06 Q1573.91 1343.06 1575.79 1343.48 Q1577.66 1343.87 1579.42 1344.68 Z" fill="#000000" fill-rule="evenodd" fill-opacity="1" /><path clip-path="url(#clip260)" d="M1609.01 1355.58 L1609.01 1357.67 L1589.42 1357.67 Q1589.7 1362.06 1592.06 1364.38 Q1594.45 1366.67 1598.68 1366.67 Q1601.13 1366.67 1603.43 1366.07 Q1605.74 1365.47 1608.01 1364.26 L1608.01 1368.29 Q1605.72 1369.26 1603.31 1369.77 Q1600.9 1370.28 1598.43 1370.28 Q1592.22 1370.28 1588.59 1366.67 Q1584.98 1363.06 1584.98 1356.9 Q1584.98 1350.54 1588.4 1346.81 Q1591.85 1343.06 1597.69 1343.06 Q1602.92 1343.06 1605.95 1346.44 Q1609.01 1349.8 1609.01 1355.58 M1604.75 1354.33 Q1604.7 1350.84 1602.78 1348.75 Q1600.88 1346.67 1597.73 1346.67 Q1594.17 1346.67 1592.01 1348.68 Q1589.88 1350.7 1589.56 1354.36 L1604.75 1354.33 Z" fill="#000000" fill-rule="evenodd" fill-opacity="1" /></svg>
