<?xml version="1.0" encoding="utf-8"?>
<svg xmlns="http://www.w3.org/2000/svg" xmlns:xlink="http://www.w3.org/1999/xlink" width="600" height="400" viewBox="0 0 2400 1600">
<defs>
  <clipPath id="clip220">
    <rect x="0" y="0" width="2400" height="1600"/>
  </clipPath>
</defs>
<path clip-path="url(#clip220)" d="
M0 1600 L2400 1600 L2400 0 L0 0  Z
  " fill="#ffffff" fill-rule="evenodd" fill-opacity="1"/>
<defs>
  <clipPath id="clip221">
    <rect x="480" y="0" width="1681" height="1600"/>
  </clipPath>
</defs>
<path clip-path="url(#clip220)" d="
M570.221 1450.96 L1973.94 1450.96 L1973.94 47.2441 L570.221 47.2441  Z
  " fill="#ffffff" fill-rule="evenodd" fill-opacity="1"/>
<defs>
  <clipPath id="clip222">
    <rect x="570" y="47" width="1405" height="1405"/>
  </clipPath>
</defs>
<polyline clip-path="url(#clip222)" style="stroke:#000000; stroke-linecap:butt; stroke-linejoin:round; stroke-width:2; stroke-opacity:0.1; fill:none" points="
  570.221,1450.96 570.221,47.2441 
  "/>
<polyline clip-path="url(#clip222)" style="stroke:#000000; stroke-linecap:butt; stroke-linejoin:round; stroke-width:2; stroke-opacity:0.1; fill:none" points="
  921.15,1450.96 921.15,47.2441 
  "/>
<polyline clip-path="url(#clip222)" style="stroke:#000000; stroke-linecap:butt; stroke-linejoin:round; stroke-width:2; stroke-opacity:0.1; fill:none" points="
  1272.08,1450.96 1272.08,47.2441 
  "/>
<polyline clip-path="url(#clip222)" style="stroke:#000000; stroke-linecap:butt; stroke-linejoin:round; stroke-width:2; stroke-opacity:0.1; fill:none" points="
  1623.01,1450.96 1623.01,47.2441 
  "/>
<polyline clip-path="url(#clip222)" style="stroke:#000000; stroke-linecap:butt; stroke-linejoin:round; stroke-width:2; stroke-opacity:0.1; fill:none" points="
  1973.94,1450.96 1973.94,47.2441 
  "/>
<polyline clip-path="url(#clip220)" style="stroke:#000000; stroke-linecap:butt; stroke-linejoin:round; stroke-width:4; stroke-opacity:1; fill:none" points="
  570.221,1450.96 1973.94,1450.96 
  "/>
<polyline clip-path="url(#clip220)" style="stroke:#000000; stroke-linecap:butt; stroke-linejoin:round; stroke-width:4; stroke-opacity:1; fill:none" points="
  570.221,1450.96 570.221,1432.06 
  "/>
<polyline clip-path="url(#clip220)" style="stroke:#000000; stroke-linecap:butt; stroke-linejoin:round; stroke-width:4; stroke-opacity:1; fill:none" points="
  921.15,1450.96 921.15,1432.06 
  "/>
<polyline clip-path="url(#clip220)" style="stroke:#000000; stroke-linecap:butt; stroke-linejoin:round; stroke-width:4; stroke-opacity:1; fill:none" points="
  1272.08,1450.96 1272.08,1432.06 
  "/>
<polyline clip-path="url(#clip220)" style="stroke:#000000; stroke-linecap:butt; stroke-linejoin:round; stroke-width:4; stroke-opacity:1; fill:none" points="
  1623.01,1450.96 1623.01,1432.06 
  "/>
<polyline clip-path="url(#clip220)" style="stroke:#000000; stroke-linecap:butt; stroke-linejoin:round; stroke-width:4; stroke-opacity:1; fill:none" points="
  1973.94,1450.96 1973.94,1432.06 
  "/>
<path clip-path="url(#clip220)" d="M540.164 1496.53 L569.839 1496.53 L569.839 1500.47 L540.164 1500.47 L540.164 1496.53 Z" fill="#000000" fill-rule="evenodd" fill-opacity="1" /><path clip-path="url(#clip220)" d="M583.96 1509.43 L600.279 1509.43 L600.279 1513.36 L578.335 1513.36 L578.335 1509.43 Q580.997 1506.67 585.58 1502.04 Q590.187 1497.39 591.367 1496.05 Q593.612 1493.52 594.492 1491.79 Q595.395 1490.03 595.395 1488.34 Q595.395 1485.58 593.45 1483.85 Q591.529 1482.11 588.427 1482.11 Q586.228 1482.11 583.775 1482.87 Q581.344 1483.64 578.566 1485.19 L578.566 1480.47 Q581.39 1479.33 583.844 1478.75 Q586.298 1478.18 588.335 1478.18 Q593.705 1478.18 596.899 1480.86 Q600.094 1483.55 600.094 1488.04 Q600.094 1490.17 599.284 1492.09 Q598.497 1493.99 596.39 1496.58 Q595.812 1497.25 592.71 1500.47 Q589.608 1503.66 583.96 1509.43 Z" fill="#000000" fill-rule="evenodd" fill-opacity="1" /><path clip-path="url(#clip220)" d="M890.908 1496.53 L920.583 1496.53 L920.583 1500.47 L890.908 1500.47 L890.908 1496.53 Z" fill="#000000" fill-rule="evenodd" fill-opacity="1" /><path clip-path="url(#clip220)" d="M931.486 1509.43 L939.125 1509.43 L939.125 1483.06 L930.815 1484.73 L930.815 1480.47 L939.079 1478.8 L943.754 1478.8 L943.754 1509.43 L951.393 1509.43 L951.393 1513.36 L931.486 1513.36 L931.486 1509.43 Z" fill="#000000" fill-rule="evenodd" fill-opacity="1" /><path clip-path="url(#clip220)" d="M1272.08 1481.88 Q1268.47 1481.88 1266.64 1485.44 Q1264.83 1488.99 1264.83 1496.11 Q1264.83 1503.22 1266.64 1506.79 Q1268.47 1510.33 1272.08 1510.33 Q1275.71 1510.33 1277.52 1506.79 Q1279.35 1503.22 1279.35 1496.11 Q1279.35 1488.99 1277.52 1485.44 Q1275.71 1481.88 1272.08 1481.88 M1272.08 1478.18 Q1277.89 1478.18 1280.95 1482.78 Q1284.02 1487.37 1284.02 1496.11 Q1284.02 1504.84 1280.95 1509.45 Q1277.89 1514.03 1272.08 1514.03 Q1266.27 1514.03 1263.19 1509.45 Q1260.14 1504.84 1260.14 1496.11 Q1260.14 1487.37 1263.19 1482.78 Q1266.27 1478.18 1272.08 1478.18 Z" fill="#000000" fill-rule="evenodd" fill-opacity="1" /><path clip-path="url(#clip220)" d="M1613.39 1509.43 L1621.03 1509.43 L1621.03 1483.06 L1612.72 1484.73 L1612.72 1480.47 L1620.98 1478.8 L1625.66 1478.8 L1625.66 1509.43 L1633.3 1509.43 L1633.3 1513.36 L1613.39 1513.36 L1613.39 1509.43 Z" fill="#000000" fill-rule="evenodd" fill-opacity="1" /><path clip-path="url(#clip220)" d="M1968.59 1509.43 L1984.91 1509.43 L1984.91 1513.36 L1962.97 1513.36 L1962.97 1509.43 Q1965.63 1506.67 1970.21 1502.04 Q1974.82 1497.39 1976 1496.05 Q1978.24 1493.52 1979.12 1491.79 Q1980.03 1490.03 1980.03 1488.34 Q1980.03 1485.58 1978.08 1483.85 Q1976.16 1482.11 1973.06 1482.11 Q1970.86 1482.11 1968.41 1482.87 Q1965.97 1483.64 1963.2 1485.19 L1963.2 1480.47 Q1966.02 1479.33 1968.47 1478.75 Q1970.93 1478.18 1972.97 1478.18 Q1978.34 1478.18 1981.53 1480.86 Q1984.72 1483.55 1984.72 1488.04 Q1984.72 1490.17 1983.91 1492.09 Q1983.13 1493.99 1981.02 1496.58 Q1980.44 1497.25 1977.34 1500.47 Q1974.24 1503.66 1968.59 1509.43 Z" fill="#000000" fill-rule="evenodd" fill-opacity="1" /><path clip-path="url(#clip220)" d="M1286.25 1539.92 Q1286.25 1541.72 1285.13 1542.75 Q1284 1543.75 1282.71 1543.75 Q1281.49 1543.75 1280.84 1543.04 Q1280.2 1542.33 1280.2 1541.43 Q1280.2 1540.21 1281.1 1539.14 Q1282 1538.08 1283.35 1537.85 Q1282.03 1537.02 1280.07 1537.02 Q1278.78 1537.02 1277.65 1537.69 Q1276.56 1538.37 1275.88 1539.24 Q1275.24 1540.11 1274.66 1541.37 Q1274.11 1542.59 1273.89 1543.33 Q1273.69 1544.04 1273.53 1544.81 L1271.28 1553.83 Q1270.18 1558.11 1270.18 1559.63 Q1270.18 1561.49 1271.08 1562.75 Q1271.99 1563.97 1273.79 1563.97 Q1274.5 1563.97 1275.3 1563.78 Q1276.11 1563.55 1277.14 1562.98 Q1278.2 1562.36 1279.14 1561.46 Q1280.1 1560.53 1281.04 1558.95 Q1281.97 1557.37 1282.58 1555.34 Q1282.77 1554.63 1283.42 1554.63 Q1284.22 1554.63 1284.22 1555.28 Q1284.22 1555.83 1283.77 1556.98 Q1283.35 1558.11 1282.42 1559.59 Q1281.52 1561.04 1280.33 1562.36 Q1279.14 1563.65 1277.36 1564.55 Q1275.59 1565.46 1273.66 1565.46 Q1270.89 1565.46 1269.05 1563.97 Q1267.22 1562.49 1266.54 1560.43 Q1266.38 1560.72 1266.16 1561.11 Q1265.93 1561.49 1265.25 1562.36 Q1264.61 1563.2 1263.87 1563.84 Q1263.13 1564.46 1261.97 1564.94 Q1260.84 1565.46 1259.62 1565.46 Q1258.07 1565.46 1256.69 1565 Q1255.34 1564.55 1254.37 1563.52 Q1253.4 1562.49 1253.4 1561.08 Q1253.4 1559.5 1254.47 1558.4 Q1255.56 1557.27 1257.04 1557.27 Q1257.98 1557.27 1258.72 1557.82 Q1259.49 1558.37 1259.49 1559.56 Q1259.49 1560.88 1258.59 1561.88 Q1257.69 1562.88 1256.4 1563.14 Q1257.72 1563.97 1259.68 1563.97 Q1261.81 1563.97 1263.48 1562.11 Q1265.16 1560.24 1265.96 1557.11 Q1267.96 1549.61 1268.73 1546.26 Q1269.51 1542.88 1269.51 1541.43 Q1269.51 1540.08 1269.15 1539.14 Q1268.8 1538.21 1268.19 1537.79 Q1267.61 1537.34 1267.06 1537.18 Q1266.54 1537.02 1265.96 1537.02 Q1265 1537.02 1263.9 1537.4 Q1262.84 1537.79 1261.55 1538.69 Q1260.29 1539.56 1259.1 1541.37 Q1257.91 1543.17 1257.11 1545.65 Q1256.95 1546.39 1256.24 1546.39 Q1255.46 1546.36 1255.46 1545.71 Q1255.46 1545.17 1255.88 1544.04 Q1256.33 1542.88 1257.24 1541.43 Q1258.17 1539.98 1259.36 1538.69 Q1260.58 1537.37 1262.36 1536.47 Q1264.16 1535.57 1266.09 1535.57 Q1266.96 1535.57 1267.8 1535.76 Q1268.67 1535.92 1269.7 1536.41 Q1270.76 1536.89 1271.7 1537.95 Q1272.63 1539.01 1273.21 1540.56 Q1273.6 1539.82 1274.11 1539.11 Q1274.66 1538.4 1275.5 1537.53 Q1276.37 1536.63 1277.56 1536.12 Q1278.78 1535.57 1280.13 1535.57 Q1281.45 1535.57 1282.74 1535.92 Q1284.03 1536.24 1285.13 1537.31 Q1286.25 1538.34 1286.25 1539.92 Z" fill="#000000" fill-rule="evenodd" fill-opacity="1" /><polyline clip-path="url(#clip222)" style="stroke:#000000; stroke-linecap:butt; stroke-linejoin:round; stroke-width:2; stroke-opacity:0.1; fill:none" points="
  570.221,1450.96 1973.94,1450.96 
  "/>
<polyline clip-path="url(#clip222)" style="stroke:#000000; stroke-linecap:butt; stroke-linejoin:round; stroke-width:2; stroke-opacity:0.1; fill:none" points="
  570.221,1100.03 1973.94,1100.03 
  "/>
<polyline clip-path="url(#clip222)" style="stroke:#000000; stroke-linecap:butt; stroke-linejoin:round; stroke-width:2; stroke-opacity:0.1; fill:none" points="
  570.221,749.102 1973.94,749.102 
  "/>
<polyline clip-path="url(#clip222)" style="stroke:#000000; stroke-linecap:butt; stroke-linejoin:round; stroke-width:2; stroke-opacity:0.1; fill:none" points="
  570.221,398.173 1973.94,398.173 
  "/>
<polyline clip-path="url(#clip222)" style="stroke:#000000; stroke-linecap:butt; stroke-linejoin:round; stroke-width:2; stroke-opacity:0.1; fill:none" points="
  570.221,47.2441 1973.94,47.2441 
  "/>
<polyline clip-path="url(#clip220)" style="stroke:#000000; stroke-linecap:butt; stroke-linejoin:round; stroke-width:4; stroke-opacity:1; fill:none" points="
  570.221,1450.96 570.221,47.2441 
  "/>
<polyline clip-path="url(#clip220)" style="stroke:#000000; stroke-linecap:butt; stroke-linejoin:round; stroke-width:4; stroke-opacity:1; fill:none" points="
  570.221,1450.96 582.495,1450.96 
  "/>
<polyline clip-path="url(#clip220)" style="stroke:#000000; stroke-linecap:butt; stroke-linejoin:round; stroke-width:4; stroke-opacity:1; fill:none" points="
  570.221,1100.03 582.495,1100.03 
  "/>
<polyline clip-path="url(#clip220)" style="stroke:#000000; stroke-linecap:butt; stroke-linejoin:round; stroke-width:4; stroke-opacity:1; fill:none" points="
  570.221,749.102 582.495,749.102 
  "/>
<polyline clip-path="url(#clip220)" style="stroke:#000000; stroke-linecap:butt; stroke-linejoin:round; stroke-width:4; stroke-opacity:1; fill:none" points="
  570.221,398.173 582.495,398.173 
  "/>
<polyline clip-path="url(#clip220)" style="stroke:#000000; stroke-linecap:butt; stroke-linejoin:round; stroke-width:4; stroke-opacity:1; fill:none" points="
  570.221,47.2441 582.495,47.2441 
  "/>
<path clip-path="url(#clip220)" d="M474.106 1451.41 L503.782 1451.41 L503.782 1455.35 L474.106 1455.35 L474.106 1451.41 Z" fill="#000000" fill-rule="evenodd" fill-opacity="1" /><path clip-path="url(#clip220)" d="M517.902 1464.31 L534.221 1464.31 L534.221 1468.24 L512.277 1468.24 L512.277 1464.31 Q514.939 1461.55 519.522 1456.92 Q524.129 1452.27 525.309 1450.93 Q527.555 1448.4 528.434 1446.67 Q529.337 1444.91 529.337 1443.22 Q529.337 1440.46 527.393 1438.73 Q525.471 1436.99 522.37 1436.99 Q520.171 1436.99 517.717 1437.75 Q515.286 1438.52 512.509 1440.07 L512.509 1435.35 Q515.333 1434.21 517.786 1433.63 Q520.24 1433.06 522.277 1433.06 Q527.647 1433.06 530.842 1435.74 Q534.036 1438.43 534.036 1442.92 Q534.036 1445.05 533.226 1446.97 Q532.439 1448.87 530.333 1451.46 Q529.754 1452.13 526.652 1455.35 Q523.55 1458.54 517.902 1464.31 Z" fill="#000000" fill-rule="evenodd" fill-opacity="1" /><path clip-path="url(#clip220)" d="M473.736 1100.48 L503.411 1100.48 L503.411 1104.42 L473.736 1104.42 L473.736 1100.48 Z" fill="#000000" fill-rule="evenodd" fill-opacity="1" /><path clip-path="url(#clip220)" d="M514.314 1113.38 L521.953 1113.38 L521.953 1087.01 L513.643 1088.68 L513.643 1084.42 L521.907 1082.75 L526.583 1082.75 L526.583 1113.38 L534.221 1113.38 L534.221 1117.31 L514.314 1117.31 L514.314 1113.38 Z" fill="#000000" fill-rule="evenodd" fill-opacity="1" /><path clip-path="url(#clip220)" d="M522.277 734.901 Q518.666 734.901 516.837 738.466 Q515.032 742.007 515.032 749.137 Q515.032 756.243 516.837 759.808 Q518.666 763.35 522.277 763.35 Q525.911 763.35 527.717 759.808 Q529.545 756.243 529.545 749.137 Q529.545 742.007 527.717 738.466 Q525.911 734.901 522.277 734.901 M522.277 731.197 Q528.087 731.197 531.143 735.804 Q534.221 740.387 534.221 749.137 Q534.221 757.864 531.143 762.47 Q528.087 767.053 522.277 767.053 Q516.467 767.053 513.388 762.47 Q510.333 757.864 510.333 749.137 Q510.333 740.387 513.388 735.804 Q516.467 731.197 522.277 731.197 Z" fill="#000000" fill-rule="evenodd" fill-opacity="1" /><path clip-path="url(#clip220)" d="M514.314 411.518 L521.953 411.518 L521.953 385.152 L513.643 386.819 L513.643 382.56 L521.907 380.893 L526.583 380.893 L526.583 411.518 L534.221 411.518 L534.221 415.453 L514.314 415.453 L514.314 411.518 Z" fill="#000000" fill-rule="evenodd" fill-opacity="1" /><path clip-path="url(#clip220)" d="M517.902 60.5889 L534.221 60.5889 L534.221 64.5241 L512.277 64.5241 L512.277 60.5889 Q514.939 57.8343 519.522 53.2047 Q524.129 48.552 525.309 47.2094 Q527.555 44.6862 528.434 42.9501 Q529.337 41.1909 529.337 39.5011 Q529.337 36.7465 527.393 35.0104 Q525.471 33.2743 522.37 33.2743 Q520.171 33.2743 517.717 34.0381 Q515.286 34.802 512.509 36.3529 L512.509 31.6308 Q515.333 30.4965 517.786 29.9178 Q520.24 29.3391 522.277 29.3391 Q527.647 29.3391 530.842 32.0243 Q534.036 34.7094 534.036 39.2002 Q534.036 41.3298 533.226 43.2511 Q532.439 45.1492 530.333 47.7418 Q529.754 48.4131 526.652 51.6306 Q523.55 54.8251 517.902 60.5889 Z" fill="#000000" fill-rule="evenodd" fill-opacity="1" /><path clip-path="url(#clip220)" d="M401.937 734.665 Q402.388 734.665 403.451 734.955 L428.636 741.267 Q434.24 742.652 438.169 747.161 Q442.098 751.637 442.098 756.726 Q442.098 759.785 440.455 761.75 Q438.845 763.714 436.365 763.714 Q434.175 763.714 433.113 762.555 Q432.082 761.396 432.082 760.011 Q432.082 759.56 432.211 759.077 Q432.34 758.594 432.887 758.078 Q433.435 757.563 434.369 757.563 Q435.882 757.563 437.074 758.884 Q437.621 759.528 437.75 760.14 Q437.879 760.719 437.879 761.718 Q438.781 761.331 439.393 760.623 Q440.005 759.914 440.23 759.109 Q440.488 758.304 440.552 757.789 Q440.649 757.241 440.649 756.726 Q440.649 752.603 436.494 749.447 Q435.238 748.513 433.982 747.837 Q432.758 747.128 431.245 746.613 Q429.763 746.098 428.958 745.872 Q428.153 745.615 426.317 745.164 Q429.312 748.159 429.312 751.83 Q429.312 753.376 428.894 754.761 Q428.475 756.114 427.605 757.305 Q426.704 758.497 425.126 759.206 Q423.547 759.882 421.454 759.882 Q419.232 759.882 416.204 759.012 Q413.177 758.143 407.606 756.049 Q404.482 754.922 402.968 754.922 Q402.227 754.922 401.776 755.083 Q401.293 755.244 401.132 755.566 Q400.939 755.888 400.907 756.082 Q400.874 756.243 400.874 756.565 Q400.874 758.465 402.807 760.236 Q404.739 762.008 409.055 763.231 Q409.86 763.489 410.053 763.65 Q410.246 763.811 410.246 764.294 Q410.214 765.099 409.57 765.099 Q409.312 765.099 408.314 764.809 Q407.283 764.52 405.77 763.843 Q404.224 763.135 402.839 762.169 Q401.422 761.202 400.424 759.689 Q399.425 758.143 399.425 756.371 Q399.425 753.956 401.003 752.475 Q402.549 750.961 404.836 750.961 Q405.77 750.961 406.607 751.219 Q407.412 751.444 409.57 752.281 Q418.266 755.663 422.517 755.663 Q423.547 755.663 424.417 755.502 Q425.254 755.309 426.092 754.89 Q426.897 754.471 427.38 753.634 Q427.831 752.764 427.831 751.573 Q427.831 750.059 427.122 748.642 Q426.382 747.193 425.383 746.291 Q424.385 745.357 423.547 744.81 Q422.678 744.23 422.227 744.101 L410.375 741.138 L405.093 739.818 Q402.227 739.206 401.519 738.916 Q400.842 738.529 400.488 737.853 Q400.134 737.177 400.134 736.597 Q400.134 735.792 400.617 735.244 Q401.1 734.665 401.937 734.665 Z" fill="#000000" fill-rule="evenodd" fill-opacity="1" /><circle clip-path="url(#clip222)" cx="1973.94" cy="47.2441" r="14" fill="#ff0000" fill-rule="evenodd" fill-opacity="1" stroke="#000000" stroke-opacity="1" stroke-width="3.2"/>
<circle clip-path="url(#clip222)" cx="1742.41" cy="309.735" r="14" fill="#ff0000" fill-rule="evenodd" fill-opacity="1" stroke="#000000" stroke-opacity="1" stroke-width="3.2"/>
<circle clip-path="url(#clip222)" cx="1595.28" cy="483.341" r="14" fill="#ff0000" fill-rule="evenodd" fill-opacity="1" stroke="#000000" stroke-opacity="1" stroke-width="3.2"/>
<circle clip-path="url(#clip222)" cx="1508.23" cy="599.291" r="14" fill="#ff0000" fill-rule="evenodd" fill-opacity="1" stroke="#000000" stroke-opacity="1" stroke-width="3.2"/>
<circle clip-path="url(#clip222)" cx="1466.17" cy="680.196" r="14" fill="#ff0000" fill-rule="evenodd" fill-opacity="1" stroke="#000000" stroke-opacity="1" stroke-width="3.2"/>
<circle clip-path="url(#clip222)" cx="1452.66" cy="733.233" r="14" fill="#ff0000" fill-rule="evenodd" fill-opacity="1" stroke="#000000" stroke-opacity="1" stroke-width="3.2"/>
<circle clip-path="url(#clip222)" cx="1448.05" cy="748.331" r="14" fill="#ff0000" fill-rule="evenodd" fill-opacity="1" stroke="#000000" stroke-opacity="1" stroke-width="3.2"/>
<circle clip-path="url(#clip222)" cx="1447.55" cy="749.099" r="14" fill="#ff0000" fill-rule="evenodd" fill-opacity="1" stroke="#000000" stroke-opacity="1" stroke-width="3.2"/>
<circle clip-path="url(#clip222)" cx="1447.54" cy="749.102" r="14" fill="#ff0000" fill-rule="evenodd" fill-opacity="1" stroke="#000000" stroke-opacity="1" stroke-width="3.2"/>
<circle clip-path="url(#clip222)" cx="1447.54" cy="749.102" r="14" fill="#ff0000" fill-rule="evenodd" fill-opacity="1" stroke="#000000" stroke-opacity="1" stroke-width="3.2"/>
<polyline clip-path="url(#clip222)" style="stroke:#800080; stroke-linecap:butt; stroke-linejoin:round; stroke-width:4; stroke-opacity:1; fill:none" points="
  1323.49,877.512 1326.61,880.581 1327.09,881.03 1330.13,883.784 1331.02,884.548 1333.65,886.734 1335.36,888.067 1337.16,889.44 1340.21,891.585 1340.68,891.908 
  1344.2,894.123 1345.92,895.103 1347.72,896.101 1351.24,897.84 1353.05,898.621 1354.75,899.335 1358.27,900.581 1361.79,901.585 1364.38,902.139 1365.31,902.334 
  1368.83,902.815 1372.34,903.032 1375.86,902.975 1379.38,902.634 1382.12,902.139 1382.9,901.996 1386.42,901.037 1389.94,899.758 1392.42,898.621 1393.45,898.138 
  1396.97,896.143 1398.53,895.103 1400.49,893.758 1403.23,891.585 1404.01,890.956 1407.13,888.067 1407.53,887.694 1410.47,884.548 1411.04,883.924 1413.41,881.03 
  1414.56,879.593 1416.06,877.512 1418.08,874.643 1418.5,873.994 1420.68,870.476 1421.6,868.966 1422.71,866.958 1424.6,863.44 1425.12,862.456 1426.33,859.922 
  1427.97,856.404 1428.63,854.935 1429.49,852.886 1430.91,849.368 1432.15,846.168 1432.27,845.85 1433.49,842.331 1434.68,838.813 1435.67,835.736 1435.8,835.295 
  1436.82,831.777 1437.8,828.259 1438.73,824.741 1439.19,822.92 1439.59,821.223 1440.38,817.705 1441.14,814.187 1441.85,810.669 1442.52,807.151 1442.71,806.142 
  1443.13,803.633 1443.69,800.114 1444.21,796.596 1444.69,793.078 1445.14,789.56 1445.55,786.042 1445.92,782.524 1446.22,779.342 1446.25,779.006 1446.53,775.488 
  1446.78,771.97 1446.99,768.452 1447.16,764.934 1447.3,761.415 1447.41,757.897 1447.48,754.379 1447.51,750.861 1447.51,747.343 1447.48,743.825 1447.41,740.307 
  1447.3,736.789 1447.16,733.271 1446.99,729.753 1446.78,726.235 1446.53,722.717 1446.25,719.198 1446.22,718.862 1445.92,715.68 1445.55,712.162 1445.14,708.644 
  1444.69,705.126 1444.21,701.608 1443.69,698.09 1443.13,694.572 1442.71,692.063 1442.52,691.054 1441.85,687.536 1441.14,684.018 1440.38,680.5 1439.59,676.981 
  1439.19,675.285 1438.73,673.463 1437.8,669.945 1436.82,666.427 1435.8,662.909 1435.67,662.469 1434.68,659.391 1433.49,655.873 1432.27,652.355 1432.15,652.036 
  1430.91,648.837 1429.49,645.319 1428.63,643.27 1427.97,641.801 1426.33,638.282 1425.12,635.748 1424.6,634.764 1422.71,631.246 1421.6,629.239 1420.68,627.728 
  1418.5,624.21 1418.08,623.562 1416.06,620.692 1414.56,618.612 1413.41,617.174 1411.04,614.281 1410.47,613.656 1407.53,610.51 1407.13,610.138 1404.01,607.248 
  1403.23,606.62 1400.49,604.446 1398.53,603.102 1396.97,602.061 1393.45,600.067 1392.42,599.584 1389.94,598.447 1386.42,597.168 1382.9,596.208 1382.12,596.065 
  1379.38,595.571 1375.86,595.23 1372.34,595.172 1368.83,595.389 1365.31,595.871 1364.38,596.065 1361.79,596.619 1358.27,597.624 1354.75,598.869 1353.05,599.584 
  1351.24,600.364 1347.72,602.103 1345.92,603.102 1344.2,604.082 1340.68,606.296 1340.21,606.62 1337.16,608.765 1335.36,610.138 1333.65,611.47 1331.02,613.656 
  1330.13,614.42 1327.09,617.174 1326.61,617.623 1323.49,620.692 1323.09,621.089 1320.14,624.21 1319.57,624.828 1317.02,627.728 1316.06,628.851 1314.08,631.246 
  1312.54,633.171 1311.3,634.764 1309.02,637.804 1308.67,638.282 1306.18,641.801 1305.5,642.798 1303.82,645.319 1301.98,648.17 1301.56,648.837 1299.42,652.355 
  1298.47,653.986 1297.38,655.873 1295.43,659.391 1294.95,660.298 1293.58,662.909 1291.81,666.427 1291.43,667.215 1290.13,669.945 1288.53,673.463 1287.91,674.89 
  1287.01,676.981 1285.57,680.5 1284.39,683.54 1284.21,684.018 1282.93,687.536 1281.71,691.054 1280.87,693.638 1280.57,694.572 1279.51,698.09 1278.52,701.608 
  1277.6,705.126 1277.36,706.117 1276.75,708.644 1275.97,712.162 1275.26,715.68 1274.63,719.198 1274.06,722.717 1273.84,724.32 1273.57,726.235 1273.15,729.753 
  1272.79,733.271 1272.51,736.789 1272.3,740.307 1272.16,743.825 1272.09,747.343 1272.09,750.861 1272.16,754.379 1272.3,757.897 1272.51,761.415 1272.79,764.934 
  1273.15,768.452 1273.57,771.97 1273.84,773.885 1274.06,775.488 1274.63,779.006 1275.26,782.524 1275.97,786.042 1276.75,789.56 1277.36,792.087 1277.6,793.078 
  1278.52,796.596 1279.51,800.114 1280.57,803.633 1280.87,804.567 1281.71,807.151 1282.93,810.669 1284.21,814.187 1284.39,814.664 1285.57,817.705 1287.01,821.223 
  1287.91,823.315 1288.53,824.741 1290.13,828.259 1291.43,830.99 1291.81,831.777 1293.58,835.295 1294.95,837.907 1295.43,838.813 1297.38,842.331 1298.47,844.218 
  1299.42,845.85 1301.56,849.368 1301.98,850.035 1303.82,852.886 1305.5,855.407 1306.18,856.404 1308.67,859.922 1309.02,860.4 1311.3,863.44 1312.54,865.033 
  1314.08,866.958 1316.06,869.354 1317.02,870.476 1319.57,873.377 1320.14,873.994 1323.09,877.115 1323.49,877.512 
  "/>
<polyline clip-path="url(#clip222)" style="stroke:#800080; stroke-linecap:butt; stroke-linejoin:round; stroke-width:4; stroke-opacity:1; fill:none" points="
  891.977,1450.96 893.051,1447.44 893.885,1444.7 894.125,1443.92 895.21,1440.41 896.289,1436.89 897.363,1433.37 897.403,1433.24 898.453,1429.85 899.537,1426.33 
  900.617,1422.82 900.921,1421.82 901.706,1419.3 902.796,1415.78 903.88,1412.26 904.44,1410.44 904.969,1408.74 906.064,1405.23 907.154,1401.71 907.958,1399.1 
  908.243,1398.19 909.344,1394.67 910.438,1391.15 911.476,1387.8 911.527,1387.63 912.633,1384.12 913.733,1380.6 914.826,1377.08 914.994,1376.54 915.933,1373.56 
  917.038,1370.04 918.136,1366.53 918.512,1365.32 919.244,1363.01 920.354,1359.49 921.457,1355.97 922.03,1354.13 922.566,1352.45 923.68,1348.94 924.789,1345.42 
  925.548,1342.99 925.898,1341.9 927.018,1338.38 928.131,1334.86 929.066,1331.89 929.241,1331.35 930.366,1327.83 931.484,1324.31 932.584,1320.83 932.596,1320.79 
  933.725,1317.27 934.848,1313.75 935.964,1310.24 936.102,1309.8 937.095,1306.72 938.223,1303.2 939.343,1299.68 939.62,1298.81 940.476,1296.16 941.608,1292.65 
  942.733,1289.13 943.138,1287.85 943.868,1285.61 945.005,1282.09 946.134,1278.57 946.657,1276.94 947.271,1275.06 948.412,1271.54 949.546,1268.02 950.175,1266.06 
  950.684,1264.5 951.83,1260.98 952.968,1257.47 953.693,1255.21 954.109,1253.95 955.259,1250.43 956.401,1246.91 957.211,1244.4 957.544,1243.39 958.698,1239.88 
  959.845,1236.36 960.729,1233.62 960.989,1232.84 962.148,1229.32 963.298,1225.8 964.247,1222.88 964.445,1222.28 965.608,1218.77 966.762,1215.25 967.765,1212.17 
  967.911,1211.73 969.078,1208.21 970.236,1204.69 971.283,1201.49 971.388,1201.18 972.558,1197.66 973.719,1194.14 974.801,1190.84 974.874,1190.62 976.048,1187.1 
  977.212,1183.59 978.319,1180.22 978.369,1180.07 979.547,1176.55 980.714,1173.03 981.837,1169.62 981.874,1169.51 983.054,1166 984.225,1162.48 985.355,1159.05 
  985.387,1158.96 986.57,1155.44 987.744,1151.92 988.874,1148.51 988.908,1148.4 990.094,1144.89 991.27,1141.37 992.392,1137.98 992.437,1137.85 993.626,1134.33 
  994.804,1130.81 995.91,1127.48 995.973,1127.3 997.164,1123.78 998.344,1120.26 999.428,1117 999.515,1116.74 1000.71,1113.22 1001.89,1109.71 1002.95,1106.53 
  1003.06,1106.19 1004.26,1102.67 1005.44,1099.15 1006.46,1096.07 1006.61,1095.63 1007.81,1092.12 1008.99,1088.6 1009.98,1085.62 1010.17,1085.08 1011.36,1081.56 
  1012.55,1078.04 1013.5,1075.18 1013.72,1074.53 1014.92,1071.01 1016.1,1067.49 1017.02,1064.74 1017.28,1063.97 1018.48,1060.45 1019.66,1056.93 1020.54,1054.29 
  1020.84,1053.42 1022.03,1049.9 1023.21,1046.38 1024.05,1043.84 1024.39,1042.86 1025.58,1039.34 1026.76,1035.83 1027.57,1033.37 1027.94,1032.31 1029.13,1028.79 
  1030.3,1025.27 1031.09,1022.88 1031.47,1021.75 1032.66,1018.24 1033.83,1014.72 1034.61,1012.36 1035,1011.2 1036.19,1007.68 1037.35,1004.16 1038.13,1001.79 
  1038.52,1000.65 1039.69,997.127 1040.86,993.609 1041.64,991.181 1042.01,990.091 1043.18,986.573 1044.34,983.055 1045.16,980.502 1045.49,979.537 1046.65,976.019 
  1047.8,972.501 1048.68,969.742 1048.93,968.983 1050.09,965.464 1051.23,961.946 1052.2,958.882 1052.35,958.428 1053.49,954.91 1054.62,951.392 1055.72,947.898 
  1055.73,947.874 1056.86,944.356 1057.97,940.838 1059.06,937.32 1059.24,936.752 1060.17,933.802 1061.27,930.284 1062.35,926.766 1062.75,925.412 1063.43,923.247 
  1064.51,919.729 1065.57,916.211 1066.27,913.835 1066.62,912.693 1067.68,909.175 1068.72,905.657 1069.74,902.139 1069.79,901.957 1070.78,898.621 1071.79,895.103 
  1072.78,891.585 1073.31,889.669 1073.77,888.067 1074.76,884.548 1075.72,881.03 1076.66,877.512 1076.83,876.873 1077.61,873.994 1078.54,870.476 1079.45,866.958 
  1080.33,863.44 1080.34,863.371 1081.22,859.922 1082.09,856.404 1082.93,852.886 1083.75,849.368 1083.86,848.846 1084.57,845.85 1085.36,842.331 1086.13,838.813 
  1086.87,835.295 1087.38,832.767 1087.59,831.777 1088.31,828.259 1088.99,824.741 1089.65,821.223 1090.27,817.705 1090.87,814.187 1090.9,813.987 1091.46,810.669 
  1092.02,807.151 1092.55,803.633 1093.04,800.114 1093.5,796.596 1093.93,793.078 1094.33,789.56 1094.42,788.727 1094.71,786.042 1095.06,782.524 1095.38,779.006 
  1095.66,775.488 1095.9,771.97 1096.11,768.452 1096.29,764.934 1096.43,761.415 1096.53,757.897 1096.6,754.379 1096.64,750.861 1096.64,747.343 1096.6,743.825 
  1096.53,740.307 1096.43,736.789 1096.29,733.271 1096.11,729.753 1095.9,726.235 1095.66,722.717 1095.38,719.198 1095.06,715.68 1094.71,712.162 1094.42,709.477 
  1094.33,708.644 1093.93,705.126 1093.5,701.608 1093.04,698.09 1092.55,694.572 1092.02,691.054 1091.46,687.536 1090.9,684.218 1090.87,684.018 1090.27,680.5 
  1089.65,676.981 1088.99,673.463 1088.31,669.945 1087.59,666.427 1087.38,665.437 1086.87,662.909 1086.13,659.391 1085.36,655.873 1084.57,652.355 1083.86,649.359 
  1083.75,648.837 1082.93,645.319 1082.09,641.801 1081.22,638.282 1080.34,634.833 1080.33,634.764 1079.45,631.246 1078.54,627.728 1077.61,624.21 1076.83,621.331 
  1076.66,620.692 1075.72,617.174 1074.76,613.656 1073.77,610.138 1073.31,608.535 1072.78,606.62 1071.79,603.102 1070.78,599.584 1069.79,596.247 1069.74,596.065 
  1068.72,592.547 1067.68,589.029 1066.62,585.511 1066.27,584.369 1065.57,581.993 1064.51,578.475 1063.43,574.957 1062.75,572.792 1062.35,571.439 1061.27,567.921 
  1060.17,564.403 1059.24,561.453 1059.06,560.885 1057.97,557.367 1056.86,553.848 1055.73,550.33 1055.72,550.306 1054.62,546.812 1053.49,543.294 1052.35,539.776 
  1052.2,539.322 1051.23,536.258 1050.09,532.74 1048.93,529.222 1048.68,528.462 1047.8,525.704 1046.65,522.186 1045.49,518.668 1045.16,517.702 1044.34,515.149 
  1043.18,511.631 1042.01,508.113 1041.64,507.023 1040.86,504.595 1039.69,501.077 1038.52,497.559 1038.13,496.41 1037.35,494.041 1036.19,490.523 1035,487.005 
  1034.61,485.848 1033.83,483.487 1032.66,479.969 1031.47,476.451 1031.09,475.326 1030.3,472.932 1029.13,469.414 1027.94,465.896 1027.57,464.835 1026.76,462.378 
  1025.58,458.86 1024.39,455.342 1024.05,454.366 1023.21,451.824 1022.03,448.306 1020.84,444.788 1020.54,443.912 1019.66,441.27 1018.48,437.752 1017.28,434.234 
  1017.02,433.467 1016.1,430.715 1014.92,427.197 1013.72,423.679 1013.5,423.026 1012.55,420.161 1011.36,416.643 1010.17,413.125 1009.98,412.583 1008.99,409.607 
  1007.81,406.089 1006.61,402.571 1006.46,402.135 1005.44,399.053 1004.26,395.535 1003.06,392.016 1002.95,391.678 1001.89,388.498 1000.71,384.98 999.515,381.462 
  999.428,381.208 998.344,377.944 997.164,374.426 995.973,370.908 995.91,370.723 994.804,367.39 993.626,363.872 992.437,360.354 992.392,360.221 991.27,356.836 
  990.094,353.318 988.908,349.799 988.874,349.698 987.744,346.281 986.57,342.763 985.387,339.245 985.355,339.153 984.225,335.727 983.054,332.209 981.874,328.691 
  981.837,328.584 980.714,325.173 979.547,321.655 978.369,318.137 978.319,317.989 977.212,314.619 976.048,311.101 974.874,307.582 974.801,307.367 973.719,304.064 
  972.558,300.546 971.388,297.028 971.283,296.717 970.236,293.51 969.078,289.992 967.911,286.474 967.765,286.036 966.762,282.956 965.608,279.438 964.445,275.92 
  964.247,275.325 963.298,272.402 962.148,268.883 960.989,265.365 960.729,264.581 959.845,261.847 958.698,258.329 957.544,254.811 957.211,253.804 956.401,251.293 
  955.259,247.775 954.109,244.257 953.693,242.994 952.968,240.739 951.83,237.221 950.684,233.703 950.175,232.149 949.546,230.185 948.412,226.666 947.271,223.148 
  946.657,221.268 946.134,219.63 945.005,216.112 943.868,212.594 943.138,210.351 942.733,209.076 941.608,205.558 940.476,202.04 939.62,199.398 939.343,198.522 
  938.223,195.004 937.095,191.486 936.102,188.407 935.964,187.968 934.848,184.449 933.725,180.931 932.596,177.413 932.584,177.378 931.484,173.895 930.366,170.377 
  929.241,166.859 929.066,166.314 928.131,163.341 927.018,159.823 925.898,156.305 925.548,155.211 924.789,152.787 923.68,149.269 922.566,145.75 922.03,144.069 
  921.457,142.232 920.354,138.714 919.244,135.196 918.512,132.888 918.136,131.678 917.038,128.16 915.933,124.642 914.994,121.667 914.826,121.124 913.733,117.606 
  912.633,114.088 911.527,110.57 911.476,110.406 910.438,107.052 909.344,103.533 908.243,100.015 907.958,99.1074 907.154,96.4973 906.064,92.9792 904.969,89.4611 
  904.44,87.7683 903.88,85.943 902.796,82.425 901.706,78.9069 900.921,76.388 900.617,75.3888 899.537,71.8707 898.453,68.3526 897.403,64.9664 897.363,64.8345 
  896.289,61.3164 895.21,57.7984 894.125,54.2803 893.885,53.507 893.051,50.7622 891.977,47.2441 
  "/>
<polyline clip-path="url(#clip222)" style="stroke:#1e90ff; stroke-linecap:butt; stroke-linejoin:round; stroke-width:4; stroke-opacity:1; fill:none" points="
  570.221,232.557 573.615,233.703 573.739,233.745 577.258,234.953 580.776,236.154 583.913,237.221 584.294,237.352 587.812,238.567 591.33,239.777 594.142,240.739 
  594.848,240.985 598.366,242.208 601.884,243.425 604.299,244.257 605.402,244.644 608.92,245.875 612.438,247.1 614.386,247.775 615.956,248.33 619.475,249.568 
  622.993,250.801 624.402,251.293 626.511,252.043 630.029,253.289 633.547,254.53 634.348,254.811 637.065,255.784 640.583,257.038 644.101,258.286 644.224,258.329 
  647.619,259.553 651.137,260.815 654.028,261.847 654.655,262.076 658.174,263.352 661.692,264.621 663.763,265.365 665.21,265.896 668.728,267.179 672.246,268.457 
  673.426,268.883 675.764,269.746 679.282,271.037 682.8,272.322 683.019,272.402 686.318,273.626 689.836,274.925 692.542,275.92 693.354,276.224 696.872,277.538 
  700.391,278.845 701.994,279.438 703.909,280.16 707.427,281.481 710.945,282.795 711.376,282.956 714.463,284.128 717.981,285.457 720.687,286.474 721.499,286.785 
  725.017,288.129 728.535,289.465 729.927,289.992 732.053,290.813 735.571,292.164 739.089,293.507 739.097,293.51 742.608,294.874 746.126,296.232 748.197,297.028 
  749.644,297.596 753.162,298.97 756.68,300.335 757.225,300.546 760.198,301.72 763.716,303.101 766.184,304.064 767.234,304.483 770.752,305.88 774.27,307.268 
  775.072,307.582 777.788,308.672 781.307,310.076 783.889,311.101 784.825,311.48 788.343,312.899 791.861,314.309 792.636,314.619 795.379,315.737 798.897,317.163 
  801.312,318.137 802.415,318.591 805.933,320.033 809.451,321.466 809.917,321.655 812.969,322.919 816.487,324.368 818.453,325.173 820.005,325.823 823.524,327.288 
  826.917,328.691 827.042,328.744 830.56,330.225 834.078,331.696 835.311,332.209 837.596,333.181 841.114,334.668 843.635,335.727 844.632,336.156 848.15,337.659 
  851.668,339.152 851.888,339.245 855.186,340.671 858.704,342.18 860.07,342.763 862.222,343.703 865.741,345.229 868.182,346.281 869.259,346.756 872.777,348.299 
  876.223,349.799 876.295,349.831 879.813,351.392 883.331,352.94 884.194,353.318 886.849,354.507 890.367,356.072 892.094,356.836 893.885,357.646 897.403,359.228 
  899.924,360.354 900.921,360.81 904.44,362.409 907.683,363.872 907.958,363.998 911.476,365.615 914.994,367.218 915.372,367.39 918.512,368.848 922.03,370.468 
  922.99,370.908 925.548,372.108 929.066,373.745 930.537,374.426 932.584,375.396 936.102,377.051 938.015,377.944 939.62,378.713 943.138,380.385 945.421,381.462 
  946.657,382.059 950.175,383.75 952.757,384.98 953.693,385.437 957.211,387.145 960.022,388.498 960.729,388.847 964.247,390.572 967.217,392.016 967.765,392.289 
  971.283,394.033 974.342,395.535 974.801,395.766 978.319,397.527 981.395,399.053 981.837,399.277 985.355,401.056 988.379,402.571 988.874,402.825 992.392,404.622 
  995.291,406.089 995.91,406.41 999.428,408.224 1002.13,409.607 1002.95,410.033 1006.46,411.865 1008.91,413.125 1009.98,413.695 1013.5,415.545 1015.61,416.643 
  1017.02,417.398 1020.54,419.266 1022.24,420.161 1024.05,421.143 1027.57,423.028 1028.8,423.679 1031.09,424.931 1034.61,426.833 1035.29,427.197 1038.13,428.764 
  1041.64,430.683 1041.71,430.715 1045.16,432.641 1048.05,434.234 1048.68,434.589 1052.2,436.565 1054.33,437.752 1055.72,438.544 1059.24,440.537 1060.54,441.27 
  1062.75,442.548 1066.27,444.558 1066.68,444.788 1069.79,446.604 1072.74,448.306 1073.31,448.641 1076.83,450.711 1078.74,451.824 1080.34,452.786 1083.86,454.871 
  1084.66,455.342 1087.38,456.985 1090.52,458.86 1090.9,459.094 1094.42,461.241 1096.3,462.378 1097.93,463.392 1101.45,465.553 1102.02,465.896 1104.97,467.749 
  1107.66,469.414 1108.49,469.944 1112.01,472.167 1113.23,472.932 1115.52,474.41 1118.73,476.451 1119.04,476.654 1122.56,478.939 1124.16,479.969 1126.08,481.236 
  1129.53,483.487 1129.6,483.535 1133.12,485.884 1134.82,487.005 1136.63,488.241 1140.04,490.523 1140.15,490.603 1143.67,493.016 1145.18,494.041 1147.19,495.44 
  1150.26,497.559 1150.71,497.874 1154.22,500.349 1155.27,501.077 1157.74,502.85 1160.21,504.595 1161.26,505.363 1164.78,507.9 1165.08,508.113 1168.3,510.486 
  1169.87,511.631 1171.81,513.089 1174.6,515.149 1175.33,515.71 1178.85,518.366 1179.25,518.668 1182.37,521.068 1183.84,522.186 1185.89,523.794 1188.35,525.704 
  1189.4,526.545 1192.8,529.222 1192.92,529.324 1196.44,532.16 1197.17,532.74 1199.96,535.032 1201.47,536.258 1203.48,537.937 1205.71,539.776 1206.99,540.878 
  1209.87,543.294 1210.51,543.857 1213.96,546.812 1214.03,546.876 1217.55,549.959 1217.98,550.33 1221.07,553.09 1221.93,553.848 1224.59,556.27 1225.81,557.367 
  1228.1,559.5 1229.62,560.885 1231.62,562.786 1233.36,564.403 1235.14,566.129 1237.03,567.921 1238.66,569.534 1240.62,571.439 1242.18,573.005 1244.15,574.957 
  1245.69,576.546 1247.61,578.475 1249.21,580.162 1250.99,581.993 1252.73,583.856 1254.31,585.511 1256.25,587.634 1257.55,589.029 1259.77,591.5 1260.73,592.547 
  1263.28,595.459 1263.83,596.065 1266.8,599.515 1266.86,599.584 1269.83,603.102 1270.32,603.716 1272.72,606.62 1273.84,608.038 1275.54,610.138 1277.36,612.482 
  1278.29,613.656 1280.87,617.051 1280.97,617.174 1283.58,620.692 1284.39,621.839 1286.12,624.21 1287.91,626.782 1288.59,627.728 1290.99,631.246 1291.43,631.931 
  1293.31,634.764 1294.95,637.33 1295.57,638.282 1297.76,641.801 1298.47,643.001 1299.87,645.319 1301.92,648.837 1301.98,648.953 1303.9,652.355 1305.5,655.338 
  1305.8,655.873 1307.63,659.391 1309.02,662.178 1309.4,662.909 1311.09,666.427 1312.54,669.58 1312.71,669.945 1314.26,673.463 1315.75,676.981 1316.06,677.784 
  1317.16,680.5 1318.5,684.018 1319.57,687.026 1319.77,687.536 1320.97,691.054 1322.09,694.572 1323.09,697.901 1323.15,698.09 1324.14,701.608 1325.06,705.126 
  1325.9,708.644 1326.61,711.873 1326.68,712.162 1327.38,715.68 1328.02,719.198 1328.58,722.717 1329.08,726.235 1329.5,729.753 1329.85,733.271 1330.13,736.714 
  1330.14,736.789 1330.35,740.307 1330.49,743.825 1330.56,747.343 1330.13,749.102 1326.61,749.102 1323.09,749.102 1319.57,749.102 1316.06,749.102 1312.54,749.102 
  1309.02,749.102 1305.5,749.102 1301.98,749.102 1298.47,749.102 1294.95,749.102 1291.43,749.102 1287.91,749.102 1284.39,749.102 1280.87,749.102 1277.36,749.102 
  1273.84,749.102 1270.32,749.102 1266.8,749.102 1263.28,749.102 1259.77,749.102 1256.25,749.102 1252.73,749.102 1249.21,749.102 1245.69,749.102 1242.18,749.102 
  1238.66,749.102 1235.14,749.102 1231.62,749.102 1228.1,749.102 1224.59,749.102 1221.07,749.102 1217.55,749.102 1214.03,749.102 1210.51,749.102 1206.99,749.102 
  1203.48,749.102 1199.96,749.102 1196.44,749.102 1192.92,749.102 1189.4,749.102 1185.89,749.102 1182.37,749.102 1178.85,749.102 1175.33,749.102 1171.81,749.102 
  1168.3,749.102 1164.78,749.102 1161.26,749.102 1157.74,749.102 1154.22,749.102 1150.71,749.102 1147.19,749.102 1143.67,749.102 1140.15,749.102 1136.63,749.102 
  1133.12,749.102 1129.6,749.102 1126.08,749.102 1122.56,749.102 1119.04,749.102 1115.52,749.102 1112.01,749.102 1108.49,749.102 1104.97,749.102 1101.45,749.102 
  1097.93,749.102 1094.42,749.102 1090.9,749.102 1087.38,749.102 1083.86,749.102 1080.34,749.102 1076.83,749.102 1073.31,749.102 1069.79,749.102 1066.27,749.102 
  1062.75,749.102 1059.24,749.102 1055.72,749.102 1052.2,749.102 1048.68,749.102 1045.16,749.102 1041.64,749.102 1038.13,749.102 1034.61,749.102 1031.09,749.102 
  1027.57,749.102 1024.05,749.102 1020.54,749.102 1017.02,749.102 1013.5,749.102 1009.98,749.102 1006.46,749.102 1002.95,749.102 999.428,749.102 995.91,749.102 
  992.392,749.102 988.874,749.102 985.355,749.102 981.837,749.102 978.319,749.102 974.801,749.102 971.283,749.102 967.765,749.102 964.247,749.102 960.729,749.102 
  957.211,749.102 953.693,749.102 950.175,749.102 946.657,749.102 943.138,749.102 939.62,749.102 936.102,749.102 932.584,749.102 929.066,749.102 925.548,749.102 
  922.03,749.102 918.512,749.102 914.994,749.102 911.476,749.102 907.958,749.102 904.44,749.102 900.921,749.102 897.403,749.102 893.885,749.102 890.367,749.102 
  886.849,749.102 883.331,749.102 879.813,749.102 876.295,749.102 872.777,749.102 869.259,749.102 865.741,749.102 862.222,749.102 858.704,749.102 855.186,749.102 
  851.668,749.102 848.15,749.102 844.632,749.102 841.114,749.102 837.596,749.102 834.078,749.102 830.56,749.102 827.042,749.102 823.524,749.102 820.005,749.102 
  816.487,749.102 812.969,749.102 809.451,749.102 805.933,749.102 802.415,749.102 798.897,749.102 795.379,749.102 791.861,749.102 788.343,749.102 784.825,749.102 
  781.307,749.102 777.788,749.102 774.27,749.102 770.752,749.102 767.234,749.102 763.716,749.102 760.198,749.102 756.68,749.102 753.162,749.102 749.644,749.102 
  746.126,749.102 742.608,749.102 739.089,749.102 735.571,749.102 732.053,749.102 728.535,749.102 725.017,749.102 721.499,749.102 717.981,749.102 714.463,749.102 
  710.945,749.102 707.427,749.102 703.909,749.102 700.391,749.102 696.872,749.102 693.354,749.102 689.836,749.102 686.318,749.102 682.8,749.102 679.282,749.102 
  675.764,749.102 672.246,749.102 668.728,749.102 665.21,749.102 661.692,749.102 658.174,749.102 654.655,749.102 651.137,749.102 647.619,749.102 644.101,749.102 
  640.583,749.102 637.065,749.102 633.547,749.102 630.029,749.102 626.511,749.102 622.993,749.102 619.475,749.102 615.956,749.102 612.438,749.102 608.92,749.102 
  605.402,749.102 601.884,749.102 598.366,749.102 594.848,749.102 591.33,749.102 587.812,749.102 584.294,749.102 580.776,749.102 577.258,749.102 573.739,749.102 
  570.221,749.102 
  "/>
<polyline clip-path="url(#clip222)" style="stroke:#1e90ff; stroke-linecap:butt; stroke-linejoin:round; stroke-width:4; stroke-opacity:1; fill:none" points="
  570.221,1265.65 573.615,1264.5 573.739,1264.46 577.258,1263.25 580.776,1262.05 583.913,1260.98 584.294,1260.85 587.812,1259.64 591.33,1258.43 594.142,1257.47 
  594.848,1257.22 598.366,1256 601.884,1254.78 604.299,1253.95 605.402,1253.56 608.92,1252.33 612.438,1251.1 614.386,1250.43 615.956,1249.87 619.475,1248.64 
  622.993,1247.4 624.402,1246.91 626.511,1246.16 630.029,1244.91 633.547,1243.67 634.348,1243.39 637.065,1242.42 640.583,1241.17 644.101,1239.92 644.224,1239.88 
  647.619,1238.65 651.137,1237.39 654.028,1236.36 654.655,1236.13 658.174,1234.85 661.692,1233.58 663.763,1232.84 665.21,1232.31 668.728,1231.02 672.246,1229.75 
  673.426,1229.32 675.764,1228.46 679.282,1227.17 682.8,1225.88 683.019,1225.8 686.318,1224.58 689.836,1223.28 692.542,1222.28 693.354,1221.98 696.872,1220.67 
  700.391,1219.36 701.994,1218.77 703.909,1218.04 707.427,1216.72 710.945,1215.41 711.376,1215.25 714.463,1214.08 717.981,1212.75 720.687,1211.73 721.499,1211.42 
  725.017,1210.08 728.535,1208.74 729.927,1208.21 732.053,1207.39 735.571,1206.04 739.089,1204.7 739.097,1204.69 742.608,1203.33 746.126,1201.97 748.197,1201.18 
  749.644,1200.61 753.162,1199.23 756.68,1197.87 757.225,1197.66 760.198,1196.48 763.716,1195.1 766.184,1194.14 767.234,1193.72 770.752,1192.32 774.27,1190.94 
  775.072,1190.62 777.788,1189.53 781.307,1188.13 783.889,1187.1 784.825,1186.72 788.343,1185.31 791.861,1183.9 792.636,1183.59 795.379,1182.47 798.897,1181.04 
  801.312,1180.07 802.415,1179.61 805.933,1178.17 809.451,1176.74 809.917,1176.55 812.969,1175.28 816.487,1173.84 818.453,1173.03 820.005,1172.38 823.524,1170.92 
  826.917,1169.51 827.042,1169.46 830.56,1167.98 834.078,1166.51 835.311,1166 837.596,1165.02 841.114,1163.54 843.635,1162.48 844.632,1162.05 848.15,1160.54 
  851.668,1159.05 851.888,1158.96 855.186,1157.53 858.704,1156.02 860.07,1155.44 862.222,1154.5 865.741,1152.98 868.182,1151.92 869.259,1151.45 872.777,1149.91 
  876.223,1148.4 876.295,1148.37 879.813,1146.81 883.331,1145.26 884.194,1144.89 886.849,1143.7 890.367,1142.13 892.094,1141.37 893.885,1140.56 897.403,1138.98 
  899.924,1137.85 900.921,1137.39 904.44,1135.8 907.683,1134.33 907.958,1134.21 911.476,1132.59 914.994,1130.99 915.372,1130.81 918.512,1129.36 922.03,1127.74 
  922.99,1127.3 925.548,1126.1 929.066,1124.46 930.537,1123.78 932.584,1122.81 936.102,1121.15 938.015,1120.26 939.62,1119.49 943.138,1117.82 945.421,1116.74 
  946.657,1116.14 950.175,1114.45 952.757,1113.22 953.693,1112.77 957.211,1111.06 960.022,1109.71 960.729,1109.36 964.247,1107.63 967.217,1106.19 967.765,1105.91 
  971.283,1104.17 974.342,1102.67 974.801,1102.44 978.319,1100.68 981.395,1099.15 981.837,1098.93 985.355,1097.15 988.379,1095.63 988.874,1095.38 992.392,1093.58 
  995.291,1092.12 995.91,1091.79 999.428,1089.98 1002.13,1088.6 1002.95,1088.17 1006.46,1086.34 1008.91,1085.08 1009.98,1084.51 1013.5,1082.66 1015.61,1081.56 
  1017.02,1080.81 1020.54,1078.94 1022.24,1078.04 1024.05,1077.06 1027.57,1075.18 1028.8,1074.53 1031.09,1073.27 1034.61,1071.37 1035.29,1071.01 1038.13,1069.44 
  1041.64,1067.52 1041.71,1067.49 1045.16,1065.56 1048.05,1063.97 1048.68,1063.62 1052.2,1061.64 1054.33,1060.45 1055.72,1059.66 1059.24,1057.67 1060.54,1056.93 
  1062.75,1055.66 1066.27,1053.65 1066.68,1053.42 1069.79,1051.6 1072.74,1049.9 1073.31,1049.56 1076.83,1047.49 1078.74,1046.38 1080.34,1045.42 1083.86,1043.33 
  1084.66,1042.86 1087.38,1041.22 1090.52,1039.34 1090.9,1039.11 1094.42,1036.96 1096.3,1035.83 1097.93,1034.81 1101.45,1032.65 1102.02,1032.31 1104.97,1030.45 
  1107.66,1028.79 1108.49,1028.26 1112.01,1026.04 1113.23,1025.27 1115.52,1023.79 1118.73,1021.75 1119.04,1021.55 1122.56,1019.26 1124.16,1018.24 1126.08,1016.97 
  1129.53,1014.72 1129.6,1014.67 1133.12,1012.32 1134.82,1011.2 1136.63,1009.96 1140.04,1007.68 1140.15,1007.6 1143.67,1005.19 1145.18,1004.16 1147.19,1002.76 
  1150.26,1000.65 1150.71,1000.33 1154.22,997.855 1155.27,997.127 1157.74,995.355 1160.21,993.609 1161.26,992.841 1164.78,990.304 1165.08,990.091 1168.3,987.718 
  1169.87,986.573 1171.81,985.115 1174.6,983.055 1175.33,982.494 1178.85,979.838 1179.25,979.537 1182.37,977.136 1183.84,976.019 1185.89,974.41 1188.35,972.501 
  1189.4,971.659 1192.8,968.983 1192.92,968.881 1196.44,966.044 1197.17,965.464 1199.96,963.172 1201.47,961.946 1203.48,960.267 1205.71,958.428 1206.99,957.326 
  1209.87,954.91 1210.51,954.348 1213.96,951.392 1214.03,951.328 1217.55,948.245 1217.98,947.874 1221.07,945.114 1221.93,944.356 1224.59,941.934 1225.81,940.838 
  1228.1,938.704 1229.62,937.32 1231.62,935.419 1233.36,933.802 1235.14,932.075 1237.03,930.284 1238.66,928.67 1240.62,926.766 1242.18,925.199 1244.15,923.247 
  1245.69,921.658 1247.61,919.729 1249.21,918.042 1250.99,916.211 1252.73,914.348 1254.31,912.693 1256.25,910.57 1257.55,909.175 1259.77,906.705 1260.73,905.657 
  1263.28,902.746 1263.83,902.139 1266.8,898.69 1266.86,898.621 1269.83,895.103 1270.32,894.488 1272.72,891.585 1273.84,890.166 1275.54,888.067 1277.36,885.722 
  1278.29,884.548 1280.87,881.153 1280.97,881.03 1283.58,877.512 1284.39,876.366 1286.12,873.994 1287.91,871.422 1288.59,870.476 1290.99,866.958 1291.43,866.274 
  1293.31,863.44 1294.95,860.874 1295.57,859.922 1297.76,856.404 1298.47,855.203 1299.87,852.886 1301.92,849.368 1301.98,849.252 1303.9,845.85 1305.5,842.866 
  1305.8,842.331 1307.63,838.813 1309.02,836.026 1309.4,835.295 1311.09,831.777 1312.54,828.625 1312.71,828.259 1314.26,824.741 1315.75,821.223 1316.06,820.42 
  1317.16,817.705 1318.5,814.187 1319.57,811.178 1319.77,810.669 1320.97,807.151 1322.09,803.633 1323.09,800.304 1323.15,800.114 1324.14,796.596 1325.06,793.078 
  1325.9,789.56 1326.61,786.332 1326.68,786.042 1327.38,782.524 1328.02,779.006 1328.58,775.488 1329.08,771.97 1329.5,768.452 1329.85,764.934 1330.13,761.491 
  1330.14,761.415 1330.35,757.897 1330.49,754.379 1330.56,750.861 1333.65,749.102 1337.16,749.102 1340.68,749.102 1344.2,749.102 1347.72,749.102 1351.24,749.102 
  1354.75,749.102 1358.27,749.102 1361.79,749.102 1365.31,749.102 1368.83,749.102 1372.34,749.102 1375.86,749.102 1379.38,749.102 1382.9,749.102 1386.42,749.102 
  1389.94,749.102 1393.45,749.102 1396.97,749.102 1400.49,749.102 1404.01,749.102 1407.53,749.102 1411.04,749.102 1414.56,749.102 1418.08,749.102 1421.6,749.102 
  1425.12,749.102 1428.63,749.102 1432.15,749.102 1435.67,749.102 1439.19,749.102 1442.71,749.102 1446.22,749.102 1449.74,749.102 1453.26,749.102 1456.78,749.102 
  1460.3,749.102 1463.82,749.102 1467.33,749.102 1470.85,749.102 1474.37,749.102 1477.89,749.102 1481.41,749.102 1484.92,749.102 1488.44,749.102 1491.96,749.102 
  1495.48,749.102 1499,749.102 1502.51,749.102 1506.03,749.102 1509.55,749.102 1513.07,749.102 1516.59,749.102 1520.1,749.102 1523.62,749.102 1527.14,749.102 
  1530.66,749.102 1534.18,749.102 1537.69,749.102 1541.21,749.102 1544.73,749.102 1548.25,749.102 1551.77,749.102 1555.29,749.102 1558.8,749.102 1562.32,749.102 
  1565.84,749.102 1569.36,749.102 1572.88,749.102 1576.39,749.102 1579.91,749.102 1583.43,749.102 1586.95,749.102 1590.47,749.102 1593.98,749.102 1597.5,749.102 
  1601.02,749.102 1604.54,749.102 1608.06,749.102 1611.57,749.102 1615.09,749.102 1618.61,749.102 1622.13,749.102 1625.65,749.102 1629.17,749.102 1632.68,749.102 
  1636.2,749.102 1639.72,749.102 1643.24,749.102 1646.76,749.102 1650.27,749.102 1653.79,749.102 1657.31,749.102 1660.83,749.102 1664.35,749.102 1667.86,749.102 
  1671.38,749.102 1674.9,749.102 1678.42,749.102 1681.94,749.102 1685.45,749.102 1688.97,749.102 1692.49,749.102 1696.01,749.102 1699.53,749.102 1703.04,749.102 
  1706.56,749.102 1710.08,749.102 1713.6,749.102 1717.12,749.102 1720.64,749.102 1724.15,749.102 1727.67,749.102 1731.19,749.102 1734.71,749.102 1738.23,749.102 
  1741.74,749.102 1745.26,749.102 1748.78,749.102 1752.3,749.102 1755.82,749.102 1759.33,749.102 1762.85,749.102 1766.37,749.102 1769.89,749.102 1773.41,749.102 
  1776.92,749.102 1780.44,749.102 1783.96,749.102 1787.48,749.102 1791,749.102 1794.52,749.102 1798.03,749.102 1801.55,749.102 1805.07,749.102 1808.59,749.102 
  1812.11,749.102 1815.62,749.102 1819.14,749.102 1822.66,749.102 1826.18,749.102 1829.7,749.102 1833.21,749.102 1836.73,749.102 1840.25,749.102 1843.77,749.102 
  1847.29,749.102 1850.8,749.102 1854.32,749.102 1857.84,749.102 1861.36,749.102 1864.88,749.102 1868.39,749.102 1871.91,749.102 1875.43,749.102 1878.95,749.102 
  1882.47,749.102 1885.99,749.102 1889.5,749.102 1893.02,749.102 1896.54,749.102 1900.06,749.102 1903.58,749.102 1907.09,749.102 1910.61,749.102 1914.13,749.102 
  1917.65,749.102 1921.17,749.102 1924.68,749.102 1928.2,749.102 1931.72,749.102 1935.24,749.102 1938.76,749.102 1942.27,749.102 1945.79,749.102 1949.31,749.102 
  1952.83,749.102 1956.35,749.102 1959.87,749.102 1963.38,749.102 1966.9,749.102 1970.42,749.102 1973.94,749.102 
  "/>
<path clip-path="url(#clip220)" d="
M1242.14 1404.17 L1901.89 1404.17 L1901.89 1196.81 L1242.14 1196.81  Z
  " fill="#ffffff" fill-rule="evenodd" fill-opacity="1"/>
<polyline clip-path="url(#clip220)" style="stroke:#000000; stroke-linecap:butt; stroke-linejoin:round; stroke-width:4; stroke-opacity:1; fill:none" points="
  1242.14,1404.17 1901.89,1404.17 1901.89,1196.81 1242.14,1196.81 1242.14,1404.17 
  "/>
<circle clip-path="url(#clip220)" cx="1338.2" cy="1248.65" r="23" fill="#ff0000" fill-rule="evenodd" fill-opacity="1" stroke="#000000" stroke-opacity="1" stroke-width="5.12"/>
<path clip-path="url(#clip220)" d="M1434.26 1231.37 L1440.55 1231.37 L1455.88 1260.28 L1455.88 1231.37 L1460.42 1231.37 L1460.42 1265.93 L1454.12 1265.93 L1438.8 1237.02 L1438.8 1265.93 L1434.26 1265.93 L1434.26 1231.37 Z" fill="#000000" fill-rule="evenodd" fill-opacity="1" /><path clip-path="url(#clip220)" d="M1491.71 1251.9 L1491.71 1253.99 L1472.13 1253.99 Q1472.41 1258.38 1474.77 1260.7 Q1477.15 1262.99 1481.39 1262.99 Q1483.84 1262.99 1486.13 1262.39 Q1488.45 1261.79 1490.72 1260.58 L1490.72 1264.61 Q1488.42 1265.58 1486.02 1266.09 Q1483.61 1266.6 1481.13 1266.6 Q1474.93 1266.6 1471.29 1262.99 Q1467.68 1259.38 1467.68 1253.22 Q1467.68 1246.86 1471.11 1243.13 Q1474.56 1239.38 1480.39 1239.38 Q1485.62 1239.38 1488.66 1242.76 Q1491.71 1246.12 1491.71 1251.9 M1487.45 1250.65 Q1487.41 1247.16 1485.48 1245.07 Q1483.59 1242.99 1480.44 1242.99 Q1476.87 1242.99 1474.72 1245 Q1472.59 1247.02 1472.27 1250.68 L1487.45 1250.65 Z" fill="#000000" fill-rule="evenodd" fill-opacity="1" /><path clip-path="url(#clip220)" d="M1496.23 1240 L1500.48 1240 L1505.81 1260.24 L1511.11 1240 L1516.13 1240 L1521.46 1260.24 L1526.76 1240 L1531.02 1240 L1524.23 1265.93 L1519.21 1265.93 L1513.63 1244.68 L1508.03 1265.93 L1503.01 1265.93 L1496.23 1240 Z" fill="#000000" fill-rule="evenodd" fill-opacity="1" /><path clip-path="url(#clip220)" d="M1541.69 1232.64 L1541.69 1240 L1550.46 1240 L1550.46 1243.31 L1541.69 1243.31 L1541.69 1257.39 Q1541.69 1260.56 1542.54 1261.46 Q1543.42 1262.36 1546.09 1262.36 L1550.46 1262.36 L1550.46 1265.93 L1546.09 1265.93 Q1541.16 1265.93 1539.28 1264.1 Q1537.41 1262.25 1537.41 1257.39 L1537.41 1243.31 L1534.28 1243.31 L1534.28 1240 L1537.41 1240 L1537.41 1232.64 L1541.69 1232.64 Z" fill="#000000" fill-rule="evenodd" fill-opacity="1" /><path clip-path="url(#clip220)" d="M1566.11 1242.99 Q1562.68 1242.99 1560.69 1245.68 Q1558.7 1248.34 1558.7 1252.99 Q1558.7 1257.64 1560.67 1260.33 Q1562.66 1262.99 1566.11 1262.99 Q1569.51 1262.99 1571.5 1260.3 Q1573.49 1257.62 1573.49 1252.99 Q1573.49 1248.38 1571.5 1245.7 Q1569.51 1242.99 1566.11 1242.99 M1566.11 1239.38 Q1571.66 1239.38 1574.84 1242.99 Q1578.01 1246.6 1578.01 1252.99 Q1578.01 1259.36 1574.84 1262.99 Q1571.66 1266.6 1566.11 1266.6 Q1560.53 1266.6 1557.36 1262.99 Q1554.21 1259.36 1554.21 1252.99 Q1554.21 1246.6 1557.36 1242.99 Q1560.53 1239.38 1566.11 1239.38 Z" fill="#000000" fill-rule="evenodd" fill-opacity="1" /><path clip-path="url(#clip220)" d="M1606.62 1250.28 L1606.62 1265.93 L1602.36 1265.93 L1602.36 1250.42 Q1602.36 1246.74 1600.92 1244.91 Q1599.49 1243.08 1596.62 1243.08 Q1593.17 1243.08 1591.18 1245.28 Q1589.19 1247.48 1589.19 1251.28 L1589.19 1265.93 L1584.91 1265.93 L1584.91 1240 L1589.19 1240 L1589.19 1244.03 Q1590.72 1241.69 1592.78 1240.54 Q1594.86 1239.38 1597.57 1239.38 Q1602.04 1239.38 1604.33 1242.16 Q1606.62 1244.91 1606.62 1250.28 Z" fill="#000000" fill-rule="evenodd" fill-opacity="1" /><path clip-path="url(#clip220)" d="M1641.92 1235.98 L1635.58 1253.18 L1648.28 1253.18 L1641.92 1235.98 M1639.28 1231.37 L1644.58 1231.37 L1657.75 1265.93 L1652.89 1265.93 L1649.74 1257.06 L1634.16 1257.06 L1631.02 1265.93 L1626.09 1265.93 L1639.28 1231.37 Z" fill="#000000" fill-rule="evenodd" fill-opacity="1" /><path clip-path="url(#clip220)" d="M1662.61 1229.91 L1666.87 1229.91 L1666.87 1265.93 L1662.61 1265.93 L1662.61 1229.91 Z" fill="#000000" fill-rule="evenodd" fill-opacity="1" /><path clip-path="url(#clip220)" d="M1692.84 1252.67 Q1692.84 1248.04 1690.92 1245.49 Q1689.03 1242.94 1685.58 1242.94 Q1682.15 1242.94 1680.23 1245.49 Q1678.33 1248.04 1678.33 1252.67 Q1678.33 1257.27 1680.23 1259.82 Q1682.15 1262.36 1685.58 1262.36 Q1689.03 1262.36 1690.92 1259.82 Q1692.84 1257.27 1692.84 1252.67 M1697.1 1262.71 Q1697.1 1269.33 1694.16 1272.55 Q1691.22 1275.79 1685.16 1275.79 Q1682.91 1275.79 1680.92 1275.44 Q1678.93 1275.12 1677.06 1274.43 L1677.06 1270.28 Q1678.93 1271.3 1680.76 1271.79 Q1682.59 1272.27 1684.49 1272.27 Q1688.68 1272.27 1690.76 1270.07 Q1692.84 1267.9 1692.84 1263.48 L1692.84 1261.37 Q1691.53 1263.66 1689.47 1264.8 Q1687.4 1265.93 1684.53 1265.93 Q1679.77 1265.93 1676.85 1262.3 Q1673.93 1258.66 1673.93 1252.67 Q1673.93 1246.65 1676.85 1243.01 Q1679.77 1239.38 1684.53 1239.38 Q1687.4 1239.38 1689.47 1240.51 Q1691.53 1241.65 1692.84 1243.94 L1692.84 1240 L1697.1 1240 L1697.1 1262.71 Z" fill="#000000" fill-rule="evenodd" fill-opacity="1" /><path clip-path="url(#clip220)" d="M1715.92 1242.99 Q1712.5 1242.99 1710.51 1245.68 Q1708.52 1248.34 1708.52 1252.99 Q1708.52 1257.64 1710.48 1260.33 Q1712.47 1262.99 1715.92 1262.99 Q1719.33 1262.99 1721.32 1260.3 Q1723.31 1257.62 1723.31 1252.99 Q1723.31 1248.38 1721.32 1245.7 Q1719.33 1242.99 1715.92 1242.99 M1715.92 1239.38 Q1721.48 1239.38 1724.65 1242.99 Q1727.82 1246.6 1727.82 1252.99 Q1727.82 1259.36 1724.65 1262.99 Q1721.48 1266.6 1715.92 1266.6 Q1710.34 1266.6 1707.17 1262.99 Q1704.03 1259.36 1704.03 1252.99 Q1704.03 1246.6 1707.17 1242.99 Q1710.34 1239.38 1715.92 1239.38 Z" fill="#000000" fill-rule="evenodd" fill-opacity="1" /><path clip-path="url(#clip220)" d="M1749.9 1243.99 Q1749.19 1243.57 1748.33 1243.38 Q1747.5 1243.18 1746.48 1243.18 Q1742.87 1243.18 1740.92 1245.54 Q1739 1247.87 1739 1252.27 L1739 1265.93 L1734.72 1265.93 L1734.72 1240 L1739 1240 L1739 1244.03 Q1740.34 1241.67 1742.5 1240.54 Q1744.65 1239.38 1747.73 1239.38 Q1748.17 1239.38 1748.7 1239.45 Q1749.23 1239.49 1749.88 1239.61 L1749.9 1243.99 Z" fill="#000000" fill-rule="evenodd" fill-opacity="1" /><path clip-path="url(#clip220)" d="M1754.37 1240 L1758.63 1240 L1758.63 1265.93 L1754.37 1265.93 L1754.37 1240 M1754.37 1229.91 L1758.63 1229.91 L1758.63 1235.3 L1754.37 1235.3 L1754.37 1229.91 Z" fill="#000000" fill-rule="evenodd" fill-opacity="1" /><path clip-path="url(#clip220)" d="M1771.76 1232.64 L1771.76 1240 L1780.53 1240 L1780.53 1243.31 L1771.76 1243.31 L1771.76 1257.39 Q1771.76 1260.56 1772.61 1261.46 Q1773.49 1262.36 1776.15 1262.36 L1780.53 1262.36 L1780.53 1265.93 L1776.15 1265.93 Q1771.22 1265.93 1769.35 1264.1 Q1767.47 1262.25 1767.47 1257.39 L1767.47 1243.31 L1764.35 1243.31 L1764.35 1240 L1767.47 1240 L1767.47 1232.64 L1771.76 1232.64 Z" fill="#000000" fill-rule="evenodd" fill-opacity="1" /><path clip-path="url(#clip220)" d="M1807.68 1250.28 L1807.68 1265.93 L1803.42 1265.93 L1803.42 1250.42 Q1803.42 1246.74 1801.99 1244.91 Q1800.55 1243.08 1797.68 1243.08 Q1794.23 1243.08 1792.24 1245.28 Q1790.25 1247.48 1790.25 1251.28 L1790.25 1265.93 L1785.97 1265.93 L1785.97 1229.91 L1790.25 1229.91 L1790.25 1244.03 Q1791.78 1241.69 1793.84 1240.54 Q1795.92 1239.38 1798.63 1239.38 Q1803.1 1239.38 1805.39 1242.16 Q1807.68 1244.91 1807.68 1250.28 Z" fill="#000000" fill-rule="evenodd" fill-opacity="1" /><path clip-path="url(#clip220)" d="M1836.36 1244.98 Q1837.96 1242.11 1840.18 1240.74 Q1842.4 1239.38 1845.41 1239.38 Q1849.46 1239.38 1851.66 1242.23 Q1853.86 1245.05 1853.86 1250.28 L1853.86 1265.93 L1849.58 1265.93 L1849.58 1250.42 Q1849.58 1246.69 1848.26 1244.89 Q1846.94 1243.08 1844.23 1243.08 Q1840.92 1243.08 1839 1245.28 Q1837.08 1247.48 1837.08 1251.28 L1837.08 1265.93 L1832.8 1265.93 L1832.8 1250.42 Q1832.8 1246.67 1831.48 1244.89 Q1830.16 1243.08 1827.4 1243.08 Q1824.14 1243.08 1822.22 1245.3 Q1820.3 1247.5 1820.3 1251.28 L1820.3 1265.93 L1816.02 1265.93 L1816.02 1240 L1820.3 1240 L1820.3 1244.03 Q1821.76 1241.65 1823.79 1240.51 Q1825.83 1239.38 1828.63 1239.38 Q1831.46 1239.38 1833.42 1240.81 Q1835.41 1242.25 1836.36 1244.98 Z" fill="#000000" fill-rule="evenodd" fill-opacity="1" /><polyline clip-path="url(#clip220)" style="stroke:#800080; stroke-linecap:butt; stroke-linejoin:round; stroke-width:4; stroke-opacity:1; fill:none" points="
  1266.15,1300.49 1410.24,1300.49 
  "/>
<path clip-path="url(#clip220)" d="M1459.48 1290.44 Q1459.48 1291.96 1459.18 1293.88 Q1458.88 1295.78 1458.22 1298.01 Q1457.56 1300.21 1456.63 1302.39 Q1455.69 1304.54 1454.31 1306.56 Q1452.95 1308.55 1451.33 1310.07 Q1449.72 1311.59 1447.59 1312.51 Q1445.45 1313.42 1443.09 1313.42 Q1441.17 1313.42 1439.6 1312.81 Q1438.03 1312.2 1437.07 1311.29 Q1436.11 1310.35 1435.43 1309.18 Q1434.77 1308.01 1434.52 1306.93 Q1434.26 1305.85 1434.26 1304.89 Q1434.26 1304.12 1434.38 1303.23 Q1434.52 1302.34 1434.89 1300.93 Q1435.29 1299.51 1436.23 1297.94 Q1437.19 1296.34 1438.57 1294.96 Q1441.17 1292.36 1443.51 1291.4 Q1445.85 1290.44 1448.36 1290.44 Q1451.01 1290.44 1452.57 1292.06 Q1454.17 1293.67 1454.54 1296.11 Q1455.9 1291.1 1455.9 1287.91 Q1455.9 1285.69 1455.31 1283.98 Q1454.75 1282.24 1453.77 1281.24 Q1452.81 1280.23 1451.59 1279.74 Q1450.4 1279.22 1449.04 1279.22 Q1448.34 1279.22 1447.63 1279.34 Q1446.93 1279.46 1445.9 1279.81 Q1444.87 1280.14 1443.86 1280.98 Q1442.88 1281.82 1442.13 1283.06 Q1442.57 1283.06 1442.83 1283.11 Q1443.09 1283.13 1443.51 1283.27 Q1443.93 1283.39 1444.14 1283.77 Q1444.38 1284.14 1444.38 1284.73 Q1444.38 1285.64 1443.63 1286.46 Q1442.9 1287.28 1441.78 1287.28 Q1440.82 1287.28 1440.39 1286.76 Q1439.97 1286.25 1439.97 1285.59 Q1439.97 1285.12 1440.23 1284.3 Q1440.51 1283.46 1441.19 1282.36 Q1441.89 1281.26 1442.88 1280.32 Q1443.88 1279.36 1445.52 1278.71 Q1447.16 1278.03 1449.13 1278.03 Q1453.65 1278.03 1456.56 1281.42 Q1459.48 1284.82 1459.48 1290.44 M1453.68 1297.82 Q1453.68 1297.49 1453.65 1297.16 Q1453.65 1296.84 1453.53 1296.16 Q1453.42 1295.48 1453.23 1294.91 Q1453.04 1294.35 1452.64 1293.7 Q1452.25 1293.02 1451.71 1292.57 Q1451.17 1292.1 1450.3 1291.8 Q1449.44 1291.5 1448.36 1291.5 Q1444.12 1291.5 1441.12 1295.76 Q1439.83 1297.66 1438.9 1301.45 Q1437.96 1305.22 1437.96 1306.65 Q1437.96 1306.93 1437.98 1307.24 Q1438.03 1307.54 1438.15 1308.27 Q1438.26 1308.97 1438.61 1309.55 Q1438.97 1310.14 1439.5 1310.77 Q1440.04 1311.38 1441 1311.73 Q1441.99 1312.08 1443.23 1312.08 Q1445.31 1312.08 1447.12 1310.94 Q1448.94 1309.76 1450.09 1308.05 Q1451.26 1306.35 1452.11 1304.33 Q1452.95 1302.32 1453.3 1300.63 Q1453.68 1298.94 1453.68 1297.82 Z" fill="#000000" fill-rule="evenodd" fill-opacity="1" /><path clip-path="url(#clip220)" d="M1485.88 1281.85 Q1485.88 1283.13 1485.06 1283.93 Q1484.26 1284.73 1483.26 1284.73 Q1482.53 1284.73 1481.99 1284.28 Q1481.48 1283.84 1481.48 1283.06 Q1481.48 1282.27 1482.09 1281.42 Q1482.69 1280.58 1484.08 1280.46 Q1483.16 1279.6 1481.71 1279.6 Q1480.98 1279.6 1480.38 1280.07 Q1479.79 1280.51 1479.46 1281.24 Q1479.11 1281.99 1478.31 1286.23 Q1478.06 1287.61 1477.82 1288.94 Q1477.59 1290.28 1477.31 1291.68 L1481.29 1291.68 Q1481.8 1291.68 1482.01 1291.71 Q1482.23 1291.73 1482.39 1291.85 Q1482.58 1291.96 1482.58 1292.22 Q1482.58 1292.88 1482.27 1293.04 Q1481.99 1293.18 1481.15 1293.18 L1477.03 1293.18 L1474.15 1308.38 Q1474.07 1308.83 1473.77 1310.23 Q1473.49 1311.62 1472.81 1313.89 Q1472.13 1316.18 1471.45 1317.54 Q1471.08 1318.31 1470.58 1319.04 Q1470.12 1319.79 1469.44 1320.54 Q1468.76 1321.29 1467.87 1321.73 Q1466.98 1322.2 1466.04 1322.2 Q1464.45 1322.2 1463.21 1321.31 Q1461.97 1320.42 1461.97 1318.9 Q1461.97 1317.61 1462.76 1316.81 Q1463.58 1316.02 1464.59 1316.02 Q1465.31 1316.02 1465.83 1316.46 Q1466.37 1316.91 1466.37 1317.68 Q1466.37 1318.01 1466.25 1318.38 Q1466.13 1318.76 1465.88 1319.18 Q1465.62 1319.63 1465.06 1319.93 Q1464.49 1320.23 1463.72 1320.28 Q1464.64 1321.15 1466.04 1321.15 Q1466.49 1321.15 1466.88 1320.96 Q1467.28 1320.8 1467.61 1320.38 Q1467.96 1319.95 1468.22 1319.53 Q1468.48 1319.13 1468.73 1318.36 Q1468.99 1317.61 1469.16 1317.05 Q1469.32 1316.49 1469.53 1315.48 Q1469.77 1314.47 1469.88 1313.86 Q1470 1313.28 1470.21 1312.13 L1473.79 1293.18 L1470.63 1293.18 Q1470.07 1293.18 1469.84 1293.16 Q1469.62 1293.13 1469.46 1293.02 Q1469.3 1292.88 1469.3 1292.6 Q1469.3 1292.15 1469.48 1291.96 Q1469.69 1291.75 1469.93 1291.73 Q1470.16 1291.68 1470.73 1291.68 L1474.05 1291.68 Q1475.18 1285.76 1475.62 1284.16 Q1476.14 1282.48 1476.93 1281.31 Q1477.73 1280.11 1478.62 1279.55 Q1479.51 1278.99 1480.23 1278.78 Q1480.98 1278.54 1481.71 1278.54 Q1483.35 1278.54 1484.61 1279.43 Q1485.88 1280.3 1485.88 1281.85 Z" fill="#000000" fill-rule="evenodd" fill-opacity="1" /><path clip-path="url(#clip220)" d="M1485.23 1323.68 Q1485.23 1323.44 1485.42 1322.93 L1502.35 1277.68 Q1502.35 1277.63 1502.47 1277.37 Q1502.58 1277.11 1502.65 1276.95 Q1502.72 1276.76 1502.87 1276.62 Q1503.03 1276.48 1503.22 1276.48 Q1503.69 1276.48 1503.69 1277.07 Q1503.69 1277.11 1503.54 1277.68 L1486.56 1322.98 Q1486.28 1323.79 1486.09 1324.03 Q1485.93 1324.26 1485.65 1324.26 Q1485.23 1324.26 1485.23 1323.68 Z" fill="#000000" fill-rule="evenodd" fill-opacity="1" /><path clip-path="url(#clip220)" d="M1534.2 1290.44 Q1534.2 1291.96 1533.9 1293.88 Q1533.6 1295.78 1532.94 1298.01 Q1532.28 1300.21 1531.35 1302.39 Q1530.41 1304.54 1529.03 1306.56 Q1527.67 1308.55 1526.05 1310.07 Q1524.44 1311.59 1522.31 1312.51 Q1520.17 1313.42 1517.81 1313.42 Q1515.89 1313.42 1514.32 1312.81 Q1512.75 1312.2 1511.79 1311.29 Q1510.83 1310.35 1510.15 1309.18 Q1509.49 1308.01 1509.24 1306.93 Q1508.98 1305.85 1508.98 1304.89 Q1508.98 1304.12 1509.1 1303.23 Q1509.24 1302.34 1509.61 1300.93 Q1510.01 1299.51 1510.95 1297.94 Q1511.91 1296.34 1513.29 1294.96 Q1515.89 1292.36 1518.23 1291.4 Q1520.57 1290.44 1523.08 1290.44 Q1525.73 1290.44 1527.29 1292.06 Q1528.89 1293.67 1529.26 1296.11 Q1530.62 1291.1 1530.62 1287.91 Q1530.62 1285.69 1530.04 1283.98 Q1529.47 1282.24 1528.49 1281.24 Q1527.53 1280.23 1526.31 1279.74 Q1525.12 1279.22 1523.76 1279.22 Q1523.06 1279.22 1522.35 1279.34 Q1521.65 1279.46 1520.62 1279.81 Q1519.59 1280.14 1518.58 1280.98 Q1517.6 1281.82 1516.85 1283.06 Q1517.29 1283.06 1517.55 1283.11 Q1517.81 1283.13 1518.23 1283.27 Q1518.65 1283.39 1518.86 1283.77 Q1519.1 1284.14 1519.1 1284.73 Q1519.1 1285.64 1518.35 1286.46 Q1517.62 1287.28 1516.5 1287.28 Q1515.54 1287.28 1515.11 1286.76 Q1514.69 1286.25 1514.69 1285.59 Q1514.69 1285.12 1514.95 1284.3 Q1515.23 1283.46 1515.91 1282.36 Q1516.61 1281.26 1517.6 1280.32 Q1518.6 1279.36 1520.24 1278.71 Q1521.88 1278.03 1523.85 1278.03 Q1528.37 1278.03 1531.28 1281.42 Q1534.2 1284.82 1534.2 1290.44 M1528.4 1297.82 Q1528.4 1297.49 1528.37 1297.16 Q1528.37 1296.84 1528.25 1296.16 Q1528.14 1295.48 1527.95 1294.91 Q1527.76 1294.35 1527.36 1293.7 Q1526.97 1293.02 1526.43 1292.57 Q1525.89 1292.1 1525.02 1291.8 Q1524.16 1291.5 1523.08 1291.5 Q1518.84 1291.5 1515.84 1295.76 Q1514.55 1297.66 1513.62 1301.45 Q1512.68 1305.22 1512.68 1306.65 Q1512.68 1306.93 1512.7 1307.24 Q1512.75 1307.54 1512.87 1308.27 Q1512.98 1308.97 1513.33 1309.55 Q1513.69 1310.14 1514.22 1310.77 Q1514.76 1311.38 1515.72 1311.73 Q1516.71 1312.08 1517.95 1312.08 Q1520.03 1312.08 1521.84 1310.94 Q1523.66 1309.76 1524.81 1308.05 Q1525.98 1306.35 1526.83 1304.33 Q1527.67 1302.32 1528.02 1300.63 Q1528.4 1298.94 1528.4 1297.82 Z" fill="#000000" fill-rule="evenodd" fill-opacity="1" /><path clip-path="url(#clip220)" d="M1559.62 1294.33 Q1559.62 1295.64 1558.8 1296.39 Q1557.98 1297.12 1557.04 1297.12 Q1556.15 1297.12 1555.68 1296.6 Q1555.21 1296.09 1555.21 1295.43 Q1555.21 1294.54 1555.87 1293.77 Q1556.52 1292.99 1557.51 1292.83 Q1556.55 1292.22 1555.12 1292.22 Q1554.18 1292.22 1553.36 1292.71 Q1552.57 1293.21 1552.07 1293.84 Q1551.61 1294.47 1551.18 1295.38 Q1550.79 1296.27 1550.62 1296.81 Q1550.48 1297.33 1550.36 1297.89 L1548.72 1304.45 Q1547.93 1307.56 1547.93 1308.66 Q1547.93 1310.02 1548.58 1310.94 Q1549.24 1311.83 1550.55 1311.83 Q1551.07 1311.83 1551.65 1311.69 Q1552.24 1311.52 1552.99 1311.1 Q1553.76 1310.65 1554.44 1310 Q1555.14 1309.32 1555.82 1308.17 Q1556.5 1307.02 1556.95 1305.55 Q1557.09 1305.03 1557.56 1305.03 Q1558.14 1305.03 1558.14 1305.5 Q1558.14 1305.9 1557.81 1306.74 Q1557.51 1307.56 1556.83 1308.64 Q1556.17 1309.69 1555.31 1310.65 Q1554.44 1311.59 1553.15 1312.25 Q1551.86 1312.9 1550.46 1312.9 Q1548.44 1312.9 1547.11 1311.83 Q1545.77 1310.75 1545.28 1309.25 Q1545.16 1309.46 1545 1309.74 Q1544.84 1310.02 1544.34 1310.65 Q1543.88 1311.26 1543.34 1311.73 Q1542.8 1312.18 1541.96 1312.53 Q1541.14 1312.9 1540.25 1312.9 Q1539.12 1312.9 1538.11 1312.58 Q1537.13 1312.25 1536.43 1311.5 Q1535.73 1310.75 1535.73 1309.72 Q1535.73 1308.57 1536.5 1307.77 Q1537.29 1306.95 1538.37 1306.95 Q1539.05 1306.95 1539.59 1307.35 Q1540.15 1307.75 1540.15 1308.62 Q1540.15 1309.58 1539.5 1310.3 Q1538.84 1311.03 1537.9 1311.22 Q1538.86 1311.83 1540.29 1311.83 Q1541.84 1311.83 1543.06 1310.47 Q1544.27 1309.11 1544.86 1306.84 Q1546.31 1301.38 1546.87 1298.94 Q1547.44 1296.48 1547.44 1295.43 Q1547.44 1294.45 1547.18 1293.77 Q1546.92 1293.09 1546.48 1292.78 Q1546.05 1292.46 1545.66 1292.34 Q1545.28 1292.22 1544.86 1292.22 Q1544.16 1292.22 1543.36 1292.5 Q1542.59 1292.78 1541.65 1293.44 Q1540.74 1294.07 1539.87 1295.38 Q1539 1296.7 1538.42 1298.5 Q1538.3 1299.04 1537.79 1299.04 Q1537.22 1299.01 1537.22 1298.55 Q1537.22 1298.15 1537.53 1297.33 Q1537.86 1296.48 1538.51 1295.43 Q1539.19 1294.38 1540.06 1293.44 Q1540.95 1292.48 1542.24 1291.82 Q1543.55 1291.17 1544.95 1291.17 Q1545.59 1291.17 1546.2 1291.31 Q1546.83 1291.43 1547.58 1291.78 Q1548.35 1292.13 1549.03 1292.9 Q1549.71 1293.67 1550.13 1294.8 Q1550.41 1294.26 1550.79 1293.74 Q1551.18 1293.23 1551.79 1292.6 Q1552.43 1291.94 1553.29 1291.57 Q1554.18 1291.17 1555.17 1291.17 Q1556.13 1291.17 1557.06 1291.43 Q1558 1291.66 1558.8 1292.43 Q1559.62 1293.18 1559.62 1294.33 Z" fill="#000000" fill-rule="evenodd" fill-opacity="1" /><polyline clip-path="url(#clip220)" style="stroke:#1e90ff; stroke-linecap:butt; stroke-linejoin:round; stroke-width:4; stroke-opacity:1; fill:none" points="
  1266.15,1352.33 1410.24,1352.33 
  "/>
<path clip-path="url(#clip220)" d="M1459.48 1342.28 Q1459.48 1343.8 1459.18 1345.72 Q1458.88 1347.62 1458.22 1349.85 Q1457.56 1352.05 1456.63 1354.23 Q1455.69 1356.38 1454.31 1358.4 Q1452.95 1360.39 1451.33 1361.91 Q1449.72 1363.43 1447.59 1364.35 Q1445.45 1365.26 1443.09 1365.26 Q1441.17 1365.26 1439.6 1364.65 Q1438.03 1364.04 1437.07 1363.13 Q1436.11 1362.19 1435.43 1361.02 Q1434.77 1359.85 1434.52 1358.77 Q1434.26 1357.69 1434.26 1356.73 Q1434.26 1355.96 1434.38 1355.07 Q1434.52 1354.18 1434.89 1352.77 Q1435.29 1351.35 1436.23 1349.78 Q1437.19 1348.18 1438.57 1346.8 Q1441.17 1344.2 1443.51 1343.24 Q1445.85 1342.28 1448.36 1342.28 Q1451.01 1342.28 1452.57 1343.9 Q1454.17 1345.51 1454.54 1347.95 Q1455.9 1342.94 1455.9 1339.75 Q1455.9 1337.53 1455.31 1335.82 Q1454.75 1334.08 1453.77 1333.08 Q1452.81 1332.07 1451.59 1331.58 Q1450.4 1331.06 1449.04 1331.06 Q1448.34 1331.06 1447.63 1331.18 Q1446.93 1331.3 1445.9 1331.65 Q1444.87 1331.98 1443.86 1332.82 Q1442.88 1333.66 1442.13 1334.9 Q1442.57 1334.9 1442.83 1334.95 Q1443.09 1334.97 1443.51 1335.11 Q1443.93 1335.23 1444.14 1335.61 Q1444.38 1335.98 1444.38 1336.57 Q1444.38 1337.48 1443.63 1338.3 Q1442.9 1339.12 1441.78 1339.12 Q1440.82 1339.12 1440.39 1338.6 Q1439.97 1338.09 1439.97 1337.43 Q1439.97 1336.96 1440.23 1336.14 Q1440.51 1335.3 1441.19 1334.2 Q1441.89 1333.1 1442.88 1332.16 Q1443.88 1331.2 1445.52 1330.55 Q1447.16 1329.87 1449.13 1329.87 Q1453.65 1329.87 1456.56 1333.26 Q1459.48 1336.66 1459.48 1342.28 M1453.68 1349.66 Q1453.68 1349.33 1453.65 1349 Q1453.65 1348.68 1453.53 1348 Q1453.42 1347.32 1453.23 1346.75 Q1453.04 1346.19 1452.64 1345.54 Q1452.25 1344.86 1451.71 1344.41 Q1451.17 1343.94 1450.3 1343.64 Q1449.44 1343.34 1448.36 1343.34 Q1444.12 1343.34 1441.12 1347.6 Q1439.83 1349.5 1438.9 1353.29 Q1437.96 1357.06 1437.96 1358.49 Q1437.96 1358.77 1437.98 1359.08 Q1438.03 1359.38 1438.15 1360.11 Q1438.26 1360.81 1438.61 1361.39 Q1438.97 1361.98 1439.5 1362.61 Q1440.04 1363.22 1441 1363.57 Q1441.99 1363.92 1443.23 1363.92 Q1445.31 1363.92 1447.12 1362.78 Q1448.94 1361.6 1450.09 1359.89 Q1451.26 1358.19 1452.11 1356.17 Q1452.95 1354.16 1453.3 1352.47 Q1453.68 1350.78 1453.68 1349.66 Z" fill="#000000" fill-rule="evenodd" fill-opacity="1" /><path clip-path="url(#clip220)" d="M1485.88 1333.69 Q1485.88 1334.97 1485.06 1335.77 Q1484.26 1336.57 1483.26 1336.57 Q1482.53 1336.57 1481.99 1336.12 Q1481.48 1335.68 1481.48 1334.9 Q1481.48 1334.11 1482.09 1333.26 Q1482.69 1332.42 1484.08 1332.3 Q1483.16 1331.44 1481.71 1331.44 Q1480.98 1331.44 1480.38 1331.91 Q1479.79 1332.35 1479.46 1333.08 Q1479.11 1333.83 1478.31 1338.07 Q1478.06 1339.45 1477.82 1340.78 Q1477.59 1342.12 1477.31 1343.52 L1481.29 1343.52 Q1481.8 1343.52 1482.01 1343.55 Q1482.23 1343.57 1482.39 1343.69 Q1482.58 1343.8 1482.58 1344.06 Q1482.58 1344.72 1482.27 1344.88 Q1481.99 1345.02 1481.15 1345.02 L1477.03 1345.02 L1474.15 1360.22 Q1474.07 1360.67 1473.77 1362.07 Q1473.49 1363.46 1472.81 1365.73 Q1472.13 1368.02 1471.45 1369.38 Q1471.08 1370.15 1470.58 1370.88 Q1470.12 1371.63 1469.44 1372.38 Q1468.76 1373.13 1467.87 1373.57 Q1466.98 1374.04 1466.04 1374.04 Q1464.45 1374.04 1463.21 1373.15 Q1461.97 1372.26 1461.97 1370.74 Q1461.97 1369.45 1462.76 1368.65 Q1463.58 1367.86 1464.59 1367.86 Q1465.31 1367.86 1465.83 1368.3 Q1466.37 1368.75 1466.37 1369.52 Q1466.37 1369.85 1466.25 1370.22 Q1466.13 1370.6 1465.88 1371.02 Q1465.62 1371.47 1465.06 1371.77 Q1464.49 1372.07 1463.72 1372.12 Q1464.64 1372.99 1466.04 1372.99 Q1466.49 1372.99 1466.88 1372.8 Q1467.28 1372.64 1467.61 1372.22 Q1467.96 1371.79 1468.22 1371.37 Q1468.48 1370.97 1468.73 1370.2 Q1468.99 1369.45 1469.16 1368.89 Q1469.32 1368.33 1469.53 1367.32 Q1469.77 1366.31 1469.88 1365.7 Q1470 1365.12 1470.21 1363.97 L1473.79 1345.02 L1470.63 1345.02 Q1470.07 1345.02 1469.84 1345 Q1469.62 1344.97 1469.46 1344.86 Q1469.3 1344.72 1469.3 1344.44 Q1469.3 1343.99 1469.48 1343.8 Q1469.69 1343.59 1469.93 1343.57 Q1470.16 1343.52 1470.73 1343.52 L1474.05 1343.52 Q1475.18 1337.6 1475.62 1336 Q1476.14 1334.32 1476.93 1333.15 Q1477.73 1331.95 1478.62 1331.39 Q1479.51 1330.83 1480.23 1330.62 Q1480.98 1330.38 1481.71 1330.38 Q1483.35 1330.38 1484.61 1331.27 Q1485.88 1332.14 1485.88 1333.69 Z" fill="#000000" fill-rule="evenodd" fill-opacity="1" /><path clip-path="url(#clip220)" d="M1485.23 1375.52 Q1485.23 1375.28 1485.42 1374.77 L1502.35 1329.52 Q1502.35 1329.47 1502.47 1329.21 Q1502.58 1328.95 1502.65 1328.79 Q1502.72 1328.6 1502.87 1328.46 Q1503.03 1328.32 1503.22 1328.32 Q1503.69 1328.32 1503.69 1328.91 Q1503.69 1328.95 1503.54 1329.52 L1486.56 1374.82 Q1486.28 1375.63 1486.09 1375.87 Q1485.93 1376.1 1485.65 1376.1 Q1485.23 1376.1 1485.23 1375.52 Z" fill="#000000" fill-rule="evenodd" fill-opacity="1" /><path clip-path="url(#clip220)" d="M1534.2 1342.28 Q1534.2 1343.8 1533.9 1345.72 Q1533.6 1347.62 1532.94 1349.85 Q1532.28 1352.05 1531.35 1354.23 Q1530.41 1356.38 1529.03 1358.4 Q1527.67 1360.39 1526.05 1361.91 Q1524.44 1363.43 1522.31 1364.35 Q1520.17 1365.26 1517.81 1365.26 Q1515.89 1365.26 1514.32 1364.65 Q1512.75 1364.04 1511.79 1363.13 Q1510.83 1362.19 1510.15 1361.02 Q1509.49 1359.85 1509.24 1358.77 Q1508.98 1357.69 1508.98 1356.73 Q1508.98 1355.96 1509.1 1355.07 Q1509.24 1354.18 1509.61 1352.77 Q1510.01 1351.35 1510.95 1349.78 Q1511.91 1348.18 1513.29 1346.8 Q1515.89 1344.2 1518.23 1343.24 Q1520.57 1342.28 1523.08 1342.28 Q1525.73 1342.28 1527.29 1343.9 Q1528.89 1345.51 1529.26 1347.95 Q1530.62 1342.94 1530.62 1339.75 Q1530.62 1337.53 1530.04 1335.82 Q1529.47 1334.08 1528.49 1333.08 Q1527.53 1332.07 1526.31 1331.58 Q1525.12 1331.06 1523.76 1331.06 Q1523.06 1331.06 1522.35 1331.18 Q1521.65 1331.3 1520.62 1331.65 Q1519.59 1331.98 1518.58 1332.82 Q1517.6 1333.66 1516.85 1334.9 Q1517.29 1334.9 1517.55 1334.95 Q1517.81 1334.97 1518.23 1335.11 Q1518.65 1335.23 1518.86 1335.61 Q1519.1 1335.98 1519.1 1336.57 Q1519.1 1337.48 1518.35 1338.3 Q1517.62 1339.12 1516.5 1339.12 Q1515.54 1339.12 1515.11 1338.6 Q1514.69 1338.09 1514.69 1337.43 Q1514.69 1336.96 1514.95 1336.14 Q1515.23 1335.3 1515.91 1334.2 Q1516.61 1333.1 1517.6 1332.16 Q1518.6 1331.2 1520.24 1330.55 Q1521.88 1329.87 1523.85 1329.87 Q1528.37 1329.87 1531.28 1333.26 Q1534.2 1336.66 1534.2 1342.28 M1528.4 1349.66 Q1528.4 1349.33 1528.37 1349 Q1528.37 1348.68 1528.25 1348 Q1528.14 1347.32 1527.95 1346.75 Q1527.76 1346.19 1527.36 1345.54 Q1526.97 1344.86 1526.43 1344.41 Q1525.89 1343.94 1525.02 1343.64 Q1524.16 1343.34 1523.08 1343.34 Q1518.84 1343.34 1515.84 1347.6 Q1514.55 1349.5 1513.62 1353.29 Q1512.68 1357.06 1512.68 1358.49 Q1512.68 1358.77 1512.7 1359.08 Q1512.75 1359.38 1512.87 1360.11 Q1512.98 1360.81 1513.33 1361.39 Q1513.69 1361.98 1514.22 1362.61 Q1514.76 1363.22 1515.72 1363.57 Q1516.71 1363.92 1517.95 1363.92 Q1520.03 1363.92 1521.84 1362.78 Q1523.66 1361.6 1524.81 1359.89 Q1525.98 1358.19 1526.83 1356.17 Q1527.67 1354.16 1528.02 1352.47 Q1528.4 1350.78 1528.4 1349.66 Z" fill="#000000" fill-rule="evenodd" fill-opacity="1" /><path clip-path="url(#clip220)" d="M1558.05 1344.83 Q1558.05 1345.16 1557.84 1345.94 L1553.25 1364.25 Q1552.24 1368.33 1548.96 1371.18 Q1545.71 1374.04 1542.01 1374.04 Q1539.78 1374.04 1538.35 1372.85 Q1536.92 1371.68 1536.92 1369.87 Q1536.92 1368.28 1537.77 1367.51 Q1538.61 1366.76 1539.62 1366.76 Q1539.95 1366.76 1540.3 1366.85 Q1540.65 1366.95 1541.02 1367.34 Q1541.4 1367.74 1541.4 1368.42 Q1541.4 1369.52 1540.44 1370.39 Q1539.97 1370.79 1539.52 1370.88 Q1539.1 1370.97 1538.38 1370.97 Q1538.66 1371.63 1539.17 1372.07 Q1539.69 1372.52 1540.27 1372.68 Q1540.86 1372.87 1541.23 1372.92 Q1541.63 1372.99 1542.01 1372.99 Q1545.01 1372.99 1547.3 1369.97 Q1547.98 1369.05 1548.47 1368.14 Q1548.99 1367.25 1549.36 1366.15 Q1549.74 1365.07 1549.9 1364.49 Q1550.09 1363.9 1550.42 1362.57 Q1548.24 1364.74 1545.57 1364.74 Q1544.44 1364.74 1543.44 1364.44 Q1542.45 1364.13 1541.59 1363.5 Q1540.72 1362.85 1540.2 1361.7 Q1539.71 1360.55 1539.71 1359.03 Q1539.71 1357.41 1540.34 1355.21 Q1540.98 1353.01 1542.5 1348.96 Q1543.32 1346.68 1543.32 1345.58 Q1543.32 1345.05 1543.2 1344.72 Q1543.08 1344.37 1542.85 1344.25 Q1542.62 1344.11 1542.48 1344.08 Q1542.36 1344.06 1542.12 1344.06 Q1540.74 1344.06 1539.45 1345.47 Q1538.17 1346.87 1537.28 1350.01 Q1537.09 1350.6 1536.97 1350.74 Q1536.85 1350.88 1536.5 1350.88 Q1535.92 1350.85 1535.92 1350.39 Q1535.92 1350.2 1536.13 1349.47 Q1536.34 1348.72 1536.83 1347.62 Q1537.35 1346.5 1538.05 1345.49 Q1538.75 1344.46 1539.85 1343.73 Q1540.98 1343.01 1542.26 1343.01 Q1544.02 1343.01 1545.1 1344.16 Q1546.2 1345.28 1546.2 1346.94 Q1546.2 1347.62 1546.01 1348.23 Q1545.85 1348.82 1545.24 1350.39 Q1542.78 1356.71 1542.78 1359.8 Q1542.78 1360.55 1542.9 1361.18 Q1543.04 1361.79 1543.34 1362.4 Q1543.65 1362.99 1544.26 1363.34 Q1544.89 1363.67 1545.75 1363.67 Q1546.86 1363.67 1547.89 1363.15 Q1548.94 1362.61 1549.6 1361.89 Q1550.28 1361.16 1550.67 1360.55 Q1551.1 1359.92 1551.19 1359.59 L1553.34 1350.97 L1554.3 1347.13 Q1554.75 1345.05 1554.96 1344.53 Q1555.24 1344.04 1555.73 1343.78 Q1556.22 1343.52 1556.65 1343.52 Q1557.23 1343.52 1557.63 1343.87 Q1558.05 1344.23 1558.05 1344.83 Z" fill="#000000" fill-rule="evenodd" fill-opacity="1" /></svg>
