<?xml version="1.0" encoding="utf-8"?>
<svg xmlns="http://www.w3.org/2000/svg" xmlns:xlink="http://www.w3.org/1999/xlink" width="600" height="400" viewBox="0 0 2400 1600">
<defs>
  <clipPath id="clip500">
    <rect x="0" y="0" width="2400" height="1600"/>
  </clipPath>
</defs>
<path clip-path="url(#clip500)" d="
M0 1600 L2400 1600 L2400 0 L0 0  Z
  " fill="#ffffff" fill-rule="evenodd" fill-opacity="1"/>
<defs>
  <clipPath id="clip501">
    <rect x="480" y="0" width="1681" height="1600"/>
  </clipPath>
</defs>
<defs>
  <clipPath id="clip502">
    <rect x="593" y="47" width="1405" height="1405"/>
  </clipPath>
</defs>
<path clip-path="url(#clip500)" d="
M593.45 1450.96 L1997.17 1450.96 L1997.17 47.2441 L593.45 47.2441  Z
  " fill="#ffffff" fill-rule="evenodd" fill-opacity="1"/>
<polyline clip-path="url(#clip502)" style="stroke:#000000; stroke-linecap:butt; stroke-linejoin:round; stroke-width:2; stroke-opacity:0.1; fill:none" points="
  593.45,1450.96 593.45,47.2441 
  "/>
<polyline clip-path="url(#clip502)" style="stroke:#000000; stroke-linecap:butt; stroke-linejoin:round; stroke-width:2; stroke-opacity:0.1; fill:none" points="
  944.379,1450.96 944.379,47.2441 
  "/>
<polyline clip-path="url(#clip502)" style="stroke:#000000; stroke-linecap:butt; stroke-linejoin:round; stroke-width:2; stroke-opacity:0.1; fill:none" points="
  1295.31,1450.96 1295.31,47.2441 
  "/>
<polyline clip-path="url(#clip502)" style="stroke:#000000; stroke-linecap:butt; stroke-linejoin:round; stroke-width:2; stroke-opacity:0.1; fill:none" points="
  1646.24,1450.96 1646.24,47.2441 
  "/>
<polyline clip-path="url(#clip502)" style="stroke:#000000; stroke-linecap:butt; stroke-linejoin:round; stroke-width:2; stroke-opacity:0.1; fill:none" points="
  1997.17,1450.96 1997.17,47.2441 
  "/>
<polyline clip-path="url(#clip500)" style="stroke:#000000; stroke-linecap:butt; stroke-linejoin:round; stroke-width:4; stroke-opacity:1; fill:none" points="
  593.45,1450.96 1997.17,1450.96 
  "/>
<polyline clip-path="url(#clip500)" style="stroke:#000000; stroke-linecap:butt; stroke-linejoin:round; stroke-width:4; stroke-opacity:1; fill:none" points="
  593.45,1450.96 593.45,1432.06 
  "/>
<polyline clip-path="url(#clip500)" style="stroke:#000000; stroke-linecap:butt; stroke-linejoin:round; stroke-width:4; stroke-opacity:1; fill:none" points="
  944.379,1450.96 944.379,1432.06 
  "/>
<polyline clip-path="url(#clip500)" style="stroke:#000000; stroke-linecap:butt; stroke-linejoin:round; stroke-width:4; stroke-opacity:1; fill:none" points="
  1295.31,1450.96 1295.31,1432.06 
  "/>
<polyline clip-path="url(#clip500)" style="stroke:#000000; stroke-linecap:butt; stroke-linejoin:round; stroke-width:4; stroke-opacity:1; fill:none" points="
  1646.24,1450.96 1646.24,1432.06 
  "/>
<polyline clip-path="url(#clip500)" style="stroke:#000000; stroke-linecap:butt; stroke-linejoin:round; stroke-width:4; stroke-opacity:1; fill:none" points="
  1997.17,1450.96 1997.17,1432.06 
  "/>
<path clip-path="url(#clip500)" d="M539.978 1496.53 L569.654 1496.53 L569.654 1500.47 L539.978 1500.47 L539.978 1496.53 Z" fill="#000000" fill-rule="evenodd" fill-opacity="1" /><path clip-path="url(#clip500)" d="M579.793 1478.8 L598.149 1478.8 L598.149 1482.74 L584.075 1482.74 L584.075 1491.21 Q585.094 1490.86 586.113 1490.7 Q587.131 1490.51 588.15 1490.51 Q593.937 1490.51 597.316 1493.68 Q600.696 1496.86 600.696 1502.27 Q600.696 1507.85 597.224 1510.95 Q593.751 1514.03 587.432 1514.03 Q585.256 1514.03 582.988 1513.66 Q580.742 1513.29 578.335 1512.55 L578.335 1507.85 Q580.418 1508.99 582.64 1509.54 Q584.863 1510.1 587.339 1510.1 Q591.344 1510.1 593.682 1507.99 Q596.02 1505.88 596.02 1502.27 Q596.02 1498.66 593.682 1496.55 Q591.344 1494.45 587.339 1494.45 Q585.464 1494.45 583.589 1494.86 Q581.738 1495.28 579.793 1496.16 L579.793 1478.8 Z" fill="#000000" fill-rule="evenodd" fill-opacity="1" /><path clip-path="url(#clip500)" d="M609.909 1507.48 L614.793 1507.48 L614.793 1513.36 L609.909 1513.36 L609.909 1507.48 Z" fill="#000000" fill-rule="evenodd" fill-opacity="1" /><path clip-path="url(#clip500)" d="M634.978 1481.88 Q631.367 1481.88 629.538 1485.44 Q627.733 1488.99 627.733 1496.11 Q627.733 1503.22 629.538 1506.79 Q631.367 1510.33 634.978 1510.33 Q638.612 1510.33 640.418 1506.79 Q642.246 1503.22 642.246 1496.11 Q642.246 1488.99 640.418 1485.44 Q638.612 1481.88 634.978 1481.88 M634.978 1478.18 Q640.788 1478.18 643.844 1482.78 Q646.922 1487.37 646.922 1496.11 Q646.922 1504.84 643.844 1509.45 Q640.788 1514.03 634.978 1514.03 Q629.168 1514.03 626.089 1509.45 Q623.034 1504.84 623.034 1496.11 Q623.034 1487.37 626.089 1482.78 Q629.168 1478.18 634.978 1478.18 Z" fill="#000000" fill-rule="evenodd" fill-opacity="1" /><path clip-path="url(#clip500)" d="M891.405 1496.53 L921.081 1496.53 L921.081 1500.47 L891.405 1500.47 L891.405 1496.53 Z" fill="#000000" fill-rule="evenodd" fill-opacity="1" /><path clip-path="url(#clip500)" d="M935.201 1509.43 L951.521 1509.43 L951.521 1513.36 L929.576 1513.36 L929.576 1509.43 Q932.238 1506.67 936.822 1502.04 Q941.428 1497.39 942.609 1496.05 Q944.854 1493.52 945.734 1491.79 Q946.636 1490.03 946.636 1488.34 Q946.636 1485.58 944.692 1483.85 Q942.771 1482.11 939.669 1482.11 Q937.47 1482.11 935.016 1482.87 Q932.586 1483.64 929.808 1485.19 L929.808 1480.47 Q932.632 1479.33 935.086 1478.75 Q937.539 1478.18 939.576 1478.18 Q944.947 1478.18 948.141 1480.86 Q951.335 1483.55 951.335 1488.04 Q951.335 1490.17 950.525 1492.09 Q949.738 1493.99 947.632 1496.58 Q947.053 1497.25 943.951 1500.47 Q940.849 1503.66 935.201 1509.43 Z" fill="#000000" fill-rule="evenodd" fill-opacity="1" /><path clip-path="url(#clip500)" d="M961.335 1507.48 L966.22 1507.48 L966.22 1513.36 L961.335 1513.36 L961.335 1507.48 Z" fill="#000000" fill-rule="evenodd" fill-opacity="1" /><path clip-path="url(#clip500)" d="M976.451 1478.8 L994.807 1478.8 L994.807 1482.74 L980.733 1482.74 L980.733 1491.21 Q981.752 1490.86 982.77 1490.7 Q983.789 1490.51 984.807 1490.51 Q990.594 1490.51 993.974 1493.68 Q997.354 1496.86 997.354 1502.27 Q997.354 1507.85 993.882 1510.95 Q990.409 1514.03 984.09 1514.03 Q981.914 1514.03 979.645 1513.66 Q977.4 1513.29 974.993 1512.55 L974.993 1507.85 Q977.076 1508.99 979.298 1509.54 Q981.52 1510.1 983.997 1510.1 Q988.002 1510.1 990.34 1507.99 Q992.678 1505.88 992.678 1502.27 Q992.678 1498.66 990.34 1496.55 Q988.002 1494.45 983.997 1494.45 Q982.122 1494.45 980.247 1494.86 Q978.395 1495.28 976.451 1496.16 L976.451 1478.8 Z" fill="#000000" fill-rule="evenodd" fill-opacity="1" /><path clip-path="url(#clip500)" d="M1272.69 1481.88 Q1269.08 1481.88 1267.25 1485.44 Q1265.45 1488.99 1265.45 1496.11 Q1265.45 1503.22 1267.25 1506.79 Q1269.08 1510.33 1272.69 1510.33 Q1276.33 1510.33 1278.13 1506.79 Q1279.96 1503.22 1279.96 1496.11 Q1279.96 1488.99 1278.13 1485.44 Q1276.33 1481.88 1272.69 1481.88 M1272.69 1478.18 Q1278.5 1478.18 1281.56 1482.78 Q1284.64 1487.37 1284.64 1496.11 Q1284.64 1504.84 1281.56 1509.45 Q1278.5 1514.03 1272.69 1514.03 Q1266.88 1514.03 1263.8 1509.45 Q1260.75 1504.84 1260.75 1496.11 Q1260.75 1487.37 1263.8 1482.78 Q1266.88 1478.18 1272.69 1478.18 Z" fill="#000000" fill-rule="evenodd" fill-opacity="1" /><path clip-path="url(#clip500)" d="M1292.85 1507.48 L1297.74 1507.48 L1297.74 1513.36 L1292.85 1513.36 L1292.85 1507.48 Z" fill="#000000" fill-rule="evenodd" fill-opacity="1" /><path clip-path="url(#clip500)" d="M1317.92 1481.88 Q1314.31 1481.88 1312.48 1485.44 Q1310.68 1488.99 1310.68 1496.11 Q1310.68 1503.22 1312.48 1506.79 Q1314.31 1510.33 1317.92 1510.33 Q1321.56 1510.33 1323.36 1506.79 Q1325.19 1503.22 1325.19 1496.11 Q1325.19 1488.99 1323.36 1485.44 Q1321.56 1481.88 1317.92 1481.88 M1317.92 1478.18 Q1323.73 1478.18 1326.79 1482.78 Q1329.87 1487.37 1329.87 1496.11 Q1329.87 1504.84 1326.79 1509.45 Q1323.73 1514.03 1317.92 1514.03 Q1312.11 1514.03 1309.04 1509.45 Q1305.98 1504.84 1305.98 1496.11 Q1305.98 1487.37 1309.04 1482.78 Q1312.11 1478.18 1317.92 1478.18 Z" fill="#000000" fill-rule="evenodd" fill-opacity="1" /><path clip-path="url(#clip500)" d="M1617.97 1509.43 L1634.29 1509.43 L1634.29 1513.36 L1612.35 1513.36 L1612.35 1509.43 Q1615.01 1506.67 1619.59 1502.04 Q1624.2 1497.39 1625.38 1496.05 Q1627.63 1493.52 1628.51 1491.79 Q1629.41 1490.03 1629.41 1488.34 Q1629.41 1485.58 1627.46 1483.85 Q1625.54 1482.11 1622.44 1482.11 Q1620.24 1482.11 1617.79 1482.87 Q1615.36 1483.64 1612.58 1485.19 L1612.58 1480.47 Q1615.4 1479.33 1617.86 1478.75 Q1620.31 1478.18 1622.35 1478.18 Q1627.72 1478.18 1630.91 1480.86 Q1634.11 1483.55 1634.11 1488.04 Q1634.11 1490.17 1633.3 1492.09 Q1632.51 1493.99 1630.4 1496.58 Q1629.83 1497.25 1626.72 1500.47 Q1623.62 1503.66 1617.97 1509.43 Z" fill="#000000" fill-rule="evenodd" fill-opacity="1" /><path clip-path="url(#clip500)" d="M1644.11 1507.48 L1648.99 1507.48 L1648.99 1513.36 L1644.11 1513.36 L1644.11 1507.48 Z" fill="#000000" fill-rule="evenodd" fill-opacity="1" /><path clip-path="url(#clip500)" d="M1659.22 1478.8 L1677.58 1478.8 L1677.58 1482.74 L1663.51 1482.74 L1663.51 1491.21 Q1664.52 1490.86 1665.54 1490.7 Q1666.56 1490.51 1667.58 1490.51 Q1673.37 1490.51 1676.75 1493.68 Q1680.13 1496.86 1680.13 1502.27 Q1680.13 1507.85 1676.65 1510.95 Q1673.18 1514.03 1666.86 1514.03 Q1664.69 1514.03 1662.42 1513.66 Q1660.17 1513.29 1657.77 1512.55 L1657.77 1507.85 Q1659.85 1508.99 1662.07 1509.54 Q1664.29 1510.1 1666.77 1510.1 Q1670.77 1510.1 1673.11 1507.99 Q1675.45 1505.88 1675.45 1502.27 Q1675.45 1498.66 1673.11 1496.55 Q1670.77 1494.45 1666.77 1494.45 Q1664.89 1494.45 1663.02 1494.86 Q1661.17 1495.28 1659.22 1496.16 L1659.22 1478.8 Z" fill="#000000" fill-rule="evenodd" fill-opacity="1" /><path clip-path="url(#clip500)" d="M1964.33 1478.8 L1982.69 1478.8 L1982.69 1482.74 L1968.61 1482.74 L1968.61 1491.21 Q1969.63 1490.86 1970.65 1490.7 Q1971.67 1490.51 1972.69 1490.51 Q1978.47 1490.51 1981.85 1493.68 Q1985.23 1496.86 1985.23 1502.27 Q1985.23 1507.85 1981.76 1510.95 Q1978.29 1514.03 1971.97 1514.03 Q1969.79 1514.03 1967.53 1513.66 Q1965.28 1513.29 1962.87 1512.55 L1962.87 1507.85 Q1964.96 1508.99 1967.18 1509.54 Q1969.4 1510.1 1971.88 1510.1 Q1975.88 1510.1 1978.22 1507.99 Q1980.56 1505.88 1980.56 1502.27 Q1980.56 1498.66 1978.22 1496.55 Q1975.88 1494.45 1971.88 1494.45 Q1970 1494.45 1968.13 1494.86 Q1966.28 1495.28 1964.33 1496.16 L1964.33 1478.8 Z" fill="#000000" fill-rule="evenodd" fill-opacity="1" /><path clip-path="url(#clip500)" d="M1994.45 1507.48 L1999.33 1507.48 L1999.33 1513.36 L1994.45 1513.36 L1994.45 1507.48 Z" fill="#000000" fill-rule="evenodd" fill-opacity="1" /><path clip-path="url(#clip500)" d="M2019.52 1481.88 Q2015.9 1481.88 2014.08 1485.44 Q2012.27 1488.99 2012.27 1496.11 Q2012.27 1503.22 2014.08 1506.79 Q2015.9 1510.33 2019.52 1510.33 Q2023.15 1510.33 2024.96 1506.79 Q2026.78 1503.22 2026.78 1496.11 Q2026.78 1488.99 2024.96 1485.44 Q2023.15 1481.88 2019.52 1481.88 M2019.52 1478.18 Q2025.33 1478.18 2028.38 1482.78 Q2031.46 1487.37 2031.46 1496.11 Q2031.46 1504.84 2028.38 1509.45 Q2025.33 1514.03 2019.52 1514.03 Q2013.71 1514.03 2010.63 1509.45 Q2007.57 1504.84 2007.57 1496.11 Q2007.57 1487.37 2010.63 1482.78 Q2013.71 1478.18 2019.52 1478.18 Z" fill="#000000" fill-rule="evenodd" fill-opacity="1" /><path clip-path="url(#clip500)" d="M1309.48 1539.92 Q1309.48 1541.72 1308.35 1542.75 Q1307.23 1543.75 1305.94 1543.75 Q1304.72 1543.75 1304.07 1543.04 Q1303.43 1542.33 1303.43 1541.43 Q1303.43 1540.21 1304.33 1539.14 Q1305.23 1538.08 1306.58 1537.85 Q1305.26 1537.02 1303.3 1537.02 Q1302.01 1537.02 1300.88 1537.69 Q1299.79 1538.37 1299.11 1539.24 Q1298.47 1540.11 1297.89 1541.37 Q1297.34 1542.59 1297.11 1543.33 Q1296.92 1544.04 1296.76 1544.81 L1294.51 1553.83 Q1293.41 1558.11 1293.41 1559.63 Q1293.41 1561.49 1294.31 1562.75 Q1295.21 1563.97 1297.02 1563.97 Q1297.73 1563.97 1298.53 1563.78 Q1299.34 1563.55 1300.37 1562.98 Q1301.43 1562.36 1302.36 1561.46 Q1303.33 1560.53 1304.26 1558.95 Q1305.2 1557.37 1305.81 1555.34 Q1306 1554.63 1306.65 1554.63 Q1307.45 1554.63 1307.45 1555.28 Q1307.45 1555.83 1307 1556.98 Q1306.58 1558.11 1305.65 1559.59 Q1304.75 1561.04 1303.56 1562.36 Q1302.36 1563.65 1300.59 1564.55 Q1298.82 1565.46 1296.89 1565.46 Q1294.12 1565.46 1292.28 1563.97 Q1290.45 1562.49 1289.77 1560.43 Q1289.61 1560.72 1289.39 1561.11 Q1289.16 1561.49 1288.48 1562.36 Q1287.84 1563.2 1287.1 1563.84 Q1286.36 1564.46 1285.2 1564.94 Q1284.07 1565.46 1282.85 1565.46 Q1281.3 1565.46 1279.92 1565 Q1278.56 1564.55 1277.6 1563.52 Q1276.63 1562.49 1276.63 1561.08 Q1276.63 1559.5 1277.69 1558.4 Q1278.79 1557.27 1280.27 1557.27 Q1281.21 1557.27 1281.95 1557.82 Q1282.72 1558.37 1282.72 1559.56 Q1282.72 1560.88 1281.82 1561.88 Q1280.92 1562.88 1279.63 1563.14 Q1280.95 1563.97 1282.91 1563.97 Q1285.04 1563.97 1286.71 1562.11 Q1288.39 1560.24 1289.19 1557.11 Q1291.19 1549.61 1291.96 1546.26 Q1292.73 1542.88 1292.73 1541.43 Q1292.73 1540.08 1292.38 1539.14 Q1292.03 1538.21 1291.41 1537.79 Q1290.83 1537.34 1290.29 1537.18 Q1289.77 1537.02 1289.19 1537.02 Q1288.23 1537.02 1287.13 1537.4 Q1286.07 1537.79 1284.78 1538.69 Q1283.52 1539.56 1282.33 1541.37 Q1281.14 1543.17 1280.34 1545.65 Q1280.17 1546.39 1279.47 1546.39 Q1278.69 1546.36 1278.69 1545.71 Q1278.69 1545.17 1279.11 1544.04 Q1279.56 1542.88 1280.46 1541.43 Q1281.4 1539.98 1282.59 1538.69 Q1283.81 1537.37 1285.59 1536.47 Q1287.39 1535.57 1289.32 1535.57 Q1290.19 1535.57 1291.03 1535.76 Q1291.9 1535.92 1292.93 1536.41 Q1293.99 1536.89 1294.92 1537.95 Q1295.86 1539.01 1296.44 1540.56 Q1296.83 1539.82 1297.34 1539.11 Q1297.89 1538.4 1298.73 1537.53 Q1299.59 1536.63 1300.79 1536.12 Q1302.01 1535.57 1303.36 1535.57 Q1304.68 1535.57 1305.97 1535.92 Q1307.26 1536.24 1308.35 1537.31 Q1309.48 1538.34 1309.48 1539.92 Z" fill="#000000" fill-rule="evenodd" fill-opacity="1" /><polyline clip-path="url(#clip502)" style="stroke:#000000; stroke-linecap:butt; stroke-linejoin:round; stroke-width:2; stroke-opacity:0.1; fill:none" points="
  593.45,1450.96 1997.17,1450.96 
  "/>
<polyline clip-path="url(#clip502)" style="stroke:#000000; stroke-linecap:butt; stroke-linejoin:round; stroke-width:2; stroke-opacity:0.1; fill:none" points="
  593.45,1100.03 1997.17,1100.03 
  "/>
<polyline clip-path="url(#clip502)" style="stroke:#000000; stroke-linecap:butt; stroke-linejoin:round; stroke-width:2; stroke-opacity:0.1; fill:none" points="
  593.45,749.102 1997.17,749.102 
  "/>
<polyline clip-path="url(#clip502)" style="stroke:#000000; stroke-linecap:butt; stroke-linejoin:round; stroke-width:2; stroke-opacity:0.1; fill:none" points="
  593.45,398.173 1997.17,398.173 
  "/>
<polyline clip-path="url(#clip502)" style="stroke:#000000; stroke-linecap:butt; stroke-linejoin:round; stroke-width:2; stroke-opacity:0.1; fill:none" points="
  593.45,47.2441 1997.17,47.2441 
  "/>
<polyline clip-path="url(#clip500)" style="stroke:#000000; stroke-linecap:butt; stroke-linejoin:round; stroke-width:4; stroke-opacity:1; fill:none" points="
  593.45,1450.96 593.45,47.2441 
  "/>
<polyline clip-path="url(#clip500)" style="stroke:#000000; stroke-linecap:butt; stroke-linejoin:round; stroke-width:4; stroke-opacity:1; fill:none" points="
  593.45,1450.96 605.993,1450.96 
  "/>
<polyline clip-path="url(#clip500)" style="stroke:#000000; stroke-linecap:butt; stroke-linejoin:round; stroke-width:4; stroke-opacity:1; fill:none" points="
  593.45,1100.03 605.993,1100.03 
  "/>
<polyline clip-path="url(#clip500)" style="stroke:#000000; stroke-linecap:butt; stroke-linejoin:round; stroke-width:4; stroke-opacity:1; fill:none" points="
  593.45,749.102 605.993,749.102 
  "/>
<polyline clip-path="url(#clip500)" style="stroke:#000000; stroke-linecap:butt; stroke-linejoin:round; stroke-width:4; stroke-opacity:1; fill:none" points="
  593.45,398.173 605.993,398.173 
  "/>
<polyline clip-path="url(#clip500)" style="stroke:#000000; stroke-linecap:butt; stroke-linejoin:round; stroke-width:4; stroke-opacity:1; fill:none" points="
  593.45,47.2441 605.993,47.2441 
  "/>
<path clip-path="url(#clip500)" d="M450.507 1451.41 L480.182 1451.41 L480.182 1455.35 L450.507 1455.35 L450.507 1451.41 Z" fill="#000000" fill-rule="evenodd" fill-opacity="1" /><path clip-path="url(#clip500)" d="M490.321 1433.68 L508.678 1433.68 L508.678 1437.62 L494.604 1437.62 L494.604 1446.09 Q495.622 1445.74 496.641 1445.58 Q497.659 1445.39 498.678 1445.39 Q504.465 1445.39 507.844 1448.56 Q511.224 1451.74 511.224 1457.15 Q511.224 1462.73 507.752 1465.83 Q504.279 1468.91 497.96 1468.91 Q495.784 1468.91 493.516 1468.54 Q491.27 1468.17 488.863 1467.43 L488.863 1462.73 Q490.946 1463.87 493.168 1464.42 Q495.391 1464.98 497.867 1464.98 Q501.872 1464.98 504.21 1462.87 Q506.548 1460.76 506.548 1457.15 Q506.548 1453.54 504.21 1451.43 Q501.872 1449.33 497.867 1449.33 Q495.992 1449.33 494.117 1449.74 Q492.266 1450.16 490.321 1451.04 L490.321 1433.68 Z" fill="#000000" fill-rule="evenodd" fill-opacity="1" /><path clip-path="url(#clip500)" d="M520.437 1462.36 L525.321 1462.36 L525.321 1468.24 L520.437 1468.24 L520.437 1462.36 Z" fill="#000000" fill-rule="evenodd" fill-opacity="1" /><path clip-path="url(#clip500)" d="M545.506 1436.76 Q541.895 1436.76 540.066 1440.32 Q538.261 1443.87 538.261 1450.99 Q538.261 1458.1 540.066 1461.67 Q541.895 1465.21 545.506 1465.21 Q549.14 1465.21 550.946 1461.67 Q552.775 1458.1 552.775 1450.99 Q552.775 1443.87 550.946 1440.32 Q549.14 1436.76 545.506 1436.76 M545.506 1433.06 Q551.316 1433.06 554.372 1437.66 Q557.45 1442.25 557.45 1450.99 Q557.45 1459.72 554.372 1464.33 Q551.316 1468.91 545.506 1468.91 Q539.696 1468.91 536.617 1464.33 Q533.562 1459.72 533.562 1450.99 Q533.562 1442.25 536.617 1437.66 Q539.696 1433.06 545.506 1433.06 Z" fill="#000000" fill-rule="evenodd" fill-opacity="1" /><path clip-path="url(#clip500)" d="M451.502 1100.48 L481.178 1100.48 L481.178 1104.42 L451.502 1104.42 L451.502 1100.48 Z" fill="#000000" fill-rule="evenodd" fill-opacity="1" /><path clip-path="url(#clip500)" d="M495.298 1113.38 L511.617 1113.38 L511.617 1117.31 L489.673 1117.31 L489.673 1113.38 Q492.335 1110.62 496.918 1105.99 Q501.525 1101.34 502.705 1100 Q504.951 1097.47 505.83 1095.74 Q506.733 1093.98 506.733 1092.29 Q506.733 1089.53 504.789 1087.8 Q502.867 1086.06 499.766 1086.06 Q497.566 1086.06 495.113 1086.83 Q492.682 1087.59 489.904 1089.14 L489.904 1084.42 Q492.729 1083.28 495.182 1082.7 Q497.636 1082.13 499.673 1082.13 Q505.043 1082.13 508.238 1084.81 Q511.432 1087.5 511.432 1091.99 Q511.432 1094.12 510.622 1096.04 Q509.835 1097.94 507.728 1100.53 Q507.15 1101.2 504.048 1104.42 Q500.946 1107.61 495.298 1113.38 Z" fill="#000000" fill-rule="evenodd" fill-opacity="1" /><path clip-path="url(#clip500)" d="M521.432 1111.43 L526.316 1111.43 L526.316 1117.31 L521.432 1117.31 L521.432 1111.43 Z" fill="#000000" fill-rule="evenodd" fill-opacity="1" /><path clip-path="url(#clip500)" d="M536.548 1082.75 L554.904 1082.75 L554.904 1086.69 L540.83 1086.69 L540.83 1095.16 Q541.849 1094.81 542.867 1094.65 Q543.886 1094.46 544.904 1094.46 Q550.691 1094.46 554.071 1097.64 Q557.45 1100.81 557.45 1106.22 Q557.45 1111.8 553.978 1114.9 Q550.506 1117.98 544.187 1117.98 Q542.011 1117.98 539.742 1117.61 Q537.497 1117.24 535.089 1116.5 L535.089 1111.8 Q537.173 1112.94 539.395 1113.49 Q541.617 1114.05 544.094 1114.05 Q548.099 1114.05 550.437 1111.94 Q552.775 1109.83 552.775 1106.22 Q552.775 1102.61 550.437 1100.51 Q548.099 1098.4 544.094 1098.4 Q542.219 1098.4 540.344 1098.82 Q538.492 1099.23 536.548 1100.11 L536.548 1082.75 Z" fill="#000000" fill-rule="evenodd" fill-opacity="1" /><path clip-path="url(#clip500)" d="M500.275 734.901 Q496.664 734.901 494.835 738.466 Q493.029 742.007 493.029 749.137 Q493.029 756.243 494.835 759.808 Q496.664 763.35 500.275 763.35 Q503.909 763.35 505.715 759.808 Q507.543 756.243 507.543 749.137 Q507.543 742.007 505.715 738.466 Q503.909 734.901 500.275 734.901 M500.275 731.197 Q506.085 731.197 509.141 735.804 Q512.219 740.387 512.219 749.137 Q512.219 757.864 509.141 762.47 Q506.085 767.053 500.275 767.053 Q494.465 767.053 491.386 762.47 Q488.33 757.864 488.33 749.137 Q488.33 740.387 491.386 735.804 Q494.465 731.197 500.275 731.197 Z" fill="#000000" fill-rule="evenodd" fill-opacity="1" /><path clip-path="url(#clip500)" d="M520.437 760.503 L525.321 760.503 L525.321 766.382 L520.437 766.382 L520.437 760.503 Z" fill="#000000" fill-rule="evenodd" fill-opacity="1" /><path clip-path="url(#clip500)" d="M545.506 734.901 Q541.895 734.901 540.066 738.466 Q538.261 742.007 538.261 749.137 Q538.261 756.243 540.066 759.808 Q541.895 763.35 545.506 763.35 Q549.14 763.35 550.946 759.808 Q552.775 756.243 552.775 749.137 Q552.775 742.007 550.946 738.466 Q549.14 734.901 545.506 734.901 M545.506 731.197 Q551.316 731.197 554.372 735.804 Q557.45 740.387 557.45 749.137 Q557.45 757.864 554.372 762.47 Q551.316 767.053 545.506 767.053 Q539.696 767.053 536.617 762.47 Q533.562 757.864 533.562 749.137 Q533.562 740.387 536.617 735.804 Q539.696 731.197 545.506 731.197 Z" fill="#000000" fill-rule="evenodd" fill-opacity="1" /><path clip-path="url(#clip500)" d="M495.298 411.518 L511.617 411.518 L511.617 415.453 L489.673 415.453 L489.673 411.518 Q492.335 408.763 496.918 404.134 Q501.525 399.481 502.705 398.138 Q504.951 395.615 505.83 393.879 Q506.733 392.12 506.733 390.43 Q506.733 387.676 504.789 385.939 Q502.867 384.203 499.766 384.203 Q497.566 384.203 495.113 384.967 Q492.682 385.731 489.904 387.282 L489.904 382.56 Q492.729 381.426 495.182 380.847 Q497.636 380.268 499.673 380.268 Q505.043 380.268 508.238 382.953 Q511.432 385.638 511.432 390.129 Q511.432 392.259 510.622 394.18 Q509.835 396.078 507.728 398.671 Q507.15 399.342 504.048 402.56 Q500.946 405.754 495.298 411.518 Z" fill="#000000" fill-rule="evenodd" fill-opacity="1" /><path clip-path="url(#clip500)" d="M521.432 409.574 L526.316 409.574 L526.316 415.453 L521.432 415.453 L521.432 409.574 Z" fill="#000000" fill-rule="evenodd" fill-opacity="1" /><path clip-path="url(#clip500)" d="M536.548 380.893 L554.904 380.893 L554.904 384.828 L540.83 384.828 L540.83 393.3 Q541.849 392.953 542.867 392.791 Q543.886 392.606 544.904 392.606 Q550.691 392.606 554.071 395.777 Q557.45 398.949 557.45 404.365 Q557.45 409.944 553.978 413.046 Q550.506 416.124 544.187 416.124 Q542.011 416.124 539.742 415.754 Q537.497 415.384 535.089 414.643 L535.089 409.944 Q537.173 411.078 539.395 411.634 Q541.617 412.189 544.094 412.189 Q548.099 412.189 550.437 410.083 Q552.775 407.976 552.775 404.365 Q552.775 400.754 550.437 398.648 Q548.099 396.541 544.094 396.541 Q542.219 396.541 540.344 396.958 Q538.492 397.375 536.548 398.254 L536.548 380.893 Z" fill="#000000" fill-rule="evenodd" fill-opacity="1" /><path clip-path="url(#clip500)" d="M490.321 29.9641 L508.678 29.9641 L508.678 33.8993 L494.604 33.8993 L494.604 42.3714 Q495.622 42.0242 496.641 41.8622 Q497.659 41.677 498.678 41.677 Q504.465 41.677 507.844 44.8483 Q511.224 48.0196 511.224 53.4362 Q511.224 59.0149 507.752 62.1167 Q504.279 65.1954 497.96 65.1954 Q495.784 65.1954 493.516 64.825 Q491.27 64.4547 488.863 63.7139 L488.863 59.0149 Q490.946 60.1491 493.168 60.7047 Q495.391 61.2602 497.867 61.2602 Q501.872 61.2602 504.21 59.1538 Q506.548 57.0473 506.548 53.4362 Q506.548 49.8251 504.21 47.7186 Q501.872 45.6122 497.867 45.6122 Q495.992 45.6122 494.117 46.0288 Q492.266 46.4455 490.321 47.3251 L490.321 29.9641 Z" fill="#000000" fill-rule="evenodd" fill-opacity="1" /><path clip-path="url(#clip500)" d="M520.437 58.6445 L525.321 58.6445 L525.321 64.5241 L520.437 64.5241 L520.437 58.6445 Z" fill="#000000" fill-rule="evenodd" fill-opacity="1" /><path clip-path="url(#clip500)" d="M545.506 33.0428 Q541.895 33.0428 540.066 36.6076 Q538.261 40.1492 538.261 47.2788 Q538.261 54.3853 540.066 57.9501 Q541.895 61.4917 545.506 61.4917 Q549.14 61.4917 550.946 57.9501 Q552.775 54.3853 552.775 47.2788 Q552.775 40.1492 550.946 36.6076 Q549.14 33.0428 545.506 33.0428 M545.506 29.3391 Q551.316 29.3391 554.372 33.9456 Q557.45 38.5289 557.45 47.2788 Q557.45 56.0056 554.372 60.6121 Q551.316 65.1954 545.506 65.1954 Q539.696 65.1954 536.617 60.6121 Q533.562 56.0056 533.562 47.2788 Q533.562 38.5289 536.617 33.9456 Q539.696 29.3391 545.506 29.3391 Z" fill="#000000" fill-rule="evenodd" fill-opacity="1" /><path clip-path="url(#clip500)" d="M378.708 734.665 Q379.159 734.665 380.222 734.955 L405.407 741.267 Q411.011 742.652 414.94 747.161 Q418.869 751.637 418.869 756.726 Q418.869 759.785 417.226 761.75 Q415.616 763.714 413.136 763.714 Q410.946 763.714 409.884 762.555 Q408.853 761.396 408.853 760.011 Q408.853 759.56 408.982 759.077 Q409.111 758.594 409.658 758.078 Q410.206 757.563 411.14 757.563 Q412.653 757.563 413.845 758.884 Q414.392 759.528 414.521 760.14 Q414.65 760.719 414.65 761.718 Q415.552 761.331 416.164 760.623 Q416.776 759.914 417.001 759.109 Q417.259 758.304 417.323 757.789 Q417.42 757.241 417.42 756.726 Q417.42 752.603 413.265 749.447 Q412.009 748.513 410.753 747.837 Q409.529 747.128 408.016 746.613 Q406.534 746.098 405.729 745.872 Q404.924 745.615 403.088 745.164 Q406.083 748.159 406.083 751.83 Q406.083 753.376 405.665 754.761 Q405.246 756.114 404.376 757.305 Q403.475 758.497 401.896 759.206 Q400.318 759.882 398.225 759.882 Q396.003 759.882 392.975 759.012 Q389.948 758.143 384.376 756.049 Q381.253 754.922 379.739 754.922 Q378.998 754.922 378.547 755.083 Q378.064 755.244 377.903 755.566 Q377.71 755.888 377.678 756.082 Q377.645 756.243 377.645 756.565 Q377.645 758.465 379.578 760.236 Q381.51 762.008 385.826 763.231 Q386.631 763.489 386.824 763.65 Q387.017 763.811 387.017 764.294 Q386.985 765.099 386.341 765.099 Q386.083 765.099 385.085 764.809 Q384.054 764.52 382.541 763.843 Q380.995 763.135 379.61 762.169 Q378.193 761.202 377.195 759.689 Q376.196 758.143 376.196 756.371 Q376.196 753.956 377.774 752.475 Q379.32 750.961 381.607 750.961 Q382.541 750.961 383.378 751.219 Q384.183 751.444 386.341 752.281 Q395.037 755.663 399.288 755.663 Q400.318 755.663 401.188 755.502 Q402.025 755.309 402.863 754.89 Q403.668 754.471 404.151 753.634 Q404.602 752.764 404.602 751.573 Q404.602 750.059 403.893 748.642 Q403.152 747.193 402.154 746.291 Q401.156 745.357 400.318 744.81 Q399.449 744.23 398.998 744.101 L387.146 741.138 L381.864 739.818 Q378.998 739.206 378.29 738.916 Q377.613 738.529 377.259 737.853 Q376.905 737.177 376.905 736.597 Q376.905 735.792 377.388 735.244 Q377.871 734.665 378.708 734.665 Z" fill="#000000" fill-rule="evenodd" fill-opacity="1" /><circle clip-path="url(#clip502)" cx="1154.94" cy="327.987" r="14" fill="#ff0000" fill-rule="evenodd" fill-opacity="1" stroke="#000000" stroke-opacity="1" stroke-width="3.2"/>
<circle clip-path="url(#clip502)" cx="1497.09" cy="424.493" r="14" fill="#ff0000" fill-rule="evenodd" fill-opacity="1" stroke="#000000" stroke-opacity="1" stroke-width="3.2"/>
<circle clip-path="url(#clip502)" cx="1860.1" cy="844.814" r="14" fill="#ff0000" fill-rule="evenodd" fill-opacity="1" stroke="#000000" stroke-opacity="1" stroke-width="3.2"/>
<circle clip-path="url(#clip502)" cx="1626.1" cy="614.318" r="14" fill="#ff0000" fill-rule="evenodd" fill-opacity="1" stroke="#000000" stroke-opacity="1" stroke-width="3.2"/>
<circle clip-path="url(#clip502)" cx="1350.9" cy="339.132" r="14" fill="#ff0000" fill-rule="evenodd" fill-opacity="1" stroke="#000000" stroke-opacity="1" stroke-width="3.2"/>
<circle clip-path="url(#clip502)" cx="1564.6" cy="552.831" r="14" fill="#ff0000" fill-rule="evenodd" fill-opacity="1" stroke="#000000" stroke-opacity="1" stroke-width="3.2"/>
<circle clip-path="url(#clip502)" cx="1271.27" cy="259.5" r="14" fill="#ff0000" fill-rule="evenodd" fill-opacity="1" stroke="#000000" stroke-opacity="1" stroke-width="3.2"/>
<circle clip-path="url(#clip502)" cx="1485.99" cy="474.225" r="14" fill="#ff0000" fill-rule="evenodd" fill-opacity="1" stroke="#000000" stroke-opacity="1" stroke-width="3.2"/>
<polyline clip-path="url(#clip502)" style="stroke:#1e90ff; stroke-linecap:butt; stroke-linejoin:round; stroke-width:4; stroke-opacity:1; fill:none" points="
  1349.84,878.44 1346.32,879.866 1343.24,881.03 1342.8,881.193 1339.28,882.396 1335.77,883.507 1332.25,884.526 1332.16,884.548 1328.73,885.428 1325.21,886.24 
  1321.69,886.962 1318.18,887.593 1315.1,888.067 1314.66,888.133 1311.14,888.573 1307.62,888.925 1304.1,889.188 1300.59,889.364 1297.07,889.452 1293.55,889.452 
  1290.03,889.364 1286.51,889.188 1283,888.925 1279.48,888.573 1275.96,888.133 1275.52,888.067 1272.44,887.593 1268.92,886.962 1265.4,886.24 1261.89,885.428 
  1258.45,884.548 1258.37,884.526 1254.85,883.507 1251.33,882.396 1247.81,881.193 1247.37,881.03 1244.3,879.866 1240.78,878.44 1238.63,877.512 1237.26,876.902 
  1233.74,875.241 1231.25,873.994 1230.22,873.467 1226.71,871.557 1224.81,870.476 1223.19,869.52 1219.67,867.347 1219.07,866.958 1216.15,865.013 1213.89,863.44 
  1212.63,862.534 1209.15,859.922 1209.12,859.894 1205.6,857.057 1204.82,856.404 1202.08,854.03 1200.81,852.886 1198.56,850.794 1197.08,849.368 1195.04,847.326 
  1193.62,845.85 1191.52,843.603 1190.38,842.331 1188.01,839.592 1187.35,838.813 1184.52,835.295 1184.49,835.259 1181.88,831.777 1180.97,830.516 1179.4,828.259 
  1177.45,825.341 1177.06,824.741 1174.89,821.223 1173.93,819.597 1172.85,817.705 1170.94,814.187 1170.42,813.162 1169.17,810.669 1167.51,807.151 1166.9,805.777 
  1165.97,803.633 1164.54,800.114 1163.38,797.037 1163.22,796.596 1162.01,793.078 1160.9,789.56 1159.88,786.042 1159.86,785.956 1158.98,782.524 1158.17,779.006 
  1157.45,775.488 1156.82,771.97 1156.34,768.894 1156.28,768.452 1155.84,764.934 1155.49,761.415 1155.22,757.897 1155.05,754.379 1154.96,750.861 1154.96,747.343 
  1155.05,743.825 1155.22,740.307 1155.49,736.789 1155.84,733.271 1156.28,729.753 1156.34,729.31 1156.82,726.235 1157.45,722.717 1158.17,719.198 1158.98,715.68 
  1159.86,712.248 1159.88,712.162 1160.9,708.644 1162.01,705.126 1163.22,701.608 1163.38,701.167 1164.54,698.09 1165.97,694.572 1166.9,692.427 1167.51,691.054 
  1169.17,687.536 1170.42,685.043 1170.94,684.018 1172.85,680.5 1173.93,678.608 1174.89,676.981 1177.06,673.463 1177.45,672.863 1179.4,669.945 1180.97,667.688 
  1181.88,666.427 1184.49,662.945 1184.52,662.909 1187.35,659.391 1188.01,658.612 1190.38,655.873 1191.52,654.602 1193.62,652.355 1195.04,650.878 1197.08,648.837 
  1198.56,647.411 1200.81,645.319 1202.08,644.175 1204.82,641.801 1205.6,641.147 1209.12,638.31 1209.15,638.282 1212.63,635.671 1213.89,634.764 1216.15,633.191 
  1219.07,631.246 1219.67,630.858 1223.19,628.685 1224.81,627.728 1226.71,626.647 1230.22,624.737 1231.25,624.21 1233.74,622.964 1237.26,621.302 1238.63,620.692 
  1240.78,619.765 1244.3,618.338 1247.37,617.174 1247.81,617.011 1251.33,615.808 1254.85,614.697 1258.37,613.679 1258.45,613.656 1261.89,612.776 1265.4,611.964 
  1268.92,611.242 1272.44,610.611 1275.52,610.138 1275.96,610.071 1279.48,609.632 1283,609.28 1286.51,609.016 1290.03,608.84 1293.55,608.752 1297.07,608.752 
  1300.59,608.84 1304.1,609.016 1307.62,609.28 1311.14,609.632 1314.66,610.071 1315.1,610.138 1318.18,610.611 1321.69,611.242 1325.21,611.964 1328.73,612.776 
  1332.16,613.656 1332.25,613.679 1335.77,614.697 1339.28,615.808 1342.8,617.011 1343.24,617.174 1346.32,618.338 1349.84,619.765 1351.98,620.692 1353.36,621.302 
  1356.88,622.964 1359.37,624.21 1360.39,624.737 1363.91,626.647 1365.8,627.728 1367.43,628.685 1370.95,630.858 1371.55,631.246 1374.47,633.191 1376.72,634.764 
  1377.98,635.671 1381.47,638.282 1381.5,638.31 1385.02,641.147 1385.8,641.801 1388.54,644.175 1389.81,645.319 1392.06,647.411 1393.53,648.837 1395.57,650.878 
  1397,652.355 1399.09,654.602 1400.24,655.873 1402.61,658.612 1403.26,659.391 1406.1,662.909 1406.13,662.945 1408.74,666.427 1409.65,667.688 1411.22,669.945 
  1413.16,672.863 1413.55,673.463 1415.73,676.981 1416.68,678.608 1417.76,680.5 1419.67,684.018 1420.2,685.043 1421.45,687.536 1423.11,691.054 1423.72,692.427 
  1424.65,694.572 1426.07,698.09 1427.24,701.167 1427.4,701.608 1428.6,705.126 1429.71,708.644 1430.73,712.162 1430.75,712.248 1431.63,715.68 1432.45,719.198 
  1433.17,722.717 1433.8,726.235 1434.27,729.31 1434.34,729.753 1434.78,733.271 1435.13,736.789 1435.39,740.307 1435.57,743.825 1435.66,747.343 1435.66,750.861 
  1435.57,754.379 1435.39,757.897 1435.13,761.415 1434.78,764.934 1434.34,768.452 1434.27,768.894 1433.8,771.97 1433.17,775.488 1432.45,779.006 1431.63,782.524 
  1430.75,785.956 1430.73,786.042 1429.71,789.56 1428.6,793.078 1427.4,796.596 1427.24,797.037 1426.07,800.114 1424.65,803.633 1423.72,805.777 1423.11,807.151 
  1421.45,810.669 1420.2,813.162 1419.67,814.187 1417.76,817.705 1416.68,819.597 1415.73,821.223 1413.55,824.741 1413.16,825.341 1411.22,828.259 1409.65,830.516 
  1408.74,831.777 1406.13,835.259 1406.1,835.295 1403.26,838.813 1402.61,839.592 1400.24,842.331 1399.09,843.603 1397,845.85 1395.57,847.326 1393.53,849.368 
  1392.06,850.794 1389.81,852.886 1388.54,854.03 1385.8,856.404 1385.02,857.057 1381.5,859.894 1381.47,859.922 1377.98,862.534 1376.72,863.44 1374.47,865.013 
  1371.55,866.958 1370.95,867.347 1367.43,869.52 1365.8,870.476 1363.91,871.557 1360.39,873.467 1359.37,873.994 1356.88,875.241 1353.36,876.902 1351.98,877.512 
  1349.84,878.44 
  "/>
<polyline clip-path="url(#clip502)" style="stroke:#800080; stroke-linecap:butt; stroke-linejoin:round; stroke-width:4; stroke-opacity:1; fill:none" points="
  1154.94,1450.96 1154.23,1447.44 1153.52,1443.92 1152.83,1440.56 1152.79,1440.41 1152.06,1436.89 1151.33,1433.37 1150.58,1429.85 1149.83,1426.33 1149.31,1423.9 
  1149.07,1422.82 1148.31,1419.3 1147.53,1415.78 1146.75,1412.26 1145.95,1408.74 1145.79,1408.02 1145.15,1405.23 1144.34,1401.71 1143.52,1398.19 1142.7,1394.67 
  1142.27,1392.88 1141.86,1391.15 1141.02,1387.63 1140.16,1384.12 1139.3,1380.6 1138.75,1378.41 1138.42,1377.08 1137.54,1373.56 1136.64,1370.04 1135.74,1366.53 
  1135.24,1364.58 1134.83,1363.01 1133.9,1359.49 1132.97,1355.97 1132.02,1352.45 1131.72,1351.34 1131.06,1348.94 1130.09,1345.42 1129.11,1341.9 1128.2,1338.66 
  1128.12,1338.38 1127.12,1334.86 1126.1,1331.35 1125.07,1327.83 1124.68,1326.51 1124.03,1324.31 1122.98,1320.79 1121.91,1317.27 1121.16,1314.84 1120.83,1313.75 
  1119.73,1310.24 1118.63,1306.72 1117.65,1303.64 1117.5,1303.2 1116.37,1299.68 1115.22,1296.16 1114.13,1292.87 1114.05,1292.65 1112.87,1289.13 1111.67,1285.61 
  1110.61,1282.51 1110.46,1282.09 1109.23,1278.57 1107.99,1275.06 1107.09,1272.54 1106.73,1271.54 1105.45,1268.02 1104.15,1264.5 1103.57,1262.94 1102.84,1260.98 
  1101.51,1257.47 1100.16,1253.95 1100.05,1253.68 1098.79,1250.43 1097.4,1246.91 1096.54,1244.75 1095.99,1243.39 1094.56,1239.88 1093.11,1236.36 1093.02,1236.13 
  1091.64,1232.84 1090.15,1229.32 1089.5,1227.81 1088.64,1225.8 1087.1,1222.28 1085.98,1219.76 1085.54,1218.77 1083.96,1215.25 1082.46,1211.98 1082.35,1211.73 
  1080.72,1208.21 1079.06,1204.69 1078.95,1204.45 1077.38,1201.18 1075.67,1197.66 1075.43,1197.17 1073.93,1194.14 1072.17,1190.62 1071.91,1190.11 1070.38,1187.1 
  1068.55,1183.59 1068.39,1183.27 1066.7,1180.07 1064.87,1176.65 1064.82,1176.55 1062.91,1173.03 1061.36,1170.22 1060.96,1169.51 1058.99,1166 1057.84,1163.98 
  1056.98,1162.48 1054.93,1158.96 1054.32,1157.92 1052.85,1155.44 1050.8,1152.04 1050.73,1151.92 1048.58,1148.4 1047.28,1146.32 1046.38,1144.89 1044.15,1141.37 
  1043.77,1140.77 1041.88,1137.85 1040.25,1135.37 1039.56,1134.33 1037.21,1130.81 1036.73,1130.11 1034.8,1127.3 1033.21,1125 1032.36,1123.78 1029.87,1120.26 
  1029.69,1120.02 1027.33,1116.74 1026.17,1115.17 1024.74,1113.22 1022.66,1110.45 1022.1,1109.71 1019.41,1106.19 1019.14,1105.84 1016.66,1102.67 1015.62,1101.36 
  1013.86,1099.15 1012.1,1096.98 1011,1095.63 1008.58,1092.71 1008.09,1092.12 1005.11,1088.6 1005.07,1088.55 1002.07,1085.08 1001.55,1084.48 998.968,1081.56 
  998.03,1080.51 995.799,1078.04 994.512,1076.64 992.561,1074.53 990.994,1072.85 989.252,1071.01 987.476,1069.15 985.871,1067.49 983.958,1065.53 982.413,1063.97 
  980.44,1062 978.878,1060.45 976.922,1058.54 975.261,1056.93 973.404,1055.16 971.561,1053.42 969.886,1051.85 967.775,1049.9 966.368,1048.61 963.899,1046.38 
  962.849,1045.44 959.93,1042.86 959.331,1042.34 955.864,1039.34 955.813,1039.3 952.295,1036.32 951.699,1035.83 948.777,1033.41 947.431,1032.31 945.259,1030.55 
  943.055,1028.79 941.741,1027.75 938.568,1025.27 938.223,1025.01 934.705,1022.31 933.965,1021.75 931.187,1019.67 929.241,1018.24 927.669,1017.08 924.393,1014.72 
  924.15,1014.54 920.632,1012.05 919.414,1011.2 917.114,1009.61 914.3,1007.68 913.596,1007.2 910.078,1004.85 909.045,1004.16 906.56,1002.53 903.642,1000.65 
  903.042,1000.26 899.524,998.028 898.087,997.127 896.006,995.835 892.488,993.68 892.371,993.609 888.97,991.562 886.489,990.091 885.452,989.481 881.933,987.435 
  880.432,986.573 878.415,985.424 874.897,983.446 874.194,983.055 871.379,981.502 867.861,979.589 867.764,979.537 864.343,977.707 861.136,976.019 860.825,975.856 
  857.307,974.035 854.298,972.501 853.789,972.243 850.271,970.479 847.242,968.983 846.753,968.742 843.235,967.033 839.957,965.464 839.716,965.35 836.198,963.693 
  832.68,962.061 832.43,961.946 829.162,960.454 825.644,958.871 824.651,958.428 822.126,957.311 818.608,955.775 816.605,954.91 815.09,954.261 811.572,952.769 
  808.28,951.392 808.054,951.298 804.536,949.849 801.017,948.42 799.66,947.874 797.499,947.011 793.981,945.622 790.729,944.356 790.463,944.253 786.945,942.902 
  783.427,941.57 781.471,940.838 779.909,940.257 776.391,938.961 772.873,937.682 771.867,937.32 769.355,936.421 765.837,935.176 762.319,933.948 761.896,933.802 
  758.8,932.736 755.282,931.54 751.764,930.359 751.539,930.284 748.246,929.193 744.728,928.042 741.21,926.906 740.771,926.766 737.692,925.784 734.174,924.677 
  730.656,923.583 729.568,923.247 727.138,922.502 723.62,921.435 720.102,920.381 717.904,919.729 716.583,919.34 713.065,918.311 709.547,917.295 706.029,916.291 
  705.748,916.211 702.511,915.299 698.993,914.318 695.475,913.349 693.069,912.693 691.957,912.392 688.439,911.445 684.921,910.509 681.403,909.584 679.833,909.175 
  677.884,908.67 674.366,907.766 670.848,906.872 667.33,905.988 666.002,905.657 663.812,905.114 660.294,904.25 656.776,903.395 653.258,902.55 651.535,902.139 
  649.74,901.713 646.222,900.886 642.704,900.068 639.186,899.258 636.388,898.621 635.667,898.458 632.149,897.665 628.631,896.881 625.113,896.106 621.595,895.338 
  620.51,895.103 618.077,894.578 614.559,893.826 611.041,893.082 607.523,892.346 604.005,891.617 603.848,891.585 600.487,890.895 596.969,890.181 593.45,889.474 
  
  "/>
<polyline clip-path="url(#clip502)" style="stroke:#800080; stroke-linecap:butt; stroke-linejoin:round; stroke-width:4; stroke-opacity:1; fill:none" points="
  1435.68,47.2441 1436.39,50.7622 1437.1,54.2803 1437.79,57.642 1437.82,57.7984 1438.55,61.3164 1439.29,64.8345 1440.03,68.3526 1440.78,71.8707 1441.31,74.3037 
  1441.54,75.3888 1442.31,78.9069 1443.09,82.425 1443.87,85.943 1444.66,89.4611 1444.83,90.1813 1445.46,92.9792 1446.27,96.4973 1447.09,100.015 1447.92,103.533 
  1448.35,105.329 1448.76,107.052 1449.6,110.57 1450.46,114.088 1451.32,117.606 1451.86,119.796 1452.19,121.124 1453.08,124.642 1453.97,128.16 1454.88,131.678 
  1455.38,133.627 1455.79,135.196 1456.72,138.714 1457.65,142.232 1458.6,145.75 1458.9,146.863 1459.56,149.269 1460.52,152.787 1461.51,156.305 1462.42,159.541 
  1462.5,159.823 1463.5,163.341 1464.52,166.859 1465.55,170.377 1465.94,171.697 1466.59,173.895 1467.64,177.413 1468.71,180.931 1469.45,183.362 1469.79,184.449 
  1470.88,187.968 1471.99,191.486 1472.97,194.565 1473.11,195.004 1474.25,198.522 1475.4,202.04 1476.49,205.333 1476.57,205.558 1477.75,209.076 1478.94,212.594 
  1480.01,215.69 1480.15,216.112 1481.38,219.63 1482.63,223.148 1483.53,225.66 1483.89,226.666 1485.17,230.185 1486.46,233.703 1487.04,235.265 1487.78,237.221 
  1489.11,240.739 1490.46,244.257 1490.56,244.523 1491.83,247.775 1493.22,251.293 1494.08,253.454 1494.63,254.811 1496.06,258.329 1497.5,261.847 1497.6,262.074 
  1498.97,265.365 1500.47,268.883 1501.12,270.399 1501.98,272.402 1503.52,275.92 1504.63,278.444 1505.08,279.438 1506.66,282.956 1508.15,286.224 1508.27,286.474 
  1509.9,289.992 1511.56,293.51 1511.67,293.75 1513.24,297.028 1514.95,300.546 1515.19,301.036 1516.69,304.064 1518.45,307.582 1518.71,308.092 1520.24,311.101 
  1522.06,314.619 1522.23,314.93 1523.91,318.137 1525.74,321.558 1525.8,321.655 1527.71,325.173 1529.26,327.987 1529.65,328.691 1531.63,332.209 1532.78,334.226 
  1533.64,335.727 1535.69,339.245 1536.3,340.283 1537.77,342.763 1539.82,346.165 1539.89,346.281 1542.04,349.799 1543.33,351.88 1544.23,353.318 1546.47,356.836 
  1546.85,357.436 1548.74,360.354 1550.37,362.838 1551.05,363.872 1553.41,367.39 1553.89,368.094 1555.81,370.908 1557.41,373.208 1558.26,374.426 1560.75,377.944 
  1560.92,378.186 1563.29,381.462 1564.44,383.035 1565.88,384.98 1567.96,387.758 1568.52,388.498 1571.21,392.016 1571.48,392.362 1573.96,395.535 1575,396.849 
  1576.76,399.053 1578.51,401.225 1579.61,402.571 1582.03,405.493 1582.53,406.089 1585.51,409.607 1585.55,409.658 1588.55,413.125 1589.07,413.723 1591.65,416.643 
  1592.59,417.692 1594.82,420.161 1596.1,421.568 1598.06,423.679 1599.62,425.355 1601.36,427.197 1603.14,429.055 1604.75,430.715 1606.66,432.671 1608.2,434.234 
  1610.18,436.207 1611.74,437.752 1613.7,439.664 1615.36,441.27 1617.21,443.046 1619.06,444.788 1620.73,446.355 1622.84,448.306 1624.25,449.593 1626.72,451.824 
  1627.77,452.762 1630.69,455.342 1631.29,455.865 1634.75,458.86 1634.8,458.904 1638.32,461.88 1638.92,462.378 1641.84,464.796 1643.19,465.896 1645.36,467.654 
  1647.56,469.414 1648.88,470.454 1652.05,472.932 1652.39,473.199 1655.91,475.891 1656.65,476.451 1659.43,478.531 1661.38,479.969 1662.95,481.12 1666.22,483.487 
  1666.47,483.66 1669.98,486.153 1671.2,487.005 1673.5,488.599 1676.32,490.523 1677.02,491 1680.54,493.357 1681.57,494.041 1684.06,495.671 1686.97,497.559 
  1687.58,497.944 1691.09,500.177 1692.53,501.077 1694.61,502.37 1698.13,504.525 1698.25,504.595 1701.65,506.642 1704.13,508.113 1705.17,508.723 1708.68,510.769 
  1710.18,511.631 1712.2,512.78 1715.72,514.758 1716.42,515.149 1719.24,516.703 1722.76,518.615 1722.85,518.668 1726.27,520.497 1729.48,522.186 1729.79,522.348 
  1733.31,524.169 1736.32,525.704 1736.83,525.962 1740.35,527.726 1743.37,529.222 1743.86,529.462 1747.38,531.171 1750.66,532.74 1750.9,532.854 1754.42,534.511 
  1757.94,536.143 1758.19,536.258 1761.45,537.75 1764.97,539.333 1765.97,539.776 1768.49,540.893 1772.01,542.43 1774.01,543.294 1775.53,543.944 1779.05,545.436 
  1782.34,546.812 1782.56,546.906 1786.08,548.356 1789.6,549.784 1790.96,550.33 1793.12,551.193 1796.64,552.582 1799.89,553.848 1800.15,553.951 1803.67,555.302 
  1807.19,556.634 1809.15,557.367 1810.71,557.948 1814.23,559.244 1817.74,560.522 1818.75,560.885 1821.26,561.784 1824.78,563.028 1828.3,564.256 1828.72,564.403 
  1831.82,565.468 1835.33,566.665 1838.85,567.846 1839.08,567.921 1842.37,569.011 1845.89,570.162 1849.41,571.298 1849.85,571.439 1852.93,572.42 1856.44,573.528 
  1859.96,574.622 1861.05,574.957 1863.48,575.702 1867,576.769 1870.52,577.823 1872.71,578.475 1874.03,578.864 1877.55,579.893 1881.07,580.909 1884.59,581.913 
  1884.87,581.993 1888.11,582.906 1891.62,583.886 1895.14,584.855 1897.55,585.511 1898.66,585.813 1902.18,586.759 1905.7,587.695 1909.21,588.62 1910.78,589.029 
  1912.73,589.534 1916.25,590.439 1919.77,591.332 1923.29,592.216 1924.61,592.547 1926.8,593.09 1930.32,593.955 1933.84,594.809 1937.36,595.655 1939.08,596.065 
  1940.88,596.491 1944.4,597.318 1947.91,598.136 1951.43,598.946 1954.23,599.584 1954.95,599.747 1958.47,600.539 1961.99,601.323 1965.5,602.099 1969.02,602.866 
  1970.11,603.102 1972.54,603.626 1976.06,604.378 1979.58,605.122 1983.09,605.859 1986.61,606.587 1986.77,606.62 1990.13,607.309 1993.65,608.023 1997.17,608.731 
  
  "/>
<path clip-path="url(#clip500)" d="
M1272.08 1404.17 L1926.67 1404.17 L1926.67 1196.81 L1272.08 1196.81  Z
  " fill="#ffffff" fill-rule="evenodd" fill-opacity="1"/>
<polyline clip-path="url(#clip500)" style="stroke:#000000; stroke-linecap:butt; stroke-linejoin:round; stroke-width:4; stroke-opacity:1; fill:none" points="
  1272.08,1404.17 1926.67,1404.17 1926.67,1196.81 1272.08,1196.81 1272.08,1404.17 
  "/>
<circle clip-path="url(#clip500)" cx="1366.07" cy="1248.65" r="23" fill="#ff0000" fill-rule="evenodd" fill-opacity="1" stroke="#000000" stroke-opacity="1" stroke-width="5.12"/>
<path clip-path="url(#clip500)" d="M1460.07 1231.37 L1466.36 1231.37 L1481.69 1260.28 L1481.69 1231.37 L1486.23 1231.37 L1486.23 1265.93 L1479.93 1265.93 L1464.61 1237.02 L1464.61 1265.93 L1460.07 1265.93 L1460.07 1231.37 Z" fill="#000000" fill-rule="evenodd" fill-opacity="1" /><path clip-path="url(#clip500)" d="M1517.52 1251.9 L1517.52 1253.99 L1497.94 1253.99 Q1498.22 1258.38 1500.58 1260.7 Q1502.96 1262.99 1507.2 1262.99 Q1509.65 1262.99 1511.94 1262.39 Q1514.26 1261.79 1516.53 1260.58 L1516.53 1264.61 Q1514.23 1265.58 1511.83 1266.09 Q1509.42 1266.6 1506.94 1266.6 Q1500.74 1266.6 1497.11 1262.99 Q1493.49 1259.38 1493.49 1253.22 Q1493.49 1246.86 1496.92 1243.13 Q1500.37 1239.38 1506.2 1239.38 Q1511.43 1239.38 1514.47 1242.76 Q1517.52 1246.12 1517.52 1251.9 M1513.26 1250.65 Q1513.22 1247.16 1511.29 1245.07 Q1509.4 1242.99 1506.25 1242.99 Q1502.68 1242.99 1500.53 1245 Q1498.4 1247.02 1498.08 1250.68 L1513.26 1250.65 Z" fill="#000000" fill-rule="evenodd" fill-opacity="1" /><path clip-path="url(#clip500)" d="M1522.04 1240 L1526.29 1240 L1531.62 1260.24 L1536.92 1240 L1541.94 1240 L1547.27 1260.24 L1552.57 1240 L1556.83 1240 L1550.04 1265.93 L1545.02 1265.93 L1539.44 1244.68 L1533.84 1265.93 L1528.82 1265.93 L1522.04 1240 Z" fill="#000000" fill-rule="evenodd" fill-opacity="1" /><path clip-path="url(#clip500)" d="M1567.5 1232.64 L1567.5 1240 L1576.27 1240 L1576.27 1243.31 L1567.5 1243.31 L1567.5 1257.39 Q1567.5 1260.56 1568.35 1261.46 Q1569.23 1262.36 1571.9 1262.36 L1576.27 1262.36 L1576.27 1265.93 L1571.9 1265.93 Q1566.97 1265.93 1565.09 1264.1 Q1563.22 1262.25 1563.22 1257.39 L1563.22 1243.31 L1560.09 1243.31 L1560.09 1240 L1563.22 1240 L1563.22 1232.64 L1567.5 1232.64 Z" fill="#000000" fill-rule="evenodd" fill-opacity="1" /><path clip-path="url(#clip500)" d="M1591.92 1242.99 Q1588.49 1242.99 1586.5 1245.68 Q1584.51 1248.34 1584.51 1252.99 Q1584.51 1257.64 1586.48 1260.33 Q1588.47 1262.99 1591.92 1262.99 Q1595.32 1262.99 1597.31 1260.3 Q1599.3 1257.62 1599.3 1252.99 Q1599.3 1248.38 1597.31 1245.7 Q1595.32 1242.99 1591.92 1242.99 M1591.92 1239.38 Q1597.47 1239.38 1600.65 1242.99 Q1603.82 1246.6 1603.82 1252.99 Q1603.82 1259.36 1600.65 1262.99 Q1597.47 1266.6 1591.92 1266.6 Q1586.34 1266.6 1583.17 1262.99 Q1580.02 1259.36 1580.02 1252.99 Q1580.02 1246.6 1583.17 1242.99 Q1586.34 1239.38 1591.92 1239.38 Z" fill="#000000" fill-rule="evenodd" fill-opacity="1" /><path clip-path="url(#clip500)" d="M1632.43 1250.28 L1632.43 1265.93 L1628.17 1265.93 L1628.17 1250.42 Q1628.17 1246.74 1626.73 1244.91 Q1625.3 1243.08 1622.43 1243.08 Q1618.98 1243.08 1616.99 1245.28 Q1615 1247.48 1615 1251.28 L1615 1265.93 L1610.72 1265.93 L1610.72 1240 L1615 1240 L1615 1244.03 Q1616.53 1241.69 1618.59 1240.54 Q1620.67 1239.38 1623.38 1239.38 Q1627.85 1239.38 1630.14 1242.16 Q1632.43 1244.91 1632.43 1250.28 Z" fill="#000000" fill-rule="evenodd" fill-opacity="1" /><path clip-path="url(#clip500)" d="M1667.73 1235.98 L1661.39 1253.18 L1674.09 1253.18 L1667.73 1235.98 M1665.09 1231.37 L1670.39 1231.37 L1683.56 1265.93 L1678.7 1265.93 L1675.55 1257.06 L1659.97 1257.06 L1656.83 1265.93 L1651.9 1265.93 L1665.09 1231.37 Z" fill="#000000" fill-rule="evenodd" fill-opacity="1" /><path clip-path="url(#clip500)" d="M1688.42 1229.91 L1692.68 1229.91 L1692.68 1265.93 L1688.42 1265.93 L1688.42 1229.91 Z" fill="#000000" fill-rule="evenodd" fill-opacity="1" /><path clip-path="url(#clip500)" d="M1718.65 1252.67 Q1718.65 1248.04 1716.73 1245.49 Q1714.84 1242.94 1711.39 1242.94 Q1707.96 1242.94 1706.04 1245.49 Q1704.14 1248.04 1704.14 1252.67 Q1704.14 1257.27 1706.04 1259.82 Q1707.96 1262.36 1711.39 1262.36 Q1714.84 1262.36 1716.73 1259.82 Q1718.65 1257.27 1718.65 1252.67 M1722.91 1262.71 Q1722.91 1269.33 1719.97 1272.55 Q1717.03 1275.79 1710.97 1275.79 Q1708.72 1275.79 1706.73 1275.44 Q1704.74 1275.12 1702.87 1274.43 L1702.87 1270.28 Q1704.74 1271.3 1706.57 1271.79 Q1708.4 1272.27 1710.3 1272.27 Q1714.49 1272.27 1716.57 1270.07 Q1718.65 1267.9 1718.65 1263.48 L1718.65 1261.37 Q1717.34 1263.66 1715.28 1264.8 Q1713.21 1265.93 1710.34 1265.93 Q1705.58 1265.93 1702.66 1262.3 Q1699.74 1258.66 1699.74 1252.67 Q1699.74 1246.65 1702.66 1243.01 Q1705.58 1239.38 1710.34 1239.38 Q1713.21 1239.38 1715.28 1240.51 Q1717.34 1241.65 1718.65 1243.94 L1718.65 1240 L1722.91 1240 L1722.91 1262.71 Z" fill="#000000" fill-rule="evenodd" fill-opacity="1" /><path clip-path="url(#clip500)" d="M1741.73 1242.99 Q1738.31 1242.99 1736.32 1245.68 Q1734.33 1248.34 1734.33 1252.99 Q1734.33 1257.64 1736.29 1260.33 Q1738.28 1262.99 1741.73 1262.99 Q1745.14 1262.99 1747.13 1260.3 Q1749.12 1257.62 1749.12 1252.99 Q1749.12 1248.38 1747.13 1245.7 Q1745.14 1242.99 1741.73 1242.99 M1741.73 1239.38 Q1747.29 1239.38 1750.46 1242.99 Q1753.63 1246.6 1753.63 1252.99 Q1753.63 1259.36 1750.46 1262.99 Q1747.29 1266.6 1741.73 1266.6 Q1736.15 1266.6 1732.98 1262.99 Q1729.84 1259.36 1729.84 1252.99 Q1729.84 1246.6 1732.98 1242.99 Q1736.15 1239.38 1741.73 1239.38 Z" fill="#000000" fill-rule="evenodd" fill-opacity="1" /><path clip-path="url(#clip500)" d="M1775.71 1243.99 Q1775 1243.57 1774.14 1243.38 Q1773.31 1243.18 1772.29 1243.18 Q1768.68 1243.18 1766.73 1245.54 Q1764.81 1247.87 1764.81 1252.27 L1764.81 1265.93 L1760.53 1265.93 L1760.53 1240 L1764.81 1240 L1764.81 1244.03 Q1766.15 1241.67 1768.31 1240.54 Q1770.46 1239.38 1773.54 1239.38 Q1773.98 1239.38 1774.51 1239.45 Q1775.04 1239.49 1775.69 1239.61 L1775.71 1243.99 Z" fill="#000000" fill-rule="evenodd" fill-opacity="1" /><path clip-path="url(#clip500)" d="M1780.18 1240 L1784.44 1240 L1784.44 1265.93 L1780.18 1265.93 L1780.18 1240 M1780.18 1229.91 L1784.44 1229.91 L1784.44 1235.3 L1780.18 1235.3 L1780.18 1229.91 Z" fill="#000000" fill-rule="evenodd" fill-opacity="1" /><path clip-path="url(#clip500)" d="M1797.57 1232.64 L1797.57 1240 L1806.34 1240 L1806.34 1243.31 L1797.57 1243.31 L1797.57 1257.39 Q1797.57 1260.56 1798.42 1261.46 Q1799.3 1262.36 1801.96 1262.36 L1806.34 1262.36 L1806.34 1265.93 L1801.96 1265.93 Q1797.03 1265.93 1795.16 1264.1 Q1793.28 1262.25 1793.28 1257.39 L1793.28 1243.31 L1790.16 1243.31 L1790.16 1240 L1793.28 1240 L1793.28 1232.64 L1797.57 1232.64 Z" fill="#000000" fill-rule="evenodd" fill-opacity="1" /><path clip-path="url(#clip500)" d="M1833.49 1250.28 L1833.49 1265.93 L1829.23 1265.93 L1829.23 1250.42 Q1829.23 1246.74 1827.8 1244.91 Q1826.36 1243.08 1823.49 1243.08 Q1820.04 1243.08 1818.05 1245.28 Q1816.06 1247.48 1816.06 1251.28 L1816.06 1265.93 L1811.78 1265.93 L1811.78 1229.91 L1816.06 1229.91 L1816.06 1244.03 Q1817.59 1241.69 1819.65 1240.54 Q1821.73 1239.38 1824.44 1239.38 Q1828.91 1239.38 1831.2 1242.16 Q1833.49 1244.91 1833.49 1250.28 Z" fill="#000000" fill-rule="evenodd" fill-opacity="1" /><path clip-path="url(#clip500)" d="M1862.17 1244.98 Q1863.77 1242.11 1865.99 1240.74 Q1868.21 1239.38 1871.22 1239.38 Q1875.27 1239.38 1877.47 1242.23 Q1879.67 1245.05 1879.67 1250.28 L1879.67 1265.93 L1875.39 1265.93 L1875.39 1250.42 Q1875.39 1246.69 1874.07 1244.89 Q1872.75 1243.08 1870.04 1243.08 Q1866.73 1243.08 1864.81 1245.28 Q1862.89 1247.48 1862.89 1251.28 L1862.89 1265.93 L1858.61 1265.93 L1858.61 1250.42 Q1858.61 1246.67 1857.29 1244.89 Q1855.97 1243.08 1853.21 1243.08 Q1849.95 1243.08 1848.03 1245.3 Q1846.11 1247.5 1846.11 1251.28 L1846.11 1265.93 L1841.83 1265.93 L1841.83 1240 L1846.11 1240 L1846.11 1244.03 Q1847.57 1241.65 1849.6 1240.51 Q1851.64 1239.38 1854.44 1239.38 Q1857.27 1239.38 1859.23 1240.81 Q1861.22 1242.25 1862.17 1244.98 Z" fill="#000000" fill-rule="evenodd" fill-opacity="1" /><polyline clip-path="url(#clip500)" style="stroke:#1e90ff; stroke-linecap:butt; stroke-linejoin:round; stroke-width:4; stroke-opacity:1; fill:none" points="
  1295.58,1300.49 1436.57,1300.49 
  "/>
<path clip-path="url(#clip500)" d="M1483.96 1295.83 Q1483.96 1297.14 1483.14 1297.89 Q1482.32 1298.62 1481.38 1298.62 Q1480.49 1298.62 1480.02 1298.1 Q1479.56 1297.59 1479.56 1296.93 Q1479.56 1296.04 1480.21 1295.27 Q1480.87 1294.5 1481.85 1294.33 Q1480.89 1293.72 1479.46 1293.72 Q1478.53 1293.72 1477.71 1294.22 Q1476.91 1294.71 1476.42 1295.34 Q1475.95 1295.97 1475.53 1296.89 Q1475.13 1297.78 1474.96 1298.31 Q1474.82 1298.83 1474.71 1299.39 L1473.07 1305.95 Q1472.27 1309.07 1472.27 1310.17 Q1472.27 1311.52 1472.93 1312.44 Q1473.58 1313.33 1474.89 1313.33 Q1475.41 1313.33 1476 1313.19 Q1476.58 1313.02 1477.33 1312.6 Q1478.1 1312.16 1478.78 1311.5 Q1479.49 1310.82 1480.16 1309.67 Q1480.84 1308.53 1481.29 1307.05 Q1481.43 1306.54 1481.9 1306.54 Q1482.48 1306.54 1482.48 1307 Q1482.48 1307.4 1482.16 1308.25 Q1481.85 1309.07 1481.17 1310.14 Q1480.52 1311.2 1479.65 1312.16 Q1478.78 1313.09 1477.49 1313.75 Q1476.21 1314.41 1474.8 1314.41 Q1472.79 1314.41 1471.45 1313.33 Q1470.12 1312.25 1469.62 1310.75 Q1469.51 1310.96 1469.34 1311.24 Q1469.18 1311.52 1468.69 1312.16 Q1468.22 1312.77 1467.68 1313.23 Q1467.14 1313.68 1466.3 1314.03 Q1465.48 1314.41 1464.59 1314.41 Q1463.46 1314.41 1462.46 1314.08 Q1461.47 1313.75 1460.77 1313 Q1460.07 1312.25 1460.07 1311.22 Q1460.07 1310.07 1460.84 1309.28 Q1461.64 1308.46 1462.71 1308.46 Q1463.39 1308.46 1463.93 1308.85 Q1464.5 1309.25 1464.5 1310.12 Q1464.5 1311.08 1463.84 1311.81 Q1463.18 1312.53 1462.25 1312.72 Q1463.21 1313.33 1464.64 1313.33 Q1466.18 1313.33 1467.4 1311.97 Q1468.62 1310.61 1469.2 1308.34 Q1470.66 1302.88 1471.22 1300.45 Q1471.78 1297.99 1471.78 1296.93 Q1471.78 1295.95 1471.52 1295.27 Q1471.26 1294.59 1470.82 1294.29 Q1470.4 1293.96 1470 1293.84 Q1469.62 1293.72 1469.2 1293.72 Q1468.5 1293.72 1467.7 1294 Q1466.93 1294.29 1465.99 1294.94 Q1465.08 1295.57 1464.21 1296.89 Q1463.35 1298.2 1462.76 1300 Q1462.64 1300.54 1462.13 1300.54 Q1461.57 1300.52 1461.57 1300.05 Q1461.57 1299.65 1461.87 1298.83 Q1462.2 1297.99 1462.86 1296.93 Q1463.53 1295.88 1464.4 1294.94 Q1465.29 1293.98 1466.58 1293.33 Q1467.89 1292.67 1469.3 1292.67 Q1469.93 1292.67 1470.54 1292.81 Q1471.17 1292.93 1471.92 1293.28 Q1472.69 1293.63 1473.37 1294.4 Q1474.05 1295.18 1474.47 1296.3 Q1474.75 1295.76 1475.13 1295.25 Q1475.53 1294.73 1476.14 1294.1 Q1476.77 1293.44 1477.64 1293.07 Q1478.53 1292.67 1479.51 1292.67 Q1480.47 1292.67 1481.41 1292.93 Q1482.34 1293.16 1483.14 1293.93 Q1483.96 1294.68 1483.96 1295.83 Z" fill="#000000" fill-rule="evenodd" fill-opacity="1" /><path clip-path="url(#clip500)" d="M1488.84 1299.53 Q1488.84 1298.92 1488.89 1298.74 Q1488.96 1298.56 1489.22 1298.28 L1495.67 1291.1 Q1499.19 1287.13 1499.19 1283.67 Q1499.19 1281.43 1498.01 1279.82 Q1496.85 1278.21 1494.7 1278.21 Q1493.22 1278.21 1491.98 1279.11 Q1490.73 1280.02 1490.16 1281.62 Q1490.25 1281.59 1490.6 1281.59 Q1491.43 1281.59 1491.89 1282.11 Q1492.37 1282.64 1492.37 1283.34 Q1492.37 1284.25 1491.78 1284.69 Q1491.21 1285.11 1490.63 1285.11 Q1490.4 1285.11 1490.09 1285.07 Q1489.8 1285.02 1489.32 1284.56 Q1488.84 1284.08 1488.84 1283.25 Q1488.84 1280.9 1490.62 1279.03 Q1492.4 1277.16 1495.12 1277.16 Q1498.21 1277.16 1500.22 1279 Q1502.26 1280.82 1502.26 1283.67 Q1502.26 1284.67 1501.94 1285.59 Q1501.65 1286.49 1501.24 1287.2 Q1500.85 1287.9 1499.76 1289.03 Q1498.68 1290.16 1497.81 1290.97 Q1496.94 1291.77 1494.99 1293.48 L1491.43 1296.94 L1497.48 1296.94 Q1500.44 1296.94 1500.67 1296.67 Q1500.99 1296.2 1501.4 1293.69 L1502.26 1293.69 L1501.31 1299.53 L1488.84 1299.53 Z" fill="#000000" fill-rule="evenodd" fill-opacity="1" /><path clip-path="url(#clip500)" d="M1521.65 1302.46 Q1520.55 1302.46 1520.55 1301.87 Q1520.55 1301.29 1521.69 1301.29 Q1521.84 1301.29 1522.07 1301.31 Q1522.33 1301.34 1522.37 1301.34 L1535.89 1301.34 L1535.89 1287.77 Q1535.89 1287.73 1535.87 1287.52 Q1535.84 1287.28 1535.84 1287.14 Q1535.84 1285.99 1536.4 1285.99 Q1536.99 1285.99 1536.99 1287.14 L1536.99 1301.34 L1550.53 1301.34 Q1550.57 1301.34 1550.81 1301.31 Q1551.04 1301.29 1551.18 1301.29 Q1552.28 1301.29 1552.28 1301.87 Q1552.31 1302.46 1551.14 1302.46 Q1551 1302.46 1550.79 1302.44 Q1550.57 1302.41 1550.53 1302.41 L1536.99 1302.41 L1536.99 1316.65 Q1536.99 1317.75 1536.4 1317.75 Q1535.84 1317.75 1535.84 1316.61 Q1535.84 1316.47 1535.87 1316.23 Q1535.89 1316.02 1535.89 1315.97 L1535.89 1302.41 L1522.37 1302.41 Q1522.33 1302.41 1522.05 1302.44 Q1521.79 1302.46 1521.65 1302.46 Z" fill="#000000" fill-rule="evenodd" fill-opacity="1" /><path clip-path="url(#clip500)" d="M1592.93 1294.5 Q1592.93 1294.82 1592.72 1295.6 L1588.13 1313.91 Q1587.12 1317.99 1583.85 1320.85 Q1580.59 1323.7 1576.89 1323.7 Q1574.66 1323.7 1573.23 1322.51 Q1571.81 1321.34 1571.81 1319.53 Q1571.81 1317.94 1572.65 1317.17 Q1573.49 1316.42 1574.5 1316.42 Q1574.83 1316.42 1575.18 1316.51 Q1575.53 1316.61 1575.91 1317.01 Q1576.28 1317.4 1576.28 1318.08 Q1576.28 1319.18 1575.32 1320.05 Q1574.85 1320.45 1574.41 1320.54 Q1573.98 1320.64 1573.26 1320.64 Q1573.54 1321.29 1574.05 1321.74 Q1574.57 1322.18 1575.16 1322.35 Q1575.74 1322.53 1576.12 1322.58 Q1576.51 1322.65 1576.89 1322.65 Q1579.89 1322.65 1582.18 1319.63 Q1582.86 1318.72 1583.35 1317.8 Q1583.87 1316.91 1584.24 1315.81 Q1584.62 1314.73 1584.78 1314.15 Q1584.97 1313.56 1585.3 1312.23 Q1583.12 1314.41 1580.45 1314.41 Q1579.32 1314.41 1578.32 1314.1 Q1577.33 1313.8 1576.47 1313.16 Q1575.6 1312.51 1575.09 1311.36 Q1574.59 1310.21 1574.59 1308.69 Q1574.59 1307.07 1575.23 1304.87 Q1575.86 1302.67 1577.38 1298.62 Q1578.2 1296.35 1578.2 1295.25 Q1578.2 1294.71 1578.08 1294.38 Q1577.97 1294.03 1577.73 1293.91 Q1577.5 1293.77 1577.36 1293.75 Q1577.24 1293.72 1577.01 1293.72 Q1575.62 1293.72 1574.34 1295.13 Q1573.05 1296.53 1572.16 1299.67 Q1571.97 1300.26 1571.85 1300.4 Q1571.74 1300.54 1571.38 1300.54 Q1570.8 1300.52 1570.8 1300.05 Q1570.8 1299.86 1571.01 1299.13 Q1571.22 1298.38 1571.71 1297.28 Q1572.23 1296.16 1572.93 1295.15 Q1573.63 1294.12 1574.73 1293.4 Q1575.86 1292.67 1577.15 1292.67 Q1578.9 1292.67 1579.98 1293.82 Q1581.08 1294.94 1581.08 1296.6 Q1581.08 1297.28 1580.89 1297.89 Q1580.73 1298.48 1580.12 1300.05 Q1577.66 1306.37 1577.66 1309.46 Q1577.66 1310.21 1577.78 1310.85 Q1577.92 1311.45 1578.22 1312.06 Q1578.53 1312.65 1579.14 1313 Q1579.77 1313.33 1580.64 1313.33 Q1581.74 1313.33 1582.77 1312.81 Q1583.82 1312.27 1584.48 1311.55 Q1585.16 1310.82 1585.56 1310.21 Q1585.98 1309.58 1586.07 1309.25 L1588.23 1300.63 L1589.19 1296.79 Q1589.63 1294.71 1589.84 1294.19 Q1590.12 1293.7 1590.61 1293.44 Q1591.11 1293.18 1591.53 1293.18 Q1592.11 1293.18 1592.51 1293.54 Q1592.93 1293.89 1592.93 1294.5 Z" fill="#000000" fill-rule="evenodd" fill-opacity="1" /><path clip-path="url(#clip500)" d="M1597.83 1299.53 Q1597.83 1298.92 1597.87 1298.74 Q1597.94 1298.56 1598.2 1298.28 L1604.65 1291.1 Q1608.17 1287.13 1608.17 1283.67 Q1608.17 1281.43 1606.99 1279.82 Q1605.83 1278.21 1603.68 1278.21 Q1602.2 1278.21 1600.96 1279.11 Q1599.71 1280.02 1599.14 1281.62 Q1599.24 1281.59 1599.58 1281.59 Q1600.42 1281.59 1600.87 1282.11 Q1601.35 1282.64 1601.35 1283.34 Q1601.35 1284.25 1600.76 1284.69 Q1600.19 1285.11 1599.61 1285.11 Q1599.38 1285.11 1599.07 1285.07 Q1598.78 1285.02 1598.3 1284.56 Q1597.83 1284.08 1597.83 1283.25 Q1597.83 1280.9 1599.6 1279.03 Q1601.38 1277.16 1604.1 1277.16 Q1607.19 1277.16 1609.2 1279 Q1611.24 1280.82 1611.24 1283.67 Q1611.24 1284.67 1610.93 1285.59 Q1610.63 1286.49 1610.22 1287.2 Q1609.83 1287.9 1608.74 1289.03 Q1607.66 1290.16 1606.79 1290.97 Q1605.92 1291.77 1603.97 1293.48 L1600.42 1296.94 L1606.47 1296.94 Q1609.42 1296.94 1609.65 1296.67 Q1609.97 1296.2 1610.38 1293.69 L1611.24 1293.69 L1610.29 1299.53 L1597.83 1299.53 Z" fill="#000000" fill-rule="evenodd" fill-opacity="1" /><path clip-path="url(#clip500)" d="M1629.53 1306.58 Q1629.57 1306 1630.49 1306 L1659.88 1306 Q1661.27 1306 1661.29 1306.54 Q1661.29 1307.12 1659.98 1307.1 L1630.82 1307.1 Q1629.53 1307.12 1629.53 1306.58 M1629.53 1297.21 Q1629.53 1296.63 1630.54 1296.65 L1659.84 1296.65 Q1661.27 1296.65 1661.29 1297.21 Q1661.29 1297.75 1660.07 1297.75 L1630.49 1297.75 Q1629.53 1297.75 1629.53 1297.21 Z" fill="#000000" fill-rule="evenodd" fill-opacity="1" /><path clip-path="url(#clip500)" d="M1679.78 1286.49 L1679.78 1284.99 Q1685.54 1284.99 1688.52 1281.92 Q1689.34 1281.92 1689.48 1282.11 Q1689.62 1282.29 1689.62 1283.16 L1689.62 1310.07 Q1689.62 1311.5 1690.32 1311.95 Q1691.02 1312.39 1694.09 1312.39 L1695.61 1312.39 L1695.61 1313.87 Q1693.93 1313.73 1687.84 1313.73 Q1681.75 1313.73 1680.08 1313.87 L1680.08 1312.39 L1681.61 1312.39 Q1684.63 1312.39 1685.35 1311.97 Q1686.08 1311.52 1686.08 1310.07 L1686.08 1285.22 Q1683.57 1286.49 1679.78 1286.49 Z" fill="#000000" fill-rule="evenodd" fill-opacity="1" /><polyline clip-path="url(#clip500)" style="stroke:#800080; stroke-linecap:butt; stroke-linejoin:round; stroke-width:4; stroke-opacity:1; fill:none" points="
  1295.58,1352.33 1436.57,1352.33 
  "/>
<path clip-path="url(#clip500)" d="M1483.96 1345.25 Q1483.96 1346.56 1483.14 1347.31 Q1482.32 1348.03 1481.38 1348.03 Q1480.49 1348.03 1480.02 1347.52 Q1479.56 1347 1479.56 1346.35 Q1479.56 1345.46 1480.21 1344.69 Q1480.87 1343.91 1481.85 1343.75 Q1480.89 1343.14 1479.46 1343.14 Q1478.53 1343.14 1477.71 1343.63 Q1476.91 1344.12 1476.42 1344.76 Q1475.95 1345.39 1475.53 1346.3 Q1475.13 1347.19 1474.96 1347.73 Q1474.82 1348.25 1474.71 1348.81 L1473.07 1355.37 Q1472.27 1358.48 1472.27 1359.58 Q1472.27 1360.94 1472.93 1361.85 Q1473.58 1362.74 1474.89 1362.74 Q1475.41 1362.74 1476 1362.6 Q1476.58 1362.44 1477.33 1362.02 Q1478.1 1361.57 1478.78 1360.92 Q1479.49 1360.24 1480.16 1359.09 Q1480.84 1357.94 1481.29 1356.47 Q1481.43 1355.95 1481.9 1355.95 Q1482.48 1355.95 1482.48 1356.42 Q1482.48 1356.82 1482.16 1357.66 Q1481.85 1358.48 1481.17 1359.56 Q1480.52 1360.61 1479.65 1361.57 Q1478.78 1362.51 1477.49 1363.17 Q1476.21 1363.82 1474.8 1363.82 Q1472.79 1363.82 1471.45 1362.74 Q1470.12 1361.67 1469.62 1360.17 Q1469.51 1360.38 1469.34 1360.66 Q1469.18 1360.94 1468.69 1361.57 Q1468.22 1362.18 1467.68 1362.65 Q1467.14 1363.1 1466.3 1363.45 Q1465.48 1363.82 1464.59 1363.82 Q1463.46 1363.82 1462.46 1363.49 Q1461.47 1363.17 1460.77 1362.42 Q1460.07 1361.67 1460.07 1360.64 Q1460.07 1359.49 1460.84 1358.69 Q1461.64 1357.87 1462.71 1357.87 Q1463.39 1357.87 1463.93 1358.27 Q1464.5 1358.67 1464.5 1359.54 Q1464.5 1360.5 1463.84 1361.22 Q1463.18 1361.95 1462.25 1362.14 Q1463.21 1362.74 1464.64 1362.74 Q1466.18 1362.74 1467.4 1361.39 Q1468.62 1360.03 1469.2 1357.76 Q1470.66 1352.3 1471.22 1349.86 Q1471.78 1347.4 1471.78 1346.35 Q1471.78 1345.36 1471.52 1344.69 Q1471.26 1344.01 1470.82 1343.7 Q1470.4 1343.37 1470 1343.26 Q1469.62 1343.14 1469.2 1343.14 Q1468.5 1343.14 1467.7 1343.42 Q1466.93 1343.7 1465.99 1344.36 Q1465.08 1344.99 1464.21 1346.3 Q1463.35 1347.61 1462.76 1349.42 Q1462.64 1349.96 1462.13 1349.96 Q1461.57 1349.93 1461.57 1349.46 Q1461.57 1349.07 1461.87 1348.25 Q1462.2 1347.4 1462.86 1346.35 Q1463.53 1345.29 1464.4 1344.36 Q1465.29 1343.4 1466.58 1342.74 Q1467.89 1342.09 1469.3 1342.09 Q1469.93 1342.09 1470.54 1342.23 Q1471.17 1342.34 1471.92 1342.69 Q1472.69 1343.05 1473.37 1343.82 Q1474.05 1344.59 1474.47 1345.72 Q1474.75 1345.18 1475.13 1344.66 Q1475.53 1344.15 1476.14 1343.51 Q1476.77 1342.86 1477.64 1342.48 Q1478.53 1342.09 1479.51 1342.09 Q1480.47 1342.09 1481.41 1342.34 Q1482.34 1342.58 1483.14 1343.35 Q1483.96 1344.1 1483.96 1345.25 Z" fill="#000000" fill-rule="evenodd" fill-opacity="1" /><path clip-path="url(#clip500)" d="M1508.79 1343.91 Q1508.79 1344.24 1508.58 1345.01 L1503.98 1363.33 Q1502.98 1367.41 1499.7 1370.26 Q1496.44 1373.12 1492.74 1373.12 Q1490.52 1373.12 1489.09 1371.93 Q1487.66 1370.75 1487.66 1368.95 Q1487.66 1367.36 1488.5 1366.59 Q1489.35 1365.84 1490.35 1365.84 Q1490.68 1365.84 1491.03 1365.93 Q1491.38 1366.02 1491.76 1366.42 Q1492.13 1366.82 1492.13 1367.5 Q1492.13 1368.6 1491.17 1369.47 Q1490.7 1369.86 1490.26 1369.96 Q1489.84 1370.05 1489.11 1370.05 Q1489.39 1370.71 1489.91 1371.15 Q1490.42 1371.6 1491.01 1371.76 Q1491.59 1371.95 1491.97 1372 Q1492.37 1372.07 1492.74 1372.07 Q1495.74 1372.07 1498.03 1369.04 Q1498.71 1368.13 1499.21 1367.22 Q1499.72 1366.33 1500.1 1365.23 Q1500.47 1364.15 1500.63 1363.56 Q1500.82 1362.98 1501.15 1361.64 Q1498.97 1363.82 1496.3 1363.82 Q1495.18 1363.82 1494.17 1363.52 Q1493.19 1363.21 1492.32 1362.58 Q1491.45 1361.92 1490.94 1360.78 Q1490.45 1359.63 1490.45 1358.11 Q1490.45 1356.49 1491.08 1354.29 Q1491.71 1352.09 1493.23 1348.03 Q1494.05 1345.76 1494.05 1344.66 Q1494.05 1344.12 1493.94 1343.8 Q1493.82 1343.44 1493.58 1343.33 Q1493.35 1343.19 1493.21 1343.16 Q1493.09 1343.14 1492.86 1343.14 Q1491.48 1343.14 1490.19 1344.54 Q1488.9 1345.95 1488.01 1349.09 Q1487.82 1349.67 1487.71 1349.81 Q1487.59 1349.96 1487.24 1349.96 Q1486.65 1349.93 1486.65 1349.46 Q1486.65 1349.28 1486.86 1348.55 Q1487.07 1347.8 1487.57 1346.7 Q1488.08 1345.58 1488.78 1344.57 Q1489.49 1343.54 1490.59 1342.81 Q1491.71 1342.09 1493 1342.09 Q1494.76 1342.09 1495.83 1343.23 Q1496.93 1344.36 1496.93 1346.02 Q1496.93 1346.7 1496.75 1347.31 Q1496.58 1347.89 1495.97 1349.46 Q1493.51 1355.79 1493.51 1358.88 Q1493.51 1359.63 1493.63 1360.26 Q1493.77 1360.87 1494.08 1361.48 Q1494.38 1362.06 1494.99 1362.42 Q1495.62 1362.74 1496.49 1362.74 Q1497.59 1362.74 1498.62 1362.23 Q1499.67 1361.69 1500.33 1360.96 Q1501.01 1360.24 1501.41 1359.63 Q1501.83 1359 1501.92 1358.67 L1504.08 1350.05 L1505.04 1346.21 Q1505.48 1344.12 1505.69 1343.61 Q1505.98 1343.12 1506.47 1342.86 Q1506.96 1342.6 1507.38 1342.6 Q1507.97 1342.6 1508.36 1342.95 Q1508.79 1343.3 1508.79 1343.91 Z" fill="#000000" fill-rule="evenodd" fill-opacity="1" /><path clip-path="url(#clip500)" d="M1554.89 1350.61 Q1555.17 1350.89 1555.17 1351.29 Q1555.17 1351.69 1554.89 1351.97 Q1554.61 1352.25 1554.21 1352.25 L1524.18 1352.25 Q1523.78 1352.25 1523.5 1351.97 Q1523.22 1351.69 1523.22 1351.29 Q1523.22 1350.89 1523.5 1350.61 Q1523.78 1350.33 1524.18 1350.33 L1554.21 1350.33 Q1554.61 1350.33 1554.89 1350.61 Z" fill="#000000" fill-rule="evenodd" fill-opacity="1" /><path clip-path="url(#clip500)" d="M1573.47 1355.55 Q1573.47 1354.12 1574.24 1353.59 Q1575.02 1353.02 1575.84 1353.02 Q1576.94 1353.02 1577.57 1353.73 Q1578.23 1354.41 1578.23 1355.37 Q1578.23 1356.33 1577.57 1357.03 Q1576.94 1357.71 1575.84 1357.71 Q1575.3 1357.71 1575.02 1357.61 Q1575.65 1359.82 1577.57 1361.41 Q1579.51 1363 1582.07 1363 Q1585.28 1363 1587.2 1359.89 Q1588.34 1357.87 1588.34 1353.3 Q1588.34 1349.28 1587.48 1347.26 Q1586.14 1344.19 1583.4 1344.19 Q1579.51 1344.19 1577.22 1347.54 Q1576.94 1347.96 1576.61 1347.99 Q1576.14 1347.99 1576.02 1347.73 Q1575.93 1347.45 1575.93 1346.72 L1575.93 1332.53 Q1575.93 1331.38 1576.4 1331.38 Q1576.59 1331.38 1576.98 1331.52 Q1580.01 1332.86 1583.36 1332.88 Q1586.8 1332.88 1589.89 1331.48 Q1590.12 1331.33 1590.26 1331.33 Q1590.73 1331.33 1590.76 1331.87 Q1590.76 1332.06 1590.36 1332.62 Q1589.98 1333.16 1589.16 1333.89 Q1588.34 1334.59 1587.29 1335.27 Q1586.24 1335.95 1584.69 1336.42 Q1583.17 1336.86 1581.48 1336.86 Q1579.47 1336.86 1577.41 1336.23 L1577.41 1345.58 Q1579.89 1343.14 1583.5 1343.14 Q1587.34 1343.14 1589.98 1346.23 Q1592.63 1349.32 1592.63 1353.63 Q1592.63 1358.15 1589.49 1361.25 Q1586.38 1364.34 1582.16 1364.34 Q1578.32 1364.34 1575.88 1361.6 Q1573.47 1358.86 1573.47 1355.55 Z" fill="#000000" fill-rule="evenodd" fill-opacity="1" /></svg>
